<svg width="154" height="153" viewBox="0 0 154 153" fill="none" xmlns="http://www.w3.org/2000/svg">
<path d="M76.5 76.2855V7.62939e-06C55.4933 7.62939e-06 36.4753 8.68949 22.709 22.4945L76.5 76.2855Z" fill="#F72585"/>
<path d="M76.5 76.2854H0.214485C0.214485 55.2787 8.90397 36.2607 22.7089 22.4944L76.5 76.2854Z" fill="#B5179E"/>
<path d="M76.5 76.2855H0.214485C0.214485 97.2922 8.90397 116.31 22.7089 130.077L76.5 76.2855Z" fill="#7209B7"/>
<path d="M76.5 76.2855V152.571C55.4933 152.571 36.4753 143.882 22.709 130.077L76.5 76.2855Z" fill="#560BAD"/>
<path d="M76.5009 76.2855V152.571C97.5076 152.571 116.526 143.882 130.292 130.077L76.5009 76.2855Z" fill="#3B009A"/>
<path d="M76.5 76.2855H152.786C152.786 97.2922 144.096 116.31 130.291 130.077L76.5 76.2855Z" fill="#ECFCFF"/>
<g opacity="0.4">
<path d="M76.5 76.2854H152.786C152.786 55.2787 144.096 36.2607 130.291 22.4944L76.5 76.2854Z" fill="#8AEBFF"/>
</g>
<path d="M76.5009 76.2855V7.62939e-06C97.5076 7.62939e-06 116.526 8.68949 130.292 22.4945L76.5009 76.2855Z" fill="#CAF0F8"/>
</svg>
