<svg width="510" height="510" viewBox="0 0 510 510" fill="none" xmlns="http://www.w3.org/2000/svg">
<path fill-rule="evenodd" clip-rule="evenodd" d="M255 131.266C255 131.266 255 131.266 254.999 131.266C186.663 131.266 131.265 186.663 131.265 255C131.265 255 131.265 255 131.265 255H0C0 114.179 114.179 0 255 0V131.266Z" fill="#83E1FF"/>
<path fill-rule="evenodd" clip-rule="evenodd" d="M131.265 255H0C0 311.143 15.5807 359.096 48.764 404.557L154.824 327.645C140.005 307.245 131.265 282.143 131.265 255Z" fill="#48CEFF"/>
<path fill-rule="evenodd" clip-rule="evenodd" d="M272.249 377.541C266.612 378.327 260.853 378.734 254.999 378.734C213.794 378.734 177.293 358.592 154.805 327.618L48.4175 404.8C104.861 482.315 195.6 520.717 290.506 507.401L272.249 377.541Z" fill="#1EB0FF"/>
<path fill-rule="evenodd" clip-rule="evenodd" d="M315.101 363.183C302.068 370.439 287.587 375.408 272.2 377.548L290.489 507.848C323.953 503.084 349.081 494.157 378.734 477.722L315.101 363.183Z" fill="#0693FF"/>
<path fill-rule="evenodd" clip-rule="evenodd" d="M315.19 363.133C353.097 341.988 378.734 301.488 378.734 255C378.734 235.503 374.224 217.06 366.192 200.656L484.3 143.101C543.559 264.587 497.032 412.224 378.753 477.722L315.19 363.133Z" fill="#007AF5"/>
<path fill-rule="evenodd" clip-rule="evenodd" d="M343.901 168.938C352.888 178.219 360.434 188.903 366.179 200.63L484.177 142.925C471.808 117.648 457.894 97.7373 438.389 77.4684L343.901 168.938Z" fill="#0861C5"/>
<path fill-rule="evenodd" clip-rule="evenodd" d="M293.188 137.271C312.656 143.582 330.011 154.587 343.915 168.953L438.449 77.468C407.134 45.0549 376.229 26.8023 333.526 12.911L293.188 137.271Z" fill="#0D549B"/>
<path fill-rule="evenodd" clip-rule="evenodd" d="M255 131.266C268.307 131.266 281.123 133.366 293.135 137.254L333.544 12.4883C306.849 3.80597 283.119 0 255 0V131.266Z" fill="#0E335D"/>
<rect x="284.545" y="269.557" width="13.3985" height="13.3985" rx="3.8979" fill="#B5EBFF"/>
<path d="M254.739 229.177H240.55C239.175 229.177 237.924 229.972 237.34 231.216L215.412 277.901C214.308 280.253 216.024 282.956 218.623 282.956H233.047C234.427 282.956 235.682 282.155 236.264 280.903L257.955 234.219C259.048 231.868 257.331 229.177 254.739 229.177Z" fill="#B5EBFF"/>
<path d="M284.295 229.177H298.343C300.933 229.177 302.65 231.862 301.563 234.213L292.349 254.144C291.769 255.399 290.512 256.202 289.129 256.202H269.533L279.912 277.877C281.04 280.231 279.324 282.956 276.713 282.956H262.551C261.176 282.956 259.925 282.161 259.341 280.916L250.113 261.256C249.009 258.904 250.726 256.202 253.324 256.202H269.533L281.075 231.236C281.655 229.981 282.912 229.177 284.295 229.177Z" fill="#B5EBFF"/>
</svg>
