<svg width="42" height="42" viewBox="0 0 42 42" fill="none" xmlns="http://www.w3.org/2000/svg">
<g id="lightning-bolt 1">
<path id="Vector" d="M5.85547 22.7911L24.6295 2.32031L29.2857 6.12953L27.5557 15.3734H33.536L38.1499 19.1826L19.467 39.6441L14.7629 35.8501L16.4496 26.5911H10.6028L5.85547 22.7911Z" fill="#0D0D0D"/>
<path id="Vector_2" d="M24.6291 2.32031L5.85547 22.7911H17.2174L14.7627 35.8501L33.5364 15.3793H22.1745L24.6291 2.32031Z" fill="#0DD5B8"/>
<path id="Vector_3" d="M14.7617 35.8516L19.4658 39.6458L38.1487 19.1841L33.5348 15.375L14.7617 35.8516Z" fill="#120730"/>
<path id="Vector_4" d="M10.6028 26.5891H16.4496L17.2174 22.7891H5.85547L10.6028 26.5891Z" fill="#120730"/>
<path id="Vector_5" d="M27.1937 14.9363L22.7033 14.9412L24.9241 3.12625L28.8093 6.30398L27.1937 14.9363Z" fill="#120730" stroke="#0488F5" stroke-width="0.875"/>
<path id="Vector_6" d="M5.85547 22.7911L24.6295 2.32031L29.2857 6.12953L27.5557 15.3734H33.536L38.1499 19.1826L19.467 39.6441L14.7629 35.8501L16.4496 26.5911H10.6028L5.85547 22.7911Z" stroke="#551FE9" stroke-width="1.75" stroke-linecap="round" stroke-linejoin="round"/>
<path id="Vector_7" d="M24.6291 2.32031L5.85547 22.7911H17.2174L14.7627 35.8501L33.5364 15.3793H22.1745L24.6291 2.32031Z" stroke="#0488F5" stroke-width="1.75" stroke-linecap="round" stroke-linejoin="round"/>
<path id="Vector_8" d="M14.7617 35.8516L19.4658 39.6458L38.1487 19.1841L33.5348 15.375L14.7617 35.8516Z" stroke="#0488F5" stroke-width="1.75" stroke-linecap="round" stroke-linejoin="round"/>
<path id="Vector_9" d="M10.6028 26.5891H16.4496L17.2174 22.7891H5.85547L10.6028 26.5891Z" stroke="#0488F5" stroke-width="1.75" stroke-linecap="round" stroke-linejoin="round"/>
<path id="Vector_10" d="M24.6303 2.32078L22.1758 15.3793L27.557 15.3734L29.287 6.12953L24.6303 2.32078Z" stroke="#0488F5" stroke-width="1.75" stroke-linecap="round" stroke-linejoin="round"/>
</g>
</svg>
