<svg width="25" height="24" viewBox="0 0 25 24" fill="none" xmlns="http://www.w3.org/2000/svg">
<g id="swap 1">
<g id="Group">
<path id="Vector" d="M4 0.75H4.75C5.16423 0.75 5.5 1.08579 5.5 1.5C5.5 1.91421 5.16423 2.25 4.75 2.25H4C3.17157 2.25 2.5 2.92157 2.5 3.75V8.25C2.5 9.07841 3.17157 9.75 4 9.75H11.5C12.3284 9.75 13 9.07841 13 8.25V6.75H10.75C10.3358 6.75 10 6.41423 10 6C10 5.58577 10.3358 5.25 10.75 5.25H13V3.75C13 2.92157 12.3284 2.25 11.5 2.25H8.5C8.08577 2.25 7.75 1.91421 7.75 1.5C7.75 1.08579 8.08577 0.75 8.5 0.75H11.5C13.1569 0.75 14.5 2.09314 14.5 3.75V5.25H17.9394L17.7197 5.03032C17.4268 4.73745 17.4268 4.26255 17.7197 3.96968C18.0126 3.67678 18.4874 3.67678 18.7803 3.96968L20.2803 5.46968C20.5732 5.76255 20.5732 6.23745 20.2803 6.53032L18.7803 8.03032C18.4874 8.32324 18.0126 8.32324 17.7197 8.03032C17.4268 7.73745 17.4268 7.26255 17.7197 6.96968L17.9394 6.75H14.5V8.25C14.5 9.90686 13.1569 11.25 11.5 11.25H4C2.34314 11.25 1 9.90686 1 8.25V3.75C1 2.09314 2.34314 0.75 4 0.75Z" fill="white"/>
<path id="Vector_2" d="M20.5 12.75C22.1569 12.75 23.5 14.0931 23.5 15.75V20.25C23.5 21.9069 22.1569 23.25 20.5 23.25H13C11.3431 23.25 10 21.9069 10 20.25V18.75H5.53032L5.75 18.9697C6.04291 19.2625 7.07324 19.7375 6.78032 20.0303C6.48745 20.3232 6.01255 20.3232 5.71967 20.0303L4.21967 18.5303C3.92678 18.2375 3.92678 17.7625 4.21967 17.4697L5.71967 15.9697C6.01255 15.6768 6.48745 15.6768 6.78032 15.9697C7.07324 16.2626 6.04291 16.7374 5.75 17.0303L5.53032 17.25H10V15.75C10 14.0931 11.3431 12.75 13 12.75H16.375C16.7892 12.75 17.125 13.0858 17.125 13.5C17.125 13.9142 16.7892 14.25 16.375 14.25H13C12.1716 14.25 11.5 14.9216 11.5 15.75V17.25H13.75C14.1642 17.25 14.5 17.5858 14.5 18C14.5 18.4142 14.1642 18.75 13.75 18.75H11.5V20.25C11.5 21.0784 12.1716 21.75 13 21.75H20.5C21.3284 21.75 22 21.0784 22 20.25V15.75C22 14.9216 21.3284 14.25 20.5 14.25H20.125C19.7108 14.25 19.375 13.9142 19.375 13.5C19.375 13.0858 19.7108 12.75 20.125 12.75H20.5Z" fill="white"/>
<path id="Vector_3" d="M10.25 6H19.25M17.75 4L19.75 6L17.75 8" stroke="white" stroke-width="1.5" stroke-linecap="round" stroke-linejoin="round"/>
<path id="Vector_4" d="M13.75 18H4.75M6.25 16L4.25 18L6.25 20" stroke="white" stroke-width="1.5" stroke-linecap="round" stroke-linejoin="round"/>
</g>
</g>
</svg>
