<svg width="20" height="20" viewBox="0 0 20 20" fill="none" xmlns="http://www.w3.org/2000/svg">
<path d="M1.07725 14.4107C0.751811 14.7362 0.751811 15.2638 1.07725 15.5893C1.40269 15.9147 1.93032 15.9147 2.25576 15.5893L1.07725 14.4107ZM11.1278 12.2054L11.7171 12.7946L11.7171 12.7946L11.1278 12.2054ZM18.0891 6.42259C18.4145 6.09715 18.4145 5.56951 18.0891 5.24408C17.7637 4.91864 17.236 4.91864 16.9106 5.24408L18.0891 6.42259ZM13.3332 4.16667C12.8729 4.16667 12.4998 4.53976 12.4998 5C12.4998 5.46024 12.8729 5.83333 13.3332 5.83333V4.16667ZM17.4998 10C17.4998 10.4602 17.8729 10.8333 18.3332 10.8333C18.7934 10.8333 19.1665 10.4602 19.1665 10H17.4998ZM2.25576 15.5893L7.79447 10.0505L6.61595 8.87204L1.07725 14.4107L2.25576 15.5893ZM7.20521 10.0505L9.94929 12.7946L11.1278 11.6161L8.38372 8.87204L7.20521 10.0505ZM11.7171 12.7946L18.0891 6.42259L16.9106 5.24408L10.5385 11.6161L11.7171 12.7946ZM9.94929 12.7946C10.4374 13.2828 11.2289 13.2828 11.7171 12.7946L10.5385 11.6161C10.7013 11.4534 10.9651 11.4534 11.1278 11.6161L9.94929 12.7946ZM7.79447 10.0505C7.63175 10.2133 7.36793 10.2133 7.20521 10.0505L8.38372 8.87204C7.89557 8.38388 7.10411 8.38388 6.61595 8.87204L7.79447 10.0505ZM13.3332 5.83333H17.9165V4.16667H13.3332V5.83333ZM17.4998 5.41667V10H19.1665V5.41667H17.4998ZM17.9165 5.83333C17.6864 5.83333 17.4998 5.64679 17.4998 5.41667H19.1665C19.1665 4.72631 18.6069 4.16667 17.9165 4.16667V5.83333Z" fill="#01B85F"/>
</svg>
