<svg width="20" height="20" viewBox="0 0 20 20" fill="none" xmlns="http://www.w3.org/2000/svg">
<path d="M7.85969 14.5458C7.85969 14.891 8.13951 15.1708 8.48469 15.1708C8.82986 15.1708 9.10969 14.891 9.10969 14.5458H7.85969ZM9.10969 5.45487C9.10969 5.10969 8.82986 4.82987 8.48469 4.82987C8.13951 4.82987 7.85969 5.10969 7.85969 5.45487H9.10969ZM4.82938 14.5458C4.82938 14.891 5.1092 15.1708 5.45438 15.1708C5.79956 15.1708 6.07938 14.891 6.07938 14.5458H4.82938ZM6.07938 12.2731C6.07938 11.9279 5.79956 11.6481 5.45438 11.6481C5.1092 11.6481 4.82938 11.9279 4.82938 12.2731H6.07938ZM10.89 14.5458C10.89 14.891 11.1698 15.1708 11.515 15.1708C11.8602 15.1708 12.14 14.891 12.14 14.5458H10.89ZM12.14 7.7276C12.14 7.38242 11.8602 7.1026 11.515 7.1026C11.1698 7.1026 10.89 7.38242 10.89 7.7276H12.14ZM13.9203 14.5458C13.9203 14.891 14.2001 15.1708 14.5453 15.1708C14.8905 15.1708 15.1703 14.891 15.1703 14.5458H13.9203ZM15.1703 10.0003C15.1703 9.65515 14.8905 9.37533 14.5453 9.37533C14.2001 9.37533 13.9203 9.65515 13.9203 10.0003H15.1703ZM3.73472 17.9208L4.01847 17.3639H4.01847L3.73472 17.9208ZM2.07936 16.2654L2.63624 15.9817H2.63624L2.07936 16.2654ZM17.9203 16.2654L17.3634 15.9817L17.9203 16.2654ZM16.265 17.9208L15.9812 17.3639L16.265 17.9208ZM16.265 2.07985L15.9812 2.63673V2.63673L16.265 2.07985ZM17.9203 3.73521L17.3634 4.01895V4.01895L17.9203 3.73521ZM3.73472 2.07985L4.01847 2.63673L3.73472 2.07985ZM2.07936 3.73521L2.63624 4.01895L2.07936 3.73521ZM9.10969 14.5458L9.10969 5.45487H7.85969L7.85969 14.5458H9.10969ZM6.07938 14.5458V12.2731H4.82938V14.5458H6.07938ZM12.14 14.5458V7.7276H10.89V14.5458H12.14ZM15.1703 14.5458V10.0003H13.9203V14.5458H15.1703ZM7.72711 2.29199H12.2726V1.04199H7.72711V2.29199ZM17.7082 7.7276V12.2731H18.9582V7.7276H17.7082ZM12.2726 17.7087H7.72711V18.9587H12.2726V17.7087ZM2.2915 12.2731V7.7276H1.0415V12.2731H2.2915ZM7.72711 17.7087C6.65609 17.7087 5.89042 17.7082 5.29013 17.6591C4.69715 17.6107 4.32081 17.518 4.01847 17.3639L3.45098 18.4777C3.95891 18.7365 4.51806 18.8502 5.18834 18.905C5.85133 18.9591 6.67672 18.9587 7.72711 18.9587V17.7087ZM1.0415 12.2731C1.0415 13.3234 1.04102 14.1488 1.09519 14.8118C1.14995 15.4821 1.26368 16.0413 1.52248 16.5492L2.63624 15.9817C2.48219 15.6794 2.38948 15.303 2.34104 14.71C2.29199 14.1097 2.2915 13.3441 2.2915 12.2731H1.0415ZM4.01847 17.3639C3.42333 17.0607 2.93947 16.5768 2.63624 15.9817L1.52248 16.5492C1.94556 17.3795 2.62064 18.0546 3.45098 18.4777L4.01847 17.3639ZM17.7082 12.2731C17.7082 13.3441 17.7077 14.1097 17.6586 14.71C17.6102 15.303 17.5175 15.6794 17.3634 15.9817L18.4772 16.5492C18.736 16.0413 18.8497 15.4821 18.9045 14.8118C18.9587 14.1488 18.9582 13.3234 18.9582 12.2731H17.7082ZM12.2726 18.9587C13.323 18.9587 14.1483 18.9591 14.8113 18.905C15.4816 18.8502 16.0408 18.7365 16.5487 18.4777L15.9812 17.3639C15.6789 17.518 15.3025 17.6107 14.7095 17.6591C14.1093 17.7082 13.3436 17.7087 12.2726 17.7087V18.9587ZM17.3634 15.9817C17.0602 16.5768 16.5763 17.0607 15.9812 17.3639L16.5487 18.4777C17.379 18.0546 18.0541 17.3795 18.4772 16.5492L17.3634 15.9817ZM12.2726 2.29199C13.3436 2.29199 14.1093 2.29248 14.7095 2.34152C15.3025 2.38997 15.6789 2.48267 15.9812 2.63673L16.5487 1.52297C16.0408 1.26416 15.4816 1.15044 14.8113 1.09567C14.1483 1.04151 13.323 1.04199 12.2726 1.04199V2.29199ZM18.9582 7.7276C18.9582 6.67721 18.9587 5.85182 18.9045 5.18883C18.8497 4.51854 18.736 3.95939 18.4772 3.45147L17.3634 4.01895C17.5175 4.3213 17.6102 4.69764 17.6586 5.29062C17.7077 5.8909 17.7082 6.65658 17.7082 7.7276H18.9582ZM15.9812 2.63673C16.5763 2.93996 17.0602 3.42382 17.3634 4.01895L18.4772 3.45147C18.0541 2.62113 17.379 1.94604 16.5487 1.52297L15.9812 2.63673ZM7.72711 1.04199C6.67672 1.04199 5.85133 1.04151 5.18834 1.09567C4.51806 1.15044 3.95891 1.26416 3.45098 1.52297L4.01847 2.63673C4.32081 2.48267 4.69715 2.38997 5.29013 2.34152C5.89042 2.29248 6.65609 2.29199 7.72711 2.29199V1.04199ZM2.2915 7.7276C2.2915 6.65658 2.29199 5.8909 2.34104 5.29062C2.38948 4.69764 2.48219 4.3213 2.63624 4.01895L1.52248 3.45147C1.26368 3.95939 1.14995 4.51854 1.09519 5.18883C1.04102 5.85182 1.0415 6.67721 1.0415 7.7276H2.2915ZM3.45098 1.52297C2.62064 1.94604 1.94556 2.62113 1.52248 3.45147L2.63624 4.01895C2.93947 3.42382 3.42333 2.93996 4.01847 2.63673L3.45098 1.52297Z" fill="#1EB0FF"/>
</svg>
