<svg width="28" height="28" viewBox="0 0 28 28" fill="none" xmlns="http://www.w3.org/2000/svg">
<g id="Frame">
<path id="Vector" d="M19.8343 10.6986C19.6157 10.4813 19.32 10.3594 19.0118 10.3594C18.7036 10.3594 18.4079 10.4813 18.1893 10.6986L14.001 14.8286L9.87096 10.6986C9.65237 10.4813 9.35667 10.3594 9.04846 10.3594C8.74024 10.3594 8.44455 10.4813 8.22596 10.6986C8.11661 10.8071 8.02981 10.9361 7.97058 11.0783C7.91135 11.2205 7.88086 11.373 7.88086 11.527C7.88086 11.681 7.91135 11.8335 7.97058 11.9756C8.02981 12.1178 8.11661 12.2468 8.22596 12.3553L13.1726 17.302C13.2811 17.4113 13.4101 17.4981 13.5523 17.5573C13.6945 17.6166 13.8469 17.6471 14.001 17.6471C14.155 17.6471 14.3075 17.6166 14.4496 17.5573C14.5918 17.4981 14.7208 17.4113 14.8293 17.302L19.8343 12.3553C19.9436 12.2468 20.0304 12.1178 20.0897 11.9756C20.1489 11.8335 20.1794 11.681 20.1794 11.527C20.1794 11.373 20.1489 11.2205 20.0897 11.0783C20.0304 10.9361 19.9436 10.8071 19.8343 10.6986Z" fill="white"/>
</g>
</svg>
