<svg width="18" height="18" viewBox="0 0 18 18" fill="none" xmlns="http://www.w3.org/2000/svg">
<path d="M9.6359 9.4263L13.4509 13.2413C13.4763 13.269 13.4903 13.3053 13.49 13.343C13.4897 13.3819 13.4741 13.4191 13.4466 13.4466C13.419 13.4741 13.3818 13.4897 13.3429 13.49C13.3053 13.4904 13.269 13.4764 13.2413 13.4509L9.42628 9.63592L8.90174 9.11138L8.3772 9.63592L4.56217 13.4509C4.53451 13.4764 4.49819 13.4904 4.46054 13.49C4.42164 13.4897 4.38443 13.4741 4.35692 13.4466C4.32942 13.4191 4.31381 13.3819 4.31347 13.343C4.31315 13.3053 4.32714 13.269 4.35255 13.2413L8.16758 9.4263L8.69212 8.90176L8.16758 8.37722L4.34616 4.5558C4.34613 4.55578 4.34611 4.55575 4.34608 4.55572C4.31832 4.52791 4.30272 4.49022 4.30272 4.45091C4.30272 4.41157 4.31835 4.37384 4.34616 4.34602C4.37397 4.31831 4.41163 4.30274 4.45089 4.30274C4.49019 4.30274 4.52789 4.31834 4.5557 4.3461C4.55573 4.34613 4.55576 4.34615 4.55578 4.34618L8.3772 8.1676L8.90174 8.69214L9.42628 8.1676L13.2478 4.3461L13.2479 4.34618L13.2568 4.33691C13.2705 4.32274 13.2869 4.31143 13.305 4.30366C13.3231 4.29588 13.3425 4.29179 13.3622 4.29162C13.3819 4.29145 13.4015 4.2952 13.4197 4.30266C13.4379 4.31012 13.4545 4.32114 13.4684 4.33507C13.4824 4.349 13.4934 4.36556 13.5008 4.38379C13.5083 4.40203 13.5121 4.42157 13.5119 4.44126C13.5117 4.46096 13.5076 4.48043 13.4998 4.49853C13.4921 4.51663 13.4808 4.533 13.4666 4.54669L13.4665 4.54661L13.4574 4.55572L9.6359 8.37722L9.11136 8.90176L9.6359 9.4263Z" fill="black" stroke="#93989F" stroke-width="1.48362"/>
</svg>
