<svg width="17" height="17" viewBox="0 0 17 17" fill="none" xmlns="http://www.w3.org/2000/svg">
<g id="Essentials/external link">
<path id="Icon" d="M14.2005 5.71615C14.2005 6.08434 14.499 6.38281 14.8672 6.38281C15.2354 6.38281 15.5339 6.08434 15.5339 5.71615H14.2005ZM11.5339 1.71615C11.1657 1.71615 10.8672 2.01462 10.8672 2.38281C10.8672 2.751 11.1657 3.04948 11.5339 3.04948V1.71615ZM8.39578 7.91141C8.13543 8.17176 8.13543 8.59387 8.39578 8.85422C8.65613 9.11457 9.07824 9.11457 9.33859 8.85422L8.39578 7.91141ZM14.8309 2.56482L14.2368 2.86747L14.2369 2.86748L14.8309 2.56482ZM14.6852 2.41914L14.3825 3.01315L14.3825 3.01315L14.6852 2.41914ZM8.86719 4.38281C9.23538 4.38281 9.53385 4.08434 9.53385 3.71615C9.53385 3.34796 9.23538 3.04948 8.86719 3.04948V4.38281ZM14.2005 8.38281C14.2005 8.01462 13.902 7.71615 13.5339 7.71615C13.1657 7.71615 12.8672 8.01462 12.8672 8.38281H14.2005ZM4.32321 14.0922L4.62587 13.4982L4.62587 13.4982L4.32321 14.0922ZM3.15784 12.9268L2.56383 13.2294L3.15784 12.9268ZM12.0778 14.0922L11.7752 13.4982L11.7752 13.4982L12.0778 14.0922ZM13.2432 12.9268L12.6492 12.6241L12.6492 12.6241L13.2432 12.9268ZM3.15784 5.17217L2.56383 4.86951L2.56383 4.86951L3.15784 5.17217ZM4.32321 4.0068L4.02055 3.41279L4.02055 3.41279L4.32321 4.0068ZM15.5339 5.71615V2.91615H14.2005V5.71615H15.5339ZM14.3339 1.71615H11.5339V3.04948H14.3339V1.71615ZM14.2982 2.00904L8.39578 7.91141L9.33859 8.85422L15.241 2.95185L14.2982 2.00904ZM15.5339 2.91615C15.5339 2.8338 15.5344 2.73195 15.5271 2.64293C15.5192 2.54611 15.4989 2.40745 15.4249 2.26216L14.2369 2.86748C14.2184 2.83126 14.2083 2.79904 14.2029 2.77636C14.1981 2.75579 14.1977 2.74498 14.1982 2.7515C14.1987 2.75828 14.1996 2.77317 14.2 2.803C14.2005 2.8328 14.2005 2.86795 14.2005 2.91615H15.5339ZM14.3339 3.04948C14.382 3.04948 14.4172 3.0495 14.447 3.04996C14.4768 3.05043 14.4917 3.05125 14.4985 3.05181C14.505 3.05234 14.4942 3.0519 14.4736 3.04706C14.451 3.04171 14.4187 3.0316 14.3825 3.01315L14.9878 1.82514C14.8425 1.75111 14.7039 1.73081 14.6071 1.7229C14.518 1.71563 14.4162 1.71615 14.3339 1.71615V3.04948ZM15.4249 2.26216C15.3769 2.16808 15.3147 2.08278 15.241 2.00904L14.2982 2.95185C14.2736 2.92727 14.2528 2.89883 14.2368 2.86747L15.4249 2.26216ZM15.241 2.00904C15.1672 1.9353 15.0819 1.87307 14.9878 1.82514L14.3825 3.01315C14.3512 2.99717 14.3227 2.97642 14.2982 2.95185L15.241 2.00904ZM9.26719 13.7161H7.13385V15.0495H9.26719V13.7161ZM3.53385 10.1161V7.98281H2.20052V10.1161H3.53385ZM7.13385 4.38281H8.86719V3.04948H7.13385V4.38281ZM12.8672 8.38281V10.1161H14.2005V8.38281H12.8672ZM7.13385 13.7161C6.37612 13.7161 5.84791 13.7156 5.43668 13.682C5.03324 13.6491 4.80144 13.5876 4.62587 13.4982L4.02055 14.6862C4.41541 14.8874 4.84221 14.9712 5.3281 15.0109C5.80622 15.05 6.39812 15.0495 7.13385 15.0495V13.7161ZM2.20052 10.1161C2.20052 10.8519 2.2 11.4438 2.23907 11.9219C2.27877 12.4078 2.36264 12.8346 2.56383 13.2294L3.75184 12.6241C3.66238 12.4486 3.60093 12.2168 3.56797 11.8133C3.53437 11.4021 3.53385 10.8739 3.53385 10.1161H2.20052ZM4.62587 13.4982C4.24955 13.3064 3.94359 13.0005 3.75184 12.6241L2.56383 13.2294C2.88341 13.8567 3.39335 14.3666 4.02055 14.6862L4.62587 13.4982ZM9.26719 15.0495C10.0029 15.0495 10.5948 15.05 11.0729 15.0109C11.5588 14.9712 11.9856 14.8874 12.3805 14.6862L11.7752 13.4982C11.5996 13.5876 11.3678 13.6491 10.9644 13.682C10.5531 13.7156 10.0249 13.7161 9.26719 13.7161V15.0495ZM12.8672 10.1161C12.8672 10.8739 12.8667 11.4021 12.8331 11.8133C12.8001 12.2168 12.7387 12.4486 12.6492 12.6241L13.8372 13.2294C14.0384 12.8346 14.1223 12.4078 14.162 11.9219C14.201 11.4438 14.2005 10.8519 14.2005 10.1161H12.8672ZM12.3805 14.6862C13.0077 14.3666 13.5176 13.8567 13.8372 13.2294L12.6492 12.6241C12.4575 13.0005 12.1515 13.3064 11.7752 13.4982L12.3805 14.6862ZM3.53385 7.98281C3.53385 7.22508 3.53437 6.69687 3.56797 6.28564C3.60093 5.88219 3.66238 5.6504 3.75184 5.47483L2.56383 4.86951C2.36264 5.26437 2.27877 5.69116 2.23907 6.17706C2.2 6.65518 2.20052 7.24708 2.20052 7.98281H3.53385ZM7.13385 3.04948C6.39812 3.04948 5.80622 3.04896 5.3281 3.08802C4.84221 3.12772 4.41541 3.2116 4.02055 3.41279L4.62587 4.6008C4.80144 4.51134 5.03324 4.44989 5.43668 4.41693C5.84791 4.38333 6.37612 4.38281 7.13385 4.38281V3.04948ZM3.75184 5.47483C3.94359 5.09851 4.24955 4.79255 4.62587 4.6008L4.02055 3.41279C3.39335 3.73237 2.88341 4.2423 2.56383 4.86951L3.75184 5.47483Z" fill="#48CEFF"/>
</g>
</svg>
