<svg width="16" height="16" viewBox="0 0 16 16" fill="none" xmlns="http://www.w3.org/2000/svg">
<path d="M13.3333 5.33333C13.3333 5.70152 13.6318 6 14 6C14.3682 6 14.6667 5.70152 14.6667 5.33333H13.3333ZM10.6667 1.33333C10.2985 1.33333 10 1.63181 10 2C10 2.36819 10.2985 2.66667 10.6667 2.66667V1.33333ZM7.5286 7.5286C7.26825 7.78895 7.26825 8.21106 7.5286 8.4714C7.78895 8.73175 8.21106 8.73175 8.4714 8.4714L7.5286 7.5286ZM13.9637 2.182L13.3697 2.48466L13.3697 2.48466L13.9637 2.182ZM13.818 2.03633L13.5153 2.63034L13.5153 2.63034L13.818 2.03633ZM8 4C8.36819 4 8.66667 3.70152 8.66667 3.33333C8.66667 2.96514 8.36819 2.66667 8 2.66667V4ZM13.3333 8C13.3333 7.63181 13.0349 7.33333 12.6667 7.33333C12.2985 7.33333 12 7.63181 12 8H13.3333ZM3.45603 13.7094L3.75869 13.1153L3.45603 13.7094ZM2.29065 12.544L1.69664 12.8466L2.29065 12.544ZM11.2106 13.7094L10.908 13.1153L11.2106 13.7094ZM12.376 12.544L11.782 12.2413L12.376 12.544ZM2.29065 4.78936L1.69664 4.4867L1.69664 4.4867L2.29065 4.78936ZM3.45603 3.62398L3.15337 3.02998H3.15336L3.45603 3.62398ZM14.6667 5.33333V2.53333H13.3333V5.33333H14.6667ZM13.4667 1.33333H10.6667V2.66667H13.4667V1.33333ZM13.431 1.62623L7.5286 7.5286L8.4714 8.4714L14.3738 2.56904L13.431 1.62623ZM14.6667 2.53333C14.6667 2.45099 14.6672 2.34914 14.6599 2.26011C14.652 2.1633 14.6317 2.02464 14.5577 1.87934L13.3697 2.48466C13.3512 2.44845 13.3411 2.41623 13.3358 2.39354C13.3309 2.37297 13.3305 2.36217 13.331 2.36869C13.3316 2.37546 13.3324 2.39036 13.3328 2.42018C13.3333 2.44999 13.3333 2.48514 13.3333 2.53333H14.6667ZM13.4667 2.66667C13.5149 2.66667 13.55 2.66668 13.5798 2.66715C13.6096 2.66762 13.6245 2.66844 13.6313 2.66899C13.6378 2.66953 13.627 2.66909 13.6065 2.66424C13.5838 2.6589 13.5516 2.64879 13.5153 2.63034L14.1207 1.44233C13.9754 1.36829 13.8367 1.348 13.7399 1.34009C13.6509 1.33281 13.549 1.33333 13.4667 1.33333V2.66667ZM14.5577 1.87935C14.5097 1.78526 14.4475 1.69997 14.3738 1.62623L13.431 2.56904C13.4064 2.54446 13.3856 2.51602 13.3697 2.48466L14.5577 1.87935ZM14.3738 1.62623C14.3 1.55248 14.2147 1.49026 14.1207 1.44233L13.5153 2.63034C13.484 2.61436 13.4555 2.59361 13.431 2.56904L14.3738 1.62623ZM8.4 13.3333H6.26667V14.6667H8.4V13.3333ZM2.66667 9.73333V7.6H1.33333V9.73333H2.66667ZM6.26667 4H8V2.66667H6.26667V4ZM12 8V9.73333H13.3333V8H12ZM6.26667 13.3333C5.50893 13.3333 4.98072 13.3328 4.56949 13.2992C4.16605 13.2663 3.93426 13.2048 3.75869 13.1153L3.15336 14.3034C3.54823 14.5045 3.97502 14.5884 4.46092 14.6281C4.93903 14.6672 5.53093 14.6667 6.26667 14.6667V13.3333ZM1.33333 9.73333C1.33333 10.4691 1.33281 11.061 1.37188 11.5391C1.41158 12.025 1.49545 12.4518 1.69664 12.8466L2.88465 12.2413C2.7952 12.0657 2.73375 11.834 2.70078 11.4305C2.66719 11.0193 2.66667 10.4911 2.66667 9.73333H1.33333ZM3.75869 13.1153C3.38236 12.9236 3.0764 12.6176 2.88465 12.2413L1.69664 12.8466C2.01622 13.4738 2.52616 13.9838 3.15337 14.3034L3.75869 13.1153ZM8.4 14.6667C9.13574 14.6667 9.72763 14.6672 10.2057 14.6281C10.6916 14.5884 11.1184 14.5045 11.5133 14.3034L10.908 13.1153C10.7324 13.2048 10.5006 13.2663 10.0972 13.2992C9.68595 13.3328 9.15774 13.3333 8.4 13.3333V14.6667ZM12 9.73333C12 10.4911 11.9995 11.0193 11.9659 11.4305C11.9329 11.834 11.8715 12.0657 11.782 12.2413L12.97 12.8466C13.1712 12.4518 13.2551 12.025 13.2948 11.5391C13.3339 11.061 13.3333 10.4691 13.3333 9.73333H12ZM11.5133 14.3034C12.1405 13.9838 12.6504 13.4738 12.97 12.8466L11.782 12.2413C11.5903 12.6176 11.2843 12.9236 10.908 13.1153L11.5133 14.3034ZM2.66667 7.6C2.66667 6.84226 2.66719 6.31405 2.70078 5.90283C2.73375 5.49938 2.7952 5.26759 2.88465 5.09202L1.69664 4.4867C1.49545 4.88156 1.41158 5.30835 1.37188 5.79425C1.33281 6.27237 1.33333 6.86426 1.33333 7.6H2.66667ZM6.26667 2.66667C5.53093 2.66667 4.93903 2.66615 4.46092 2.70521C3.97502 2.74491 3.54823 2.82879 3.15337 3.02998L3.75869 4.21799C3.93426 4.12853 4.16605 4.06708 4.56949 4.03412C4.98072 4.00052 5.50893 4 6.26667 4V2.66667ZM2.88465 5.09202C3.0764 4.71569 3.38236 4.40973 3.75869 4.21799L3.15336 3.02998C2.52616 3.34956 2.01622 3.85949 1.69664 4.4867L2.88465 5.09202Z" fill="#48CEFF"/>
</svg>
