<svg width="18" height="18" viewBox="0 0 18 18" fill="none" xmlns="http://www.w3.org/2000/svg">
<g id="Icon">
<mask id="path-1-inside-1_2716_5541" fill="white">
<path d="M8.59188 0.743929C8.75883 0.405669 9.24117 0.405669 9.40811 0.743929L11.8367 5.66477C11.903 5.79909 12.0311 5.8922 12.1794 5.91373L17.6098 6.70283C17.9831 6.75707 18.1322 7.21581 17.8621 7.47911L13.9325 11.3094C13.8253 11.414 13.7763 11.5646 13.8017 11.7123L14.7293 17.1208C14.7931 17.4926 14.4028 17.7761 14.0689 17.6006L9.21178 15.047C9.0792 14.9773 8.9208 14.9773 8.78822 15.047L3.93106 17.6006C3.59718 17.7761 3.20695 17.4926 3.27071 17.1208L4.19835 11.7123C4.22367 11.5646 4.17472 11.414 4.06746 11.3094L0.137936 7.47911C-0.132181 7.21581 0.0168728 6.75707 0.390164 6.70283L5.82063 5.91373C5.96887 5.8922 6.09701 5.79909 6.16331 5.66477L8.59188 0.743929Z"/>
</mask>
<path d="M5.82063 5.91373L5.55886 4.11221L5.82063 5.91373ZM6.16331 5.66477L7.79576 6.47044L7.79576 6.47044L6.16331 5.66477ZM0.137936 7.47911L1.40863 6.17551L0.137936 7.47911ZM0.390164 6.70283L0.128387 4.9013L0.390164 6.70283ZM4.19835 11.7123L2.4041 11.4045L2.4041 11.4045L4.19835 11.7123ZM4.06746 11.3094L5.33815 10.0059L5.33815 10.0059L4.06746 11.3094ZM3.93106 17.6006L3.08393 15.9892L3.08393 15.9892L3.93106 17.6006ZM3.27071 17.1208L5.06496 17.4285L5.06496 17.4285L3.27071 17.1208ZM9.21178 15.047L8.36465 16.6584L8.36465 16.6584L9.21178 15.047ZM8.78822 15.047L7.94109 13.4357L7.94109 13.4357L8.78822 15.047ZM14.7293 17.1208L12.935 17.4285L12.935 17.4285L14.7293 17.1208ZM14.0689 17.6006L13.2218 19.2119L13.2218 19.2119L14.0689 17.6006ZM13.9325 11.3094L12.6618 10.0059L12.6618 10.0059L13.9325 11.3094ZM13.8017 11.7123L15.5959 11.4045L15.5959 11.4045L13.8017 11.7123ZM17.6098 6.70283L17.3481 8.50435L17.6098 6.70283ZM17.8621 7.47911L19.1328 8.78271L19.1328 8.78271L17.8621 7.47911ZM11.8367 5.66477L13.4692 4.8591L13.4692 4.8591L11.8367 5.66477ZM12.1794 5.91373L12.4411 4.11221L12.1794 5.91373ZM9.40811 0.743929L7.77565 1.5496L7.77565 1.5496L9.40811 0.743929ZM8.59188 0.743929L6.95942 -0.0617378L6.95942 -0.0617377L8.59188 0.743929ZM7.77565 1.5496L10.2042 6.47044L13.4692 4.8591L11.0406 -0.0617379L7.77565 1.5496ZM11.9176 7.71526L17.3481 8.50435L17.8716 4.9013L12.4411 4.11221L11.9176 7.71526ZM16.5914 6.17551L12.6618 10.0059L15.2032 12.613L19.1328 8.78271L16.5914 6.17551ZM12.0074 12.02L12.935 17.4285L16.5235 16.8131L15.5959 11.4045L12.0074 12.02ZM14.9161 15.9892L10.0589 13.4357L8.36465 16.6584L13.2218 19.2119L14.9161 15.9892ZM7.94109 13.4357L3.08393 15.9892L4.77819 19.2119L9.63535 16.6584L7.94109 13.4357ZM5.06496 17.4285L5.9926 12.02L2.4041 11.4045L1.47647 16.8131L5.06496 17.4285ZM5.33815 10.0059L1.40863 6.17551L-1.13276 8.78271L2.79677 12.613L5.33815 10.0059ZM0.651942 8.50435L6.08241 7.71526L5.55886 4.11221L0.128387 4.9013L0.651942 8.50435ZM7.79576 6.47044L10.2243 1.5496L6.95942 -0.0617377L4.53085 4.8591L7.79576 6.47044ZM6.08241 7.71526C6.82359 7.60756 7.4643 7.14205 7.79576 6.47044L4.53085 4.8591C4.72972 4.45614 5.11415 4.17683 5.55886 4.11221L6.08241 7.71526ZM1.40863 6.17551C2.21898 6.96541 1.77182 8.34163 0.651942 8.50435L0.128387 4.9013C-1.73807 5.17251 -2.48334 7.46621 -1.13276 8.78271L1.40863 6.17551ZM5.9926 12.02C6.1192 11.2818 5.87447 10.5286 5.33815 10.0059L2.79677 12.613C2.47498 12.2994 2.32814 11.8475 2.4041 11.4045L5.9926 12.02ZM3.08393 15.9892C4.08557 15.4627 5.25626 16.3132 5.06496 17.4285L1.47647 16.8131C1.15764 18.672 3.10878 20.0896 4.77819 19.2119L3.08393 15.9892ZM10.0589 13.4357C9.39599 13.0872 8.60401 13.0872 7.94109 13.4357L9.63535 16.6584C9.23759 16.8675 8.76241 16.8675 8.36465 16.6584L10.0589 13.4357ZM12.935 17.4285C12.7437 16.3132 13.9144 15.4626 14.9161 15.9892L13.2218 19.2119C14.8912 20.0896 16.8424 18.672 16.5235 16.8131L12.935 17.4285ZM12.6618 10.0059C12.1255 10.5286 11.8808 11.2818 12.0074 12.02L15.5959 11.4045C15.6719 11.8474 15.525 12.2994 15.2032 12.613L12.6618 10.0059ZM17.3481 8.50435C16.2282 8.34163 15.781 6.96541 16.5914 6.17551L19.1328 8.78271C20.4833 7.46621 19.7381 5.17251 17.8716 4.9013L17.3481 8.50435ZM10.2042 6.47044C10.5357 7.14205 11.1764 7.60756 11.9176 7.71526L12.4411 4.11221C12.8859 4.17683 13.2703 4.45614 13.4692 4.8591L10.2042 6.47044ZM11.0406 -0.0617378C10.2059 -1.75304 7.79413 -1.75304 6.95942 -0.0617378L10.2243 1.5496C9.72352 2.56438 8.27648 2.56438 7.77565 1.5496L11.0406 -0.0617378Z" fill="#92929E" mask="url(#path-1-inside-1_2716_5541)"/>
</g>
</svg>
