<svg width="20" height="20" viewBox="0 0 20 20" fill="none" xmlns="http://www.w3.org/2000/svg">
<g id="eva:percent-outline">
<path id="Vector" d="M6.66665 9.16667C7.24351 9.16667 7.80742 8.99561 8.28706 8.67513C8.7667 8.35464 9.14054 7.89912 9.3613 7.36617C9.58205 6.83321 9.63981 6.24677 9.52727 5.68099C9.41473 5.11522 9.13694 4.59552 8.72904 4.18761C8.32114 3.77971 7.80144 3.50192 7.23566 3.38938C6.66988 3.27684 6.08344 3.3346 5.55049 3.55536C5.01754 3.77611 4.56201 4.14995 4.24153 4.62959C3.92104 5.10924 3.74998 5.67314 3.74998 6.25001C3.74998 7.02355 4.05727 7.76542 4.60425 8.3124C5.15123 8.85938 5.8931 9.16667 6.66665 9.16667ZM6.66665 5.00001C6.91387 5.00001 7.15555 5.07332 7.36111 5.21067C7.56667 5.34802 7.72689 5.54324 7.8215 5.77165C7.91611 6.00006 7.94086 6.25139 7.89263 6.49387C7.8444 6.73635 7.72535 6.95907 7.55053 7.13389C7.37571 7.30871 7.15299 7.42776 6.91051 7.47599C6.66803 7.52422 6.4167 7.49947 6.18829 7.40486C5.95989 7.31025 5.76466 7.15003 5.62731 6.94447C5.48996 6.73891 5.41665 6.49723 5.41665 6.25001C5.41665 5.91849 5.54834 5.60054 5.78276 5.36612C6.01718 5.1317 6.33513 5.00001 6.66665 5.00001ZM13.3333 11.6667C12.7565 11.6667 12.1925 11.8377 11.7129 12.1582C11.2333 12.4787 10.8594 12.9342 10.6387 13.4672C10.4179 14.0001 10.3601 14.5866 10.4727 15.1524C10.5852 15.7181 10.863 16.2378 11.2709 16.6457C11.6788 17.0536 12.1985 17.3314 12.7643 17.444C13.3301 17.5565 13.9165 17.4987 14.4495 17.278C14.9824 17.0572 15.4379 16.6834 15.7584 16.2038C16.0789 15.7241 16.25 15.1602 16.25 14.5833C16.25 13.8098 15.9427 13.0679 15.3957 12.5209C14.8487 11.974 14.1069 11.6667 13.3333 11.6667ZM13.3333 15.8333C13.0861 15.8333 12.8444 15.76 12.6389 15.6227C12.4333 15.4853 12.2731 15.2901 12.1785 15.0617C12.0839 14.8333 12.0591 14.582 12.1073 14.3395C12.1556 14.097 12.2746 13.8743 12.4494 13.6995C12.6242 13.5246 12.847 13.4056 13.0894 13.3574C13.3319 13.3091 13.5833 13.3339 13.8117 13.4285C14.0401 13.5231 14.2353 13.6833 14.3727 13.8889C14.51 14.0944 14.5833 14.3361 14.5833 14.5833C14.5833 14.9149 14.4516 15.2328 14.2172 15.4672C13.9828 15.7016 13.6648 15.8333 13.3333 15.8333ZM16.45 3.55001C16.3811 3.48097 16.2993 3.42619 16.2092 3.38882C16.1191 3.35145 16.0225 3.33221 15.925 3.33221C15.8274 3.33221 15.7309 3.35145 15.6408 3.38882C15.5507 3.42619 15.4689 3.48097 15.4 3.55001L3.54998 15.4C3.41248 15.5403 3.3348 15.7285 3.33331 15.925C3.33309 16.0719 3.37647 16.2155 3.45795 16.3376C3.53943 16.4598 3.65534 16.5551 3.791 16.6113C3.92666 16.6675 4.07596 16.6822 4.21998 16.6535C4.364 16.6248 4.49625 16.554 4.59998 16.45L16.45 4.60001C16.519 4.53112 16.5738 4.44928 16.6112 4.3592C16.6485 4.26911 16.6678 4.17254 16.6678 4.07501C16.6678 3.97748 16.6485 3.8809 16.6112 3.79082C16.5738 3.70073 16.519 3.6189 16.45 3.55001Z" fill="#989898"/>
</g>
</svg>
