<svg width="17" height="16" viewBox="0 0 17 16" fill="none" xmlns="http://www.w3.org/2000/svg">
<g id="ic:round-percent">
<path id="Vector" d="M5.49984 2.66663C4.21317 2.66663 3.1665 3.71329 3.1665 4.99996C3.1665 6.28663 4.21317 7.33329 5.49984 7.33329C6.7865 7.33329 7.83317 6.28663 7.83317 4.99996C7.83317 3.71329 6.7865 2.66663 5.49984 2.66663ZM5.49984 5.99996C4.9465 5.99996 4.49984 5.55329 4.49984 4.99996C4.49984 4.44663 4.9465 3.99996 5.49984 3.99996C6.05317 3.99996 6.49984 4.44663 6.49984 4.99996C6.49984 5.55329 6.05317 5.99996 5.49984 5.99996ZM11.4998 8.66663C10.2132 8.66663 9.1665 9.71329 9.1665 11C9.1665 12.2866 10.2132 13.3333 11.4998 13.3333C12.7865 13.3333 13.8332 12.2866 13.8332 11C13.8332 9.71329 12.7865 8.66663 11.4998 8.66663ZM11.4998 12C10.9465 12 10.4998 11.5533 10.4998 11C10.4998 10.4466 10.9465 9.99996 11.4998 9.99996C12.0532 9.99996 12.4998 10.4466 12.4998 11C12.4998 11.5533 12.0532 12 11.4998 12ZM13.3598 3.13996C13.6198 3.39996 13.6198 3.81996 13.3598 4.07996L4.57984 12.86C4.51812 12.9217 4.44484 12.9706 4.3642 13.004C4.28356 13.0374 4.19712 13.0546 4.10984 13.0546C4.02255 13.0546 3.93612 13.0374 3.85548 13.004C3.77483 12.9706 3.70156 12.9217 3.63984 12.86C3.57812 12.7982 3.52916 12.725 3.49575 12.6443C3.46235 12.5637 3.44516 12.4772 3.44516 12.39C3.44516 12.3027 3.46235 12.2162 3.49575 12.1356C3.52916 12.055 3.57812 11.9817 3.63984 11.92L12.4198 3.13996C12.4815 3.07816 12.5548 3.02913 12.6354 2.99567C12.7161 2.96222 12.8025 2.945 12.8898 2.945C12.9771 2.945 13.0636 2.96222 13.1443 2.99567C13.2249 3.02913 13.2982 3.07816 13.3598 3.13996Z" fill="white"/>
</g>
</svg>
