<svg width="24" height="24" viewBox="0 0 24 24" fill="none" xmlns="http://www.w3.org/2000/svg">
<g id="tabler:coins">
<g id="Group">
<path id="Vector" d="M8.66667 14.2222V18.6667C8.66667 20.5067 11.6511 22 15.3333 22C19.0156 22 22 20.5067 22 18.6667V14.2222M2 5.33333C2 6.52444 3.27111 7.62444 5.33333 8.22C7.39556 8.81556 9.93778 8.81556 12 8.22C14.0622 7.62444 15.3333 6.52444 15.3333 5.33333C15.3333 4.14222 14.0622 3.04222 12 2.44667C9.93778 1.85111 7.39556 1.85111 5.33333 2.44667C3.27111 3.04222 2 4.14222 2 5.33333Z" stroke="url(#paint0_linear_2568_4003)" stroke-width="2" stroke-linecap="round" stroke-linejoin="round"/>
<path id="Vector_2" d="M8.6665 14.2222C8.6665 16.0634 11.6509 17.5556 15.3332 17.5556C19.0154 17.5556 21.9998 16.0634 21.9998 14.2222C21.9998 12.3811 19.0154 10.8889 15.3332 10.8889C11.6509 10.8889 8.6665 12.3811 8.6665 14.2222Z" stroke="url(#paint1_linear_2568_4003)" stroke-width="2" stroke-linecap="round" stroke-linejoin="round"/>
<path id="Vector_3" d="M2 5.33331V16.4444C2 17.4311 2.85778 18.0555 4.22222 18.6666" stroke="white" stroke-width="2" stroke-linecap="round" stroke-linejoin="round"/>
<path id="Vector_4" d="M2 10.8889C2 11.8756 2.85778 12.5 4.22222 13.1111" stroke="white" stroke-width="2" stroke-linecap="round" stroke-linejoin="round"/>
<path id="Vector_5" d="M2 5.33333C2 6.52444 3.27111 7.62444 5.33333 8.22C7.39556 8.81555 9.93778 8.81555 12 8.22C14.0622 7.62444 15.3333 6.52444 15.3333 5.33333C15.3333 4.14222 14.0622 3.04222 12 2.44667C9.93778 1.85111 7.39556 1.85111 5.33333 2.44667C3.27111 3.04222 2 4.14222 2 5.33333Z" stroke="white" stroke-width="2" stroke-linecap="round" stroke-linejoin="round"/>
</g>
</g>
<defs>
<linearGradient id="paint0_linear_2568_4003" x1="2" y1="12" x2="22" y2="12" gradientUnits="userSpaceOnUse">
<stop stop-color="#0387F5"/>
<stop offset="1" stop-color="#0ED4B9"/>
</linearGradient>
<linearGradient id="paint1_linear_2568_4003" x1="8.6665" y1="14.2222" x2="21.9998" y2="14.2222" gradientUnits="userSpaceOnUse">
<stop stop-color="#0387F5"/>
<stop offset="1" stop-color="#0ED4B9"/>
</linearGradient>
</defs>
</svg>
