<svg width="24" height="24" viewBox="0 0 24 24" fill="none" xmlns="http://www.w3.org/2000/svg">
<g id="tag 1" clip-path="url(#clip0_2568_3993)">
<g id="Group">
<path id="Vector" d="M15.2119 7.45335L14.4348 8.23039C13.3895 7.73243 12.0982 7.91508 11.234 8.77931C10.1372 9.87603 10.1372 11.6605 11.234 12.7572C11.5995 13.1228 11.5995 13.7176 11.234 14.0832C10.8684 14.4488 10.2735 14.4487 9.90795 14.0832C9.67191 13.8472 9.5789 13.4998 9.66526 13.1765C9.79886 12.6762 9.5016 12.1624 9.00134 12.0288C8.50113 11.8952 7.98718 12.1924 7.85357 12.6927C7.67871 13.3475 7.7502 14.0356 8.03378 14.6315L7.25608 15.4092C6.8899 15.7753 6.8899 16.369 7.25608 16.7351C7.62226 17.1013 8.21591 17.1013 8.58204 16.7351L9.35908 15.9581C10.4049 16.4563 11.6951 16.2741 12.56 15.4092C13.6567 14.3124 13.6567 12.5279 12.56 11.4312C12.1944 11.0657 12.1944 10.4708 12.56 10.1052C12.9255 9.73965 13.5204 9.73965 13.8859 10.1052C14.122 10.3413 14.215 10.6887 14.1287 11.0119C13.9951 11.5122 14.2923 12.0261 14.7926 12.1597C15.2929 12.2933 15.8068 11.996 15.9404 11.4957C16.1152 10.8409 16.0437 10.1529 15.7602 9.55696L16.5378 8.77927C16.904 8.41309 16.904 7.81944 16.5378 7.45331C16.1717 7.08717 15.578 7.08717 15.2119 7.45335Z" fill="url(#paint0_linear_2568_3993)"/>
<path id="Vector_2" d="M14.0935 20.5255C14.4597 20.8917 15.0533 20.8917 15.4194 20.5255L21.8417 14.0832C22.2754 13.6494 22.5505 13.0997 22.6371 12.4935L23.9631 3.21168C24.0878 2.33905 23.7904 1.44626 23.1676 0.823505C22.5449 0.200748 21.6521 -0.0967537 20.7794 0.0280415L11.4976 1.354C10.8914 1.44059 10.3417 1.71568 9.90792 2.14947L0.833783 11.2438C-0.265558 12.3431 -0.265558 14.1223 0.833783 15.2217L8.78964 23.1775C9.88631 24.2743 11.6709 24.2743 12.7676 23.1775C13.1337 22.8114 13.1337 22.2177 12.7676 21.8516C12.4014 21.4854 11.8077 21.4854 11.4416 21.8516C11.076 22.2172 10.4812 22.2171 10.1156 21.8516L2.15974 13.8957C1.79333 13.5292 1.79328 12.9361 2.15974 12.5697L11.2339 3.47543C11.3786 3.3308 11.5614 3.2391 11.7628 3.21032L21.0446 1.88436C21.3404 1.84221 21.631 1.93874 21.8417 2.14947C22.0524 2.36019 22.149 2.65071 22.1068 2.94648L20.7808 12.2283C20.752 12.4297 20.6603 12.6126 20.5156 12.7572L14.0935 19.1996C13.7273 19.5657 13.7273 20.1594 14.0935 20.5255Z" fill="white"/>
<path id="Vector_3" d="M19.8528 6.79033C20.219 6.42414 20.219 5.8305 19.8528 5.46437L18.5268 4.13841C18.1607 3.77222 17.567 3.77222 17.2009 4.13841C16.8348 4.50459 16.8347 5.09823 17.2009 5.46437L18.5268 6.79033C18.893 7.15651 19.4866 7.15651 19.8528 6.79033Z" fill="url(#paint1_linear_2568_3993)"/>
</g>
</g>
<defs>
<linearGradient id="paint0_linear_2568_3993" x1="6.98145" y1="12.0942" x2="16.8125" y2="12.0942" gradientUnits="userSpaceOnUse">
<stop stop-color="#0387F5"/>
<stop offset="1" stop-color="#0ED4B9"/>
</linearGradient>
<linearGradient id="paint1_linear_2568_3993" x1="16.9263" y1="5.46437" x2="20.1274" y2="5.46437" gradientUnits="userSpaceOnUse">
<stop stop-color="#0387F5"/>
<stop offset="1" stop-color="#0ED4B9"/>
</linearGradient>
<clipPath id="clip0_2568_3993">
<rect width="24" height="24" fill="white"/>
</clipPath>
</defs>
</svg>
