<svg width="24" height="24" viewBox="0 0 24 24" fill="none" xmlns="http://www.w3.org/2000/svg">
<g id="ph:hand-coins">
<path id="Vector" d="M23.0288 13.7039C22.7311 13.4749 22.3847 13.3176 22.0164 13.2442C21.6481 13.1709 21.2678 13.1834 20.9052 13.2809L16.7219 14.2428C16.8193 13.8316 16.8223 13.4038 16.7307 12.9913C16.6392 12.5789 16.4555 12.1925 16.1934 11.8611C15.9313 11.5298 15.5976 11.262 15.2173 11.078C14.837 10.8939 14.4199 10.7983 13.9974 10.7984H8.99235C8.57203 10.7973 8.15566 10.8796 7.76731 11.0404C7.37896 11.2012 7.02632 11.4373 6.72977 11.7352L4.46818 13.9978H1.59971C1.17544 13.9978 0.768547 14.1663 0.468543 14.4663C0.16854 14.7663 0 15.1732 0 15.5975L0 19.5968C0 20.021 0.16854 20.4279 0.468543 20.7279C0.768547 21.0279 1.17544 21.1965 1.59971 21.1965H11.9978C12.0632 21.1965 12.1283 21.1885 12.1918 21.1725L18.5906 19.5728C18.6314 19.5631 18.6712 19.5497 18.7096 19.5328L22.5959 17.8791L22.6399 17.8591C23.0134 17.6725 23.3332 17.3938 23.5692 17.0494C23.8053 16.705 23.9498 16.3062 23.9891 15.8905C24.0284 15.4748 23.9612 15.056 23.7939 14.6734C23.6266 14.2909 23.3647 13.9572 23.0328 13.7039H23.0288ZM1.59971 15.5975H3.99927V19.5968H1.59971V15.5975ZM21.939 16.4184L18.1397 18.0361L11.8978 19.5968H5.59897V15.1286L7.86156 12.867C8.00957 12.7178 8.18575 12.5995 8.37988 12.519C8.57401 12.4385 8.7822 12.3974 8.99235 12.3981H13.9974C14.3156 12.3981 14.6208 12.5245 14.8458 12.7495C15.0708 12.9745 15.1972 13.2797 15.1972 13.5979C15.1972 13.9161 15.0708 14.2212 14.8458 14.4462C14.6208 14.6713 14.3156 14.7977 13.9974 14.7977H11.1979C10.9858 14.7977 10.7824 14.8819 10.6324 15.0319C10.4824 15.1819 10.3981 15.3854 10.3981 15.5975C10.3981 15.8096 10.4824 16.0131 10.6324 16.1631C10.7824 16.3131 10.9858 16.3974 11.1979 16.3974H14.3974C14.4576 16.3972 14.5176 16.3905 14.5763 16.3774L21.2751 14.8366L21.3061 14.8287C21.5106 14.7719 21.7289 14.7927 21.9189 14.8872C22.1089 14.9817 22.2573 15.1431 22.3355 15.3404C22.4137 15.5377 22.4161 15.757 22.3424 15.956C22.2686 16.155 22.1239 16.3197 21.936 16.4184H21.939ZM16.397 9.19868C16.5946 9.19891 16.7919 9.18285 16.9869 9.15069C17.2062 9.80212 17.6075 10.3771 18.1432 10.8077C18.679 11.2383 19.3268 11.5065 20.0101 11.5806C20.6935 11.6547 21.3838 11.5316 21.9994 11.2258C22.6149 10.92 23.1301 10.4444 23.4839 9.85506C23.8377 9.26578 24.0154 8.5875 23.996 7.90042C23.9765 7.21334 23.7608 6.5462 23.3742 5.97787C22.9876 5.40954 22.4464 4.96378 21.8145 4.6933C21.1826 4.42282 20.4864 4.33893 19.8084 4.45155C19.5972 3.82391 19.217 3.2667 18.7095 2.84122C18.2021 2.41575 17.5871 2.13852 16.9323 2.04003C16.2774 1.94154 15.6081 2.02562 14.9979 2.28301C14.3878 2.5404 13.8605 2.96113 13.474 3.49889C13.0876 4.03665 12.857 4.6706 12.8076 5.33097C12.7582 5.99133 12.892 6.65253 13.1942 7.24177C13.4964 7.83102 13.9552 8.32549 14.5203 8.67075C15.0854 9.01601 15.7348 9.19869 16.397 9.19868ZM22.3959 7.9989C22.3959 8.39439 22.2786 8.781 22.0589 9.10984C21.8392 9.43868 21.5269 9.69498 21.1615 9.84632C20.7961 9.99767 20.394 10.0373 20.0062 9.96011C19.6183 9.88296 19.262 9.69251 18.9823 9.41286C18.7027 9.1332 18.5122 8.7769 18.4351 8.38901C18.3579 8.00112 18.3975 7.59906 18.5488 7.23368C18.7002 6.86829 18.9565 6.55599 19.2853 6.33627C19.6142 6.11654 20.0008 5.99927 20.3963 5.99927C20.9266 5.99927 21.4352 6.20994 21.8102 6.58495C22.1852 6.95995 22.3959 7.46857 22.3959 7.9989ZM16.397 3.59971C16.8332 3.59993 17.2574 3.74279 17.6049 4.00651C17.9524 4.27024 18.2041 4.64035 18.3216 5.06044C17.912 5.34868 17.567 5.71926 17.3088 6.14846C17.0505 6.57766 16.8847 7.05603 16.8219 7.55298C16.6823 7.58314 16.5399 7.59855 16.397 7.59898C15.8667 7.59898 15.358 7.3883 14.983 7.0133C14.608 6.63829 14.3974 6.12968 14.3974 5.59934C14.3974 5.06901 14.608 4.56039 14.983 4.18539C15.358 3.81038 15.8667 3.59971 16.397 3.59971Z" fill="url(#paint0_linear_2568_4015)"/>
<path id="Vector_2" d="M23.0288 13.7039C22.7311 13.4749 22.3847 13.3176 22.0164 13.2442C21.6481 13.1709 21.2678 13.1835 20.9052 13.281L16.7219 14.2428C16.8193 13.8316 16.8223 13.4038 16.7307 12.9914C16.6392 12.5789 16.4555 12.1925 16.1934 11.8611C15.9313 11.5298 15.5976 11.262 15.2173 11.078C14.837 10.8939 14.4199 10.7984 13.9974 10.7984H8.99235C8.57203 10.7974 8.15566 10.8796 7.76731 11.0404C7.37896 11.2012 7.02632 11.4374 6.72977 11.7352L4.46818 13.9978H1.59971C1.17544 13.9978 0.768547 14.1664 0.468543 14.4664C0.16854 14.7664 0 15.1733 0 15.5975L0 19.5968C0 20.0211 0.16854 20.428 0.468543 20.728C0.768547 21.028 1.17544 21.1965 1.59971 21.1965H11.9978C12.0632 21.1965 12.1283 21.1885 12.1918 21.1725L18.5906 19.5728C18.6314 19.5631 18.6712 19.5497 18.7096 19.5328L22.5959 17.8791L22.6399 17.8591C23.0134 17.6725 23.3332 17.3938 23.5692 17.0494C23.8053 16.705 23.9498 16.3062 23.9891 15.8905C24.0284 15.4748 23.9612 15.056 23.7939 14.6734C23.6266 14.2909 23.3647 13.9572 23.0328 13.7039H23.0288ZM1.59971 15.5975H3.99927V19.5968H1.59971V15.5975ZM21.939 16.4184L18.1397 18.0361L11.8978 19.5968H5.59897V15.1286L7.86156 12.867C8.00957 12.7178 8.18575 12.5996 8.37988 12.5191C8.57401 12.4386 8.7822 12.3974 8.99235 12.3981H13.9974C14.3156 12.3981 14.6208 12.5245 14.8458 12.7495C15.0708 12.9745 15.1972 13.2797 15.1972 13.5979C15.1972 13.9161 15.0708 14.2213 14.8458 14.4463C14.6208 14.6713 14.3156 14.7977 13.9974 14.7977H11.1979C10.9858 14.7977 10.7824 14.8819 10.6324 15.0319C10.4824 15.182 10.3981 15.3854 10.3981 15.5975C10.3981 15.8097 10.4824 16.0131 10.6324 16.1631C10.7824 16.3131 10.9858 16.3974 11.1979 16.3974H14.3974C14.4576 16.3972 14.5176 16.3905 14.5763 16.3774L21.2751 14.8367L21.3061 14.8287C21.5106 14.7719 21.7289 14.7928 21.9189 14.8872C22.1089 14.9817 22.2573 15.1431 22.3355 15.3404C22.4137 15.5377 22.4161 15.757 22.3424 15.956C22.2686 16.155 22.1239 16.3197 21.936 16.4184H21.939Z" fill="white"/>
</g>
<defs>
<linearGradient id="paint0_linear_2568_4015" x1="0" y1="11.5982" x2="24" y2="11.5982" gradientUnits="userSpaceOnUse">
<stop stop-color="#0387F5"/>
<stop offset="1" stop-color="#0ED4B9"/>
</linearGradient>
</defs>
</svg>
