<svg width="236" height="235" viewBox="0 0 236 235" fill="none" xmlns="http://www.w3.org/2000/svg">
<g id="empty 1">
<g id="Empty">
<g id="Union">
<path fill-rule="evenodd" clip-rule="evenodd" d="M218.723 209.717C218.709 210.749 218.503 211.763 218.122 212.709C217.686 213.822 217.022 214.845 216.161 215.707C214.546 217.322 212.365 218.241 210.085 218.271C210.055 218.272 210.026 218.272 209.997 218.272C209.986 218.272 209.976 218.272 209.965 218.272H26.0463C26.0001 218.272 25.9539 218.272 25.9077 218.271C23.6361 218.234 21.4654 217.316 19.8563 215.707C19.034 214.884 18.392 213.915 17.956 212.861C17.5121 211.818 17.2831 210.689 17.2912 209.542L17.2912 209.514V148.208H17.2919L56.7026 73.7651V130.692H56.7037V73.7651H179.313H179.316V73.7716L218.723 148.208H218.726V209.514C218.726 209.582 218.725 209.65 218.723 209.717ZM179.313 130.692H179.312C182.274 137.282 183.864 140.821 185.26 143.93L185.261 143.933C185.904 145.363 186.505 146.703 187.181 148.208H187.204C186.089 145.731 185.209 143.779 184.16 141.452L184.128 141.381C182.939 138.741 181.528 135.611 179.313 130.692Z" fill="#0DD5B8"/>
<path d="M218.122 212.709L207.742 208.529C207.729 208.562 207.716 208.594 207.703 208.626L218.122 212.709ZM218.723 209.717L207.536 209.458C207.535 209.493 207.535 209.527 207.534 209.562L218.723 209.717ZM216.161 215.707L224.074 223.62L224.074 223.619L216.161 215.707ZM210.085 218.271L209.936 207.082C209.917 207.082 209.899 207.082 209.88 207.082L210.085 218.271ZM209.997 218.272L209.909 207.082L209.901 207.082L209.997 218.272ZM209.965 218.272V229.463C209.981 229.463 209.997 229.463 210.013 229.463L209.965 218.272ZM26.0463 218.272L25.9945 229.463C26.0118 229.463 26.029 229.463 26.0463 229.463V218.272ZM25.9077 218.271L26.137 207.083C26.1208 207.082 26.1045 207.082 26.0883 207.082L25.9077 218.271ZM19.8563 215.707L11.9434 223.619L11.9435 223.619L19.8563 215.707ZM17.956 212.861L28.297 208.584C28.2822 208.548 28.2673 208.513 28.2521 208.477L17.956 212.861ZM17.2912 209.542L28.4814 209.622C28.4817 209.589 28.4817 209.557 28.4817 209.524L17.2912 209.542ZM17.2912 209.514H6.1007C6.1007 209.52 6.10071 209.526 6.10072 209.532L17.2912 209.514ZM17.2912 148.208V137.017C11.1108 137.017 6.1007 142.027 6.1007 148.208H17.2912ZM17.2919 148.208V159.398C21.4369 159.398 25.2425 157.107 27.1819 153.443L17.2919 148.208ZM56.7026 73.7651H67.8931C67.8931 68.6238 64.3898 64.144 59.4001 62.9046C54.4104 61.6653 49.2181 63.9854 46.8126 68.5293L56.7026 73.7651ZM56.7026 130.692H45.5121C45.5121 136.872 50.5223 141.883 56.7026 141.883V130.692ZM56.7037 130.692V141.883C62.8841 141.883 67.8942 136.872 67.8942 130.692H56.7037ZM56.7037 73.7651V62.5746C50.5234 62.5746 45.5133 67.5848 45.5133 73.7651H56.7037ZM179.316 73.7651H190.507C190.507 67.5848 185.496 62.5746 179.316 62.5746V73.7651ZM179.316 73.7716H168.126C168.126 75.5968 168.572 77.3944 169.426 79.0075L179.316 73.7716ZM218.723 148.208L208.833 153.443C210.773 157.107 214.578 159.398 218.723 159.398V148.208ZM218.726 148.208H229.916C229.916 142.027 224.906 137.017 218.726 137.017V148.208ZM179.313 130.692L189.516 126.097C187.708 122.083 183.715 119.502 179.313 119.502V130.692ZM179.312 130.692V119.502C175.515 119.502 171.978 121.427 169.916 124.614C167.854 127.802 167.549 131.818 169.105 135.281L179.312 130.692ZM185.26 143.93L195.494 139.404C195.485 139.384 195.477 139.365 195.468 139.346L185.26 143.93ZM185.261 143.933L175.027 148.459C175.035 148.479 175.044 148.498 175.053 148.517L185.261 143.933ZM187.181 148.208L176.974 152.794C178.779 156.813 182.775 159.398 187.181 159.398V148.208ZM187.204 148.208V159.398C191.001 159.398 194.54 157.472 196.601 154.283C198.663 151.093 198.967 147.076 197.407 143.613L187.204 148.208ZM184.16 141.452L173.958 146.05L173.958 146.05L184.16 141.452ZM184.128 141.381L194.331 136.784L194.331 136.784L184.128 141.381ZM228.503 216.889C229.396 214.67 229.879 212.292 229.913 209.873L207.534 209.562C207.539 209.205 207.61 208.856 207.742 208.529L228.503 216.889ZM224.074 223.619C226.036 221.657 227.548 219.327 228.541 216.792L207.703 208.626C207.824 208.318 208.008 208.033 208.248 207.794L224.074 223.619ZM210.234 229.461C215.429 229.391 220.395 227.298 224.074 223.62L208.248 207.794C208.696 207.345 209.302 207.09 209.936 207.082L210.234 229.461ZM210.084 229.462C210.156 229.462 210.225 229.461 210.289 229.46L209.88 207.082C209.886 207.082 209.896 207.082 209.909 207.082L210.084 229.462ZM210.013 229.463C210.044 229.463 210.072 229.462 210.093 229.462L209.901 207.082C209.901 207.082 209.907 207.082 209.917 207.082L210.013 229.463ZM26.0463 229.463H209.965V207.082H26.0463V229.463ZM25.6784 229.459C25.7838 229.461 25.8892 229.462 25.9945 229.463L26.098 207.082C26.1109 207.082 26.1239 207.082 26.137 207.083L25.6784 229.459ZM11.9435 223.619C15.6086 227.285 20.5528 229.376 25.7271 229.46L26.0883 207.082C26.7194 207.092 27.3223 207.347 27.7692 207.794L11.9435 223.619ZM7.61495 217.137C8.60791 219.538 10.0704 221.746 11.9434 223.619L27.7693 207.794C27.9975 208.022 28.1761 208.292 28.297 208.584L7.61495 217.137ZM6.10103 209.463C6.08194 212.153 6.61911 214.8 7.65985 217.244L28.2521 208.477C28.4051 208.837 28.4842 209.226 28.4814 209.622L6.10103 209.463ZM6.10072 209.532L6.10076 209.561L28.4817 209.524L28.4816 209.495L6.10072 209.532ZM6.1007 148.208V209.514H28.4817V148.208H6.1007ZM17.2919 137.017H17.2912V159.398H17.2919V137.017ZM46.8126 68.5293L7.40187 142.972L27.1819 153.443L66.5926 79.001L46.8126 68.5293ZM67.8931 130.692V73.7651H45.5121V130.692H67.8931ZM56.7037 119.502H56.7026V141.883H56.7037V119.502ZM67.8942 130.692V73.7651H45.5133V130.692H67.8942ZM56.7037 84.9556H179.313V62.5746H56.7037V84.9556ZM179.313 84.9556H179.316V62.5746H179.313V84.9556ZM168.126 73.7651V73.7716H190.507V73.7651H168.126ZM228.613 142.972L189.206 68.5357L169.426 79.0075L208.833 153.443L228.613 142.972ZM218.726 137.017H218.723V159.398H218.726V137.017ZM229.916 209.514V148.208H207.535V209.514H229.916ZM229.911 209.977C229.914 209.823 229.916 209.669 229.916 209.514H207.535C207.535 209.495 207.536 209.476 207.536 209.458L229.911 209.977ZM179.313 119.502H179.312V141.883H179.313V119.502ZM195.468 139.346C194.072 136.236 192.482 132.695 189.518 126.104L169.105 135.281C172.067 141.869 173.656 145.406 175.052 148.515L195.468 139.346ZM195.495 139.406L195.494 139.404L175.026 148.457L175.027 148.459L195.495 139.406ZM197.389 143.621C196.713 142.118 196.112 140.779 195.469 139.348L175.053 148.517C175.695 149.948 176.297 151.288 176.974 152.794L197.389 143.621ZM187.204 137.017H187.181V159.398H187.204V137.017ZM173.958 146.05C175.006 148.376 175.885 150.328 177 152.802L197.407 143.613C196.292 141.135 195.411 139.181 194.363 136.855L173.958 146.05ZM173.926 145.978L173.958 146.05L194.363 136.855L194.331 136.784L173.926 145.978ZM169.109 135.288C171.325 140.208 172.736 143.339 173.926 145.979L194.331 136.784C193.141 134.144 191.731 131.015 189.516 126.097L169.109 135.288Z" fill="#0488F5"/>
</g>
<g id="Group 48097470">
<path id="Vector" d="M217.059 214.594C216.253 215.726 215.189 216.65 213.956 217.29C212.722 217.929 211.354 218.266 209.965 218.273H26.0462C24.6567 218.266 23.2887 217.929 22.0552 217.29C20.8217 216.65 19.758 215.726 18.9521 214.594C53.5464 137.655 46.3648 153.638 56.6992 130.692H179.312C190.434 155.434 182.202 137.173 217.059 214.594Z" fill="#120730"/>
<path id="Vector_2" d="M56.7026 73.7651V130.692C45.5799 155.434 53.8124 137.173 18.9555 214.594C17.8572 213.13 17.2723 211.345 17.2915 209.515V148.208L56.7026 73.7651Z" fill="#0BAB94"/>
<path id="Vector_3" d="M218.724 148.208V209.515C218.743 211.345 218.158 213.13 217.06 214.594C182.465 137.655 189.647 153.638 179.312 130.692V73.7651L218.724 148.208Z" fill="#0BAB94"/>
<path id="Vector_4" d="M218.726 148.208V209.514C218.726 211.837 217.803 214.064 216.16 215.707C214.518 217.349 212.29 218.272 209.968 218.272H26.049C23.7263 218.272 21.4986 217.349 19.8562 215.707C18.2137 214.064 17.291 211.837 17.291 209.514V148.208H92.1284C93.1844 148.196 94.2092 148.566 95.0139 149.25C95.8186 149.934 96.349 150.886 96.5074 151.93C97.1826 155.892 98.9352 159.592 101.573 162.624C104.211 165.656 107.633 167.903 111.464 169.12C115.294 170.336 119.386 170.475 123.29 169.521C127.194 168.566 130.76 166.556 133.598 163.71C136.781 160.496 138.905 156.386 139.684 151.93C139.843 150.886 140.373 149.934 141.178 149.25C141.983 148.566 143.007 148.196 144.063 148.208H218.726Z" fill="#0DD5B8"/>
<path id="Vector_5" d="M56.7036 73.7651H179.316V130.692H56.7036V73.7651Z" fill="#057A69"/>
</g>
<path id="Vector_6" d="M157.42 56.2493C157.43 48.7464 155.298 41.3964 151.275 35.0634C147.252 28.7303 141.504 23.6773 134.708 20.4982C127.912 17.3192 120.349 16.1461 112.91 17.117C105.47 18.0879 98.4614 21.1623 92.7087 25.979C86.9559 30.7957 82.6975 37.1544 80.4342 44.3078C78.1708 51.4613 77.9964 59.1122 79.9315 66.3613C81.8666 73.6105 85.8307 80.1566 91.3581 85.2304C96.8854 90.3042 103.746 93.6948 111.134 95.0036L116.039 104.9C116.229 105.257 116.513 105.556 116.86 105.764C117.207 105.973 117.604 106.083 118.009 106.083C118.414 106.083 118.811 105.973 119.158 105.764C119.505 105.556 119.789 105.257 119.98 104.9L124.884 95.0036C133.994 93.3898 142.245 88.6229 148.193 81.5377C154.142 74.4525 157.408 65.5005 157.42 56.2493Z" fill="#0DD5B8"/>
<path id="Vector_7" d="M124.185 56.2488L134.257 46.2209C135.081 45.3963 135.545 44.2779 135.545 43.1118C135.545 41.9456 135.081 40.8273 134.257 40.0027C133.432 39.1781 132.314 38.7148 131.148 38.7148C129.981 38.7148 128.863 39.1781 128.038 40.0027L118.011 50.0744L107.983 40.0027C107.574 39.5944 107.09 39.2705 106.556 39.0495C106.023 38.8286 105.451 38.7148 104.873 38.7148C103.707 38.7148 102.589 39.1781 101.764 40.0027C100.94 40.8273 100.477 41.9456 100.477 43.1118C100.477 44.2779 100.94 45.3963 101.764 46.2209L111.836 56.2488L101.764 66.2768C101.356 66.6851 101.032 67.1698 100.811 67.7032C100.59 68.2367 100.477 68.8084 100.477 69.3859C100.477 70.552 100.94 71.6704 101.764 72.495C102.589 73.3195 103.707 73.7828 104.873 73.7828C105.451 73.7828 106.023 73.6691 106.556 73.4481C107.09 73.2271 107.574 72.9033 107.983 72.495L118.011 62.4232L128.038 72.495C128.863 73.3195 129.981 73.7828 131.148 73.7828C132.314 73.7828 133.432 73.3195 134.257 72.495C135.081 71.6704 135.545 70.552 135.545 69.3859C135.545 68.2197 135.081 67.1013 134.257 66.2768L124.185 56.2488Z" fill="#120730"/>
<path id="Vector_8" d="M61.0799 178.861H34.8058C32.3873 178.861 30.4268 180.821 30.4268 183.24V200.756C30.4268 203.174 32.3873 205.135 34.8058 205.135H61.0799C63.4983 205.135 65.4589 203.174 65.4589 200.756V183.24C65.4589 180.821 63.4983 178.861 61.0799 178.861Z" fill="#120730"/>
<path id="Vector_9" d="M52.3231 196.378H43.565C42.4037 196.378 41.2898 195.917 40.4686 195.096C39.6474 194.274 39.186 193.161 39.186 191.999C39.186 190.838 39.6474 189.724 40.4686 188.903C41.2898 188.081 42.4037 187.62 43.565 187.62H52.3231C53.4845 187.62 54.5983 188.081 55.4195 188.903C56.2407 189.724 56.7021 190.838 56.7021 191.999C56.7021 193.161 56.2407 194.274 55.4195 195.096C54.5983 195.917 53.4845 196.378 52.3231 196.378Z" fill="#0DD5B8"/>
<g id="Group">
<path id="Vector_10" d="M87.3534 205.135H78.5953C77.4339 205.135 76.3201 204.674 75.4989 203.853C74.6777 203.032 74.2163 201.918 74.2163 200.756C74.2163 199.595 74.6777 198.481 75.4989 197.66C76.3201 196.839 77.4339 196.377 78.5953 196.377H87.3534C88.5147 196.377 89.6286 196.839 90.4498 197.66C91.271 198.481 91.7324 199.595 91.7324 200.756C91.7324 201.918 91.271 203.032 90.4498 203.853C89.6286 204.674 88.5147 205.135 87.3534 205.135Z" fill="#120730"/>
<path id="Vector_11" d="M96.1114 187.619H78.5953C77.4339 187.619 76.3201 187.158 75.4989 186.336C74.6777 185.515 74.2163 184.401 74.2163 183.24C74.2163 182.078 74.6777 180.965 75.4989 180.143C76.3201 179.322 77.4339 178.861 78.5953 178.861H96.1114C97.2728 178.861 98.3866 179.322 99.2078 180.143C100.029 180.965 100.49 182.078 100.49 183.24C100.49 184.401 100.029 185.515 99.2078 186.336C98.3866 187.158 97.2728 187.619 96.1114 187.619Z" fill="#120730"/>
</g>
</g>
</g>
</svg>
