<svg width="24" height="24" viewBox="0 0 24 24" fill="none" xmlns="http://www.w3.org/2000/svg">
<path d="M18.5536 17H17.4464C16.88 17 16.5969 17 16.3641 17.1351C16.1313 17.2702 15.9908 17.516 15.7099 18.0077C14.9494 19.3385 14.5692 20.0039 14.8583 20.5019C15.1473 21 15.9137 21 17.4464 21H18.5536C20.0863 21 20.8527 21 21.1417 20.5019C21.4308 20.0039 21.0506 19.3385 20.2901 18.0077C20.0092 17.516 19.8687 17.2702 19.6359 17.1351C19.4031 17 19.12 17 18.5536 17Z" stroke="white" stroke-width="1.5" stroke-linecap="round"/>
<path d="M6.55364 17H5.44636C4.88005 17 4.59689 17 4.36411 17.1351C4.13133 17.2702 3.99084 17.516 3.70987 18.0077C2.94944 19.3385 2.56923 20.0039 2.85827 20.5019C3.14731 21 3.91366 21 5.44636 21H6.55364C8.08634 21 8.85269 21 9.14173 20.5019C9.43077 20.0039 9.05056 19.3385 8.29013 18.0077C8.00916 17.516 7.86867 17.2702 7.63589 17.1351C7.40311 17 7.11995 17 6.55364 17Z" stroke="white" stroke-width="1.5" stroke-linecap="round"/>
<path d="M12.5536 10H11.4464C10.88 10 10.5969 10 10.3641 10.1351C10.1313 10.2702 9.99084 10.516 9.70987 11.0077C8.94944 12.3385 8.56923 13.0039 8.85827 13.5019C9.14731 14 9.91366 14 11.4464 14H12.5536C14.0863 14 14.8527 14 15.1417 13.5019C15.4308 13.0039 15.0506 12.3385 14.2901 11.0077C14.0092 10.516 13.8687 10.2702 13.6359 10.1351C13.4031 10 13.12 10 12.5536 10Z" stroke="white" stroke-width="1.5" stroke-linecap="round"/>
<path d="M20.0605 5.93939L17.9392 8.06071" stroke="white" stroke-linecap="round"/>
<path d="M3.93945 5.93939L6.06077 8.06071" stroke="white" stroke-linecap="round"/>
<path d="M12 2V5" stroke="white" stroke-linecap="round"/>
</svg>
