<svg width="16" height="17" viewBox="0 0 16 17" fill="none" xmlns="http://www.w3.org/2000/svg">
<path fill-rule="evenodd" clip-rule="evenodd" d="M5.18993 2.56031H10.8095C12.9363 2.56031 14.6667 4.33017 14.6667 6.50626V11.281C14.6667 13.4571 12.9363 15.227 10.8095 15.227C10.5642 15.227 10.365 15.0233 10.365 14.7722C10.365 14.5212 10.5642 14.3175 10.8095 14.3175C12.4462 14.3175 13.7778 12.9557 13.7778 11.281V7.47031H11.5887C10.8699 7.47091 10.2839 8.06996 10.2833 8.80603C10.2839 9.54211 10.8699 10.1412 11.5887 10.1418H12.4984C12.7437 10.1418 12.9428 10.3455 12.9428 10.5965C12.9428 10.8475 12.7437 11.0512 12.4984 11.0512H11.5887C10.3793 11.0506 9.39497 10.0435 9.39437 8.80603C9.39497 7.56853 10.3793 6.56143 11.5887 6.56082H13.7778V6.50626C13.7778 4.8316 12.4462 3.4698 10.8095 3.4698H5.18993C3.87082 3.4698 2.76385 4.35988 2.37808 5.57919H8.23645C8.48178 5.57919 8.68089 5.78291 8.68089 6.03393C8.68089 6.28555 8.48178 6.48867 8.23645 6.48867H2.224C2.224 6.4917 2.22356 6.49458 2.22311 6.49746C2.22267 6.50034 2.22222 6.50322 2.22222 6.50626V11.281C2.22222 12.9557 3.55319 14.3175 5.18993 14.3175H8.01719C8.26252 14.3175 8.46163 14.5212 8.46163 14.7722C8.46163 15.0233 8.26252 15.227 8.01719 15.227H5.18993C3.06311 15.227 1.33334 13.4571 1.33334 11.281V6.50626C1.33334 4.33017 3.06311 2.56031 5.18993 2.56031ZM11.2409 8.76506C11.2409 8.51404 11.44 8.31031 11.6853 8.31031H11.8874C12.1327 8.31031 12.3319 8.51404 12.3319 8.76506C12.3319 9.01607 12.1327 9.2198 11.8874 9.2198H11.6853C11.44 9.2198 11.2409 9.01607 11.2409 8.76506Z" fill="#F7F7F8"/>
</svg>
