<svg width="16" height="15" viewBox="0 0 16 15" fill="none" xmlns="http://www.w3.org/2000/svg">
<path fill-rule="evenodd" clip-rule="evenodd" d="M13.7652 7.25924C13.679 7.34451 13.5622 7.3917 13.4409 7.39029V7.37973C13.1874 7.37973 12.9818 7.17419 12.9818 6.92063V5.39556C12.9818 3.56443 11.9792 2.56179 10.1533 2.56179H5.652C3.82615 2.56179 2.81823 3.56971 2.81823 5.39556V9.89688C2.81823 11.7175 3.82615 12.7254 5.652 12.7254H10.1533C11.9792 12.7254 12.9818 11.7175 12.9818 9.89688C12.9818 9.64333 13.1874 9.43778 13.4409 9.43778C13.6945 9.43778 13.9 9.64333 13.9 9.89688C13.9 12.2082 12.4647 13.6436 10.1533 13.6436H5.652C3.33538 13.6436 1.90002 12.2082 1.90002 9.89688V5.39556C1.90002 3.07894 3.33538 1.64359 5.652 1.64359H10.1533C12.4541 1.64359 13.9 3.07894 13.9 5.39556V6.93646C13.9 7.05774 13.8515 7.17398 13.7652 7.25924ZM7.92091 5.15281C7.97038 5.1528 8.01901 5.16087 8.06504 5.17627C8.25613 5.2318 8.39579 5.40818 8.39579 5.61719V7.05255H9.95785C10.0121 7.05192 10.0654 7.06101 10.1156 7.07888C10.1853 7.10089 10.2493 7.13964 10.3017 7.19261C10.387 7.27886 10.4341 7.39565 10.4327 7.51693C10.4328 7.76642 10.2336 7.97029 9.98419 7.97603H9.95252H5.89448C5.85538 7.97514 5.8175 7.96944 5.78141 7.9595C5.57564 7.91313 5.42202 7.73044 5.41959 7.51165C5.41818 7.39038 5.46537 7.27359 5.55063 7.18733C5.63589 7.10108 5.75213 7.05254 5.87341 7.05255H7.45653V5.61192C7.4622 5.3587 7.66764 5.1556 7.92091 5.15281ZM7.46696 9.65424V9.12653V9.07376C7.47108 8.95197 7.52346 8.83682 7.61254 8.75368C7.70162 8.67054 7.82011 8.62622 7.94189 8.63049C8.06416 8.6332 8.18016 8.68514 8.2636 8.77455C8.34705 8.86396 8.39088 8.98326 8.38516 9.10542V9.6859C8.38103 9.80768 8.32866 9.92283 8.23958 10.006C8.15049 10.0891 8.03201 10.1334 7.91023 10.1292C7.65789 10.1178 7.46096 9.90676 7.46696 9.65424Z" fill="#F7F7F8"/>
</svg>
