<svg width="13" height="14" viewBox="0 0 13 14" fill="none" xmlns="http://www.w3.org/2000/svg">
<path fill-rule="evenodd" clip-rule="evenodd" d="M1.43562 5.84145C1.96555 3.46882 4.06963 1.78253 6.49795 1.78432C6.87777 1.78384 7.25641 1.82664 7.62657 1.9119C8.97507 2.20873 10.1491 3.03284 10.8876 4.20088C11.626 5.36891 11.8676 6.78399 11.5585 8.13127C11.5316 8.28071 11.4235 8.40257 11.2785 8.44703C11.1335 8.49149 10.9758 8.45111 10.8699 8.34238C10.764 8.23366 10.7277 8.07481 10.7758 7.93079C11.2614 5.75916 10.0375 3.56943 7.93486 2.84793C5.83219 2.12642 3.52402 3.10417 2.57708 5.11751C1.63013 7.13084 2.34763 9.53508 4.24255 10.6983C6.13746 11.8615 8.60304 11.4112 9.96571 9.65307C10.1121 9.51739 10.3354 9.50863 10.4919 9.63243C10.6485 9.75622 10.6917 9.97571 10.5937 10.1497C9.10774 12.0726 6.48761 12.7049 4.2898 11.6709C2.092 10.637 0.905703 8.21409 1.43562 5.84145ZM6.56877 8.22876C6.47943 8.04045 6.54726 7.815 6.72562 7.70742L7.03053 7.55706L7.54022 5.9259L5.94742 6.4271L5.21928 8.75537C5.15379 8.96663 4.92979 9.08488 4.71869 9.01964C4.6163 8.98821 4.53075 8.91702 4.48115 8.82199C4.43155 8.72696 4.42204 8.61599 4.45474 8.51389L5.24659 5.98058C5.28762 5.85647 5.38589 5.75978 5.51054 5.72087L8.04082 4.92807C8.11731 4.9006 8.20097 4.9006 8.27746 4.92807C8.37952 4.95849 8.46503 5.0288 8.5147 5.1231C8.56436 5.21741 8.57399 5.32777 8.54141 5.42926L7.73136 7.96713C7.6991 8.07236 7.62505 8.15968 7.52657 8.20862L7.07149 8.43643C6.87551 8.50688 6.65811 8.41707 6.56877 8.22876Z" fill="#92929E"/>
</svg>
