<svg width="20" height="20" viewBox="0 0 20 20" fill="none" xmlns="http://www.w3.org/2000/svg">
<g clip-path="url(#clip0_2481_5420)">
<path d="M15.8128 6.69546C15.5942 6.47817 15.2985 6.3562 14.9903 6.3562C14.6821 6.3562 14.3864 6.47817 14.1678 6.69546L9.97947 10.8255L5.84947 6.69546C5.63088 6.47817 5.33519 6.3562 5.02697 6.3562C4.71876 6.3562 4.42306 6.47817 4.20447 6.69546C4.09512 6.80392 4.00833 6.93295 3.9491 7.07512C3.88987 7.21729 3.85938 7.36978 3.85938 7.52379C3.85938 7.67781 3.88987 7.8303 3.9491 7.97247C4.00833 8.11463 4.09512 8.24367 4.20447 8.35213L9.15114 13.2988C9.2596 13.4081 9.38863 13.4949 9.5308 13.5542C9.67297 13.6134 9.82546 13.6439 9.97947 13.6439C10.1335 13.6439 10.286 13.6134 10.4281 13.5542C10.5703 13.4949 10.6993 13.4081 10.8078 13.2988L15.8128 8.35213C15.9222 8.24367 16.009 8.11463 16.0682 7.97247C16.1274 7.8303 16.1579 7.67781 16.1579 7.52379C16.1579 7.36978 16.1274 7.21729 16.0682 7.07512C16.009 6.93295 15.9222 6.80392 15.8128 6.69546Z" fill="white"/>
</g>
<defs>
<clipPath id="clip0_2481_5420">
<rect width="20" height="20" fill="white"/>
</clipPath>
</defs>
</svg>
