<svg width="16" height="16" viewBox="0 0 16 16" fill="none" xmlns="http://www.w3.org/2000/svg">
<g id="trash 1" clip-path="url(#clip0_2845_15532)">
<g id="Group">
<g id="_06_trash">
<path id="Vector" d="M4.57129 0.571429C4.57129 0.255821 4.82711 0 5.14272 0H10.857C11.1726 0 11.4284 0.255821 11.4284 0.571429C11.4284 0.887036 11.1726 1.14286 10.857 1.14286H5.14272C4.82711 1.14286 4.57129 0.887036 4.57129 0.571429ZM14.857 2.28571H1.14272C0.827111 2.28571 0.571289 2.54154 0.571289 2.85714C0.571289 3.17275 0.827111 3.42857 1.14272 3.42857H2.28558V7.42857C2.28558 7.74418 2.5414 8 2.857 8C3.17261 8 3.42843 7.74418 3.42843 7.42857V3.42857H12.5713V14.2857C12.5713 14.6013 12.3155 14.8571 11.9999 14.8571H3.99986C3.68425 14.8571 3.42843 14.6013 3.42843 14.2857V12.5714C3.42843 12.2558 3.17261 12 2.857 12C2.5414 12 2.28558 12.2558 2.28558 12.5714V14.2857C2.28558 15.2325 3.05308 16 3.99986 16H11.9999C12.9466 16 13.7141 15.2325 13.7141 14.2857V3.42857H14.857C15.1726 3.42857 15.4284 3.17275 15.4284 2.85714C15.4284 2.54154 15.1726 2.28571 14.857 2.28571ZM6.857 10.8571V6.28571C6.857 5.97011 6.60118 5.71429 6.28558 5.71429C5.96997 5.71429 5.71415 5.97011 5.71415 6.28571V10.8571C5.71415 11.1728 5.96997 11.4286 6.28558 11.4286C6.60118 11.4286 6.857 11.1728 6.857 10.8571ZM10.2856 10.8571V6.28571C10.2856 5.97011 10.0298 5.71429 9.71415 5.71429C9.39854 5.71429 9.14272 5.97011 9.14272 6.28571V10.8571C9.14272 11.1728 9.39854 11.4286 9.71415 11.4286C10.0298 11.4286 10.2856 11.1728 10.2856 10.8571ZM2.857 11.4286C3.17261 11.4286 3.42843 11.1728 3.42843 10.8571C3.42843 10.5415 3.17261 10.2857 2.857 10.2857C2.5414 10.2857 2.28558 10.5415 2.28558 10.8571C2.28558 11.1728 2.5414 11.4286 2.857 11.4286ZM2.857 9.71429C3.17261 9.71429 3.42843 9.45846 3.42843 9.14286C3.42843 8.82725 3.17261 8.57143 2.857 8.57143C2.5414 8.57143 2.28558 8.82725 2.28558 9.14286C2.28558 9.45846 2.5414 9.71429 2.857 9.71429Z" fill="#848484"/>
</g>
</g>
</g>
<defs>
<clipPath id="clip0_2845_15532">
<rect width="16" height="16" fill="white"/>
</clipPath>
</defs>
</svg>
