<svg width="24" height="24" viewBox="0 0 24 24" fill="none" xmlns="http://www.w3.org/2000/svg">
<g clip-path="url(#clip0_2481_5286)">
<path d="M12.0002 1.33331C9.8905 1.33331 7.82821 1.9589 6.07408 3.13097C4.31996 4.30304 2.95279 5.96894 2.14545 7.91802C1.33812 9.8671 1.12688 12.0118 1.53846 14.0809C1.95003 16.1501 2.96594 18.0507 4.4577 19.5425C5.94946 21.0342 7.85007 22.0501 9.9192 22.4617C11.9883 22.8733 14.133 22.662 16.0821 21.8547C18.0312 21.0474 19.6971 19.6802 20.8692 17.9261C22.0412 16.1719 22.6668 14.1096 22.6668 12C22.6668 9.171 21.543 6.4579 19.5426 4.45751C17.5423 2.45712 14.8291 1.33331 12.0002 1.33331ZM2.66683 12C2.69594 9.60217 3.64684 7.30756 5.32232 5.59202C6.9978 3.87648 9.26931 2.87164 11.6658 2.7859C14.0622 2.70016 16.3997 3.54009 18.1935 5.13151C19.9873 6.72293 21.0998 8.94372 21.3002 11.3333H11.6602L5.5335 18.7133C4.62912 17.8443 3.90916 16.802 3.41662 15.6485C2.92409 14.4951 2.66908 13.2542 2.66683 12ZM12.0002 21.3333C10.046 21.3323 8.14206 20.714 6.56017 19.5666L12.2868 12.6666H21.3002C21.1317 15.0189 20.079 17.2203 18.3537 18.828C16.6285 20.4358 14.3585 21.3309 12.0002 21.3333Z" fill="white"/>
</g>
<defs>
<clipPath id="clip0_2481_5286">
<rect width="24" height="24" fill="white"/>
</clipPath>
</defs>
</svg>
