<svg width="51" height="52" viewBox="0 0 51 52" fill="none" xmlns="http://www.w3.org/2000/svg">
<g id="Question">
<path id="Vector" d="M25.5 45.0899C36.0361 45.0899 44.5772 36.5487 44.5772 26.0127C44.5772 15.4767 36.0361 6.93555 25.5 6.93555C14.964 6.93555 6.42285 15.4767 6.42285 26.0127C6.42285 36.5487 14.964 45.0899 25.5 45.0899Z" stroke="#0DD5B8" stroke-width="2" stroke-linecap="round" stroke-linejoin="round"/>
<path id="Vector_2" d="M25.4999 38.7307C26.8169 38.7307 27.8845 37.6631 27.8845 36.3461C27.8845 35.0291 26.8169 33.9614 25.4999 33.9614C24.1829 33.9614 23.1152 35.0291 23.1152 36.3461C23.1152 37.6631 24.1829 38.7307 25.4999 38.7307Z" fill="#0DD5B8"/>
<path id="Vector_3" d="M25.4997 29.1921V27.6024C26.6002 27.6024 27.676 27.276 28.591 26.6646C29.506 26.0532 30.2192 25.1842 30.6403 24.1675C31.0615 23.1508 31.1717 22.032 30.957 20.9527C30.7423 19.8733 30.2124 18.8819 29.4342 18.1037C28.656 17.3255 27.6646 16.7956 26.5852 16.5809C25.5059 16.3662 24.3871 16.4764 23.3704 16.8975C22.3537 17.3187 21.4847 18.0319 20.8733 18.9469C20.2619 19.8619 19.9355 20.9377 19.9355 22.0382" stroke="#0DD5B8" stroke-width="2" stroke-linecap="round" stroke-linejoin="round"/>
</g>
</svg>
