<svg width="20" height="20" viewBox="0 0 20 20" fill="none" xmlns="http://www.w3.org/2000/svg">
<g clip-path="url(#clip0_2481_5414)">
<path fill-rule="evenodd" clip-rule="evenodd" d="M8.74984 3.33336C7.31325 3.33336 5.9355 3.90404 4.91968 4.91987C3.90385 5.93569 3.33317 7.31344 3.33317 8.75003C3.33317 10.1866 3.90385 11.5644 4.91968 12.5802C5.9355 13.596 7.31325 14.1667 8.74984 14.1667C10.1864 14.1667 11.5642 13.596 12.58 12.5802C13.5958 11.5644 14.1665 10.1866 14.1665 8.75003C14.1665 7.31344 13.5958 5.93569 12.58 4.91987C11.5642 3.90404 10.1864 3.33336 8.74984 3.33336ZM1.6665 8.75003C1.6666 7.62052 1.93681 6.50741 2.45458 5.50358C2.97236 4.49974 3.72268 3.63427 4.64297 2.97939C5.56325 2.32451 6.62679 1.8992 7.74487 1.73895C8.86295 1.5787 10.0031 1.68815 11.0703 2.05818C12.1375 2.4282 13.1007 3.04807 13.8796 3.86606C14.6585 4.68405 15.2305 5.67645 15.5478 6.76046C15.8652 7.84446 15.9187 8.98865 15.7039 10.0975C15.4892 11.2064 15.0123 12.2479 14.3132 13.135L17.3565 16.1784C17.5083 16.3355 17.5923 16.546 17.5904 16.7645C17.5885 16.983 17.5009 17.192 17.3464 17.3465C17.1918 17.501 16.9828 17.5887 16.7643 17.5906C16.5458 17.5925 16.3353 17.5085 16.1782 17.3567L13.1348 14.3134C12.0904 15.1367 10.8352 15.6493 9.51294 15.7926C8.19071 15.9359 6.85485 15.704 5.65825 15.1235C4.46164 14.5431 3.45263 13.6374 2.7467 12.5103C2.04076 11.3831 1.66641 10.08 1.6665 8.75003ZM7.9165 5.83336C7.9165 5.61235 8.0043 5.40039 8.16058 5.24411C8.31686 5.08783 8.52882 5.00003 8.74984 5.00003C9.7444 5.00003 10.6982 5.39512 11.4015 6.09838C12.1047 6.80164 12.4998 7.75547 12.4998 8.75003C12.4998 8.97104 12.412 9.183 12.2558 9.33928C12.0995 9.49556 11.8875 9.58336 11.6665 9.58336C11.4455 9.58336 11.2335 9.49556 11.0772 9.33928C10.921 9.183 10.8332 8.97104 10.8332 8.75003C10.8332 8.19749 10.6137 7.66759 10.223 7.27689C9.83228 6.88619 9.30237 6.66669 8.74984 6.66669C8.52882 6.66669 8.31686 6.5789 8.16058 6.42262C8.0043 6.26634 7.9165 6.05438 7.9165 5.83336Z" fill="#989898"/>
</g>
<defs>
<clipPath id="clip0_2481_5414">
<rect width="20" height="20" fill="white"/>
</clipPath>
</defs>
</svg>
