<svg width="100" height="34" viewBox="0 0 100 34" fill="none" xmlns="http://www.w3.org/2000/svg">
<path d="M86.6433 17.9078L86.6205 22.8124H96.2474V24.8656H83.8374V8.89685H96.1789V10.95H86.6433V15.8546H96.1789V17.9078H86.6433Z" fill="#B5EBFF"/>
<path d="M82.7902 22.6984L82.7673 24.8656H75.1936V8.89685H78.1364L77.9995 22.6984H82.7902Z" fill="#B5EBFF"/>
<path d="M69.6326 16.3109C71.4576 16.3109 74.1723 17.1093 74.1723 20.3943C74.1723 23.5196 71.6857 24.8884 68.7885 24.8656H63.7698V8.89686H68.3779C71.2751 8.71436 73.8073 9.83217 73.8073 12.7293C73.8073 15.5353 71.4576 16.2653 69.6326 16.2653V16.3109ZM66.5757 15.2843H68.3779C69.9063 15.2843 71.0013 14.6 71.0013 12.9803C71.0013 11.4747 69.9063 10.9272 68.3779 10.95H66.5757V15.2843ZM66.5757 22.8124H68.8113C70.4082 22.8353 71.3663 21.8087 71.3663 20.0521C71.3663 18.3184 69.9063 17.3146 68.3779 17.3375H66.5757V22.8124Z" fill="#B5EBFF"/>
<path d="M58.0037 16.3109C59.8287 16.3109 62.5433 17.1093 62.5433 20.3943C62.5433 23.5196 60.0568 24.8884 57.1596 24.8656H52.1409V8.89686H56.749C59.6462 8.71436 62.1783 9.83217 62.1783 12.7293C62.1783 15.5353 59.8287 16.2653 58.0037 16.2653V16.3109ZM54.9468 15.2843H56.749C58.2774 15.2843 59.3724 14.6 59.3724 12.9803C59.3724 11.4747 58.2774 10.9272 56.749 10.95H54.9468V15.2843ZM54.9468 22.8124H57.1824C58.7793 22.8353 59.7374 21.8087 59.7374 20.0521C59.7374 18.3184 58.2774 17.3146 56.749 17.3375H54.9468V22.8124Z" fill="#B5EBFF"/>
<path d="M50.4124 8.89685L50.4352 24.8656H47.6064V8.89685H50.4124Z" fill="#B5EBFF"/>
<path d="M38.7014 8.89685V16.8128L43.1042 8.89685H45.9102L41.6214 16.6075H46.1383L42.2146 24.8656H39.4086L42.6708 18.3868H38.7243V24.8656H35.8955V8.89685H38.7014Z" fill="#B5EBFF"/>
<rect x="26.3745" y="21.6274" width="4.15092" height="4.15092" rx="1.20758" fill="#B5EBFF"/>
<path d="M17.1404 9.11743H12.7449C12.3189 9.11743 11.9313 9.3636 11.7502 9.74915L4.95702 24.2121C4.61472 24.9409 5.1465 25.7782 5.95167 25.7782H10.4202C10.8478 25.7782 11.2366 25.5301 11.4168 25.1423L18.137 10.6794C18.4754 9.95099 17.9436 9.11743 17.1404 9.11743Z" fill="#B5EBFF"/>
<path d="M26.297 9.11743H30.6494C31.4516 9.11743 31.9835 9.94926 31.6468 10.6775L28.7922 16.8521C28.6124 17.2409 28.2231 17.4899 27.7947 17.4899H21.7237L24.9393 24.2047C25.2886 24.9341 24.7569 25.7782 23.9482 25.7782H19.5609C19.1348 25.7782 18.7471 25.5319 18.5661 25.1462L15.7074 19.0557C15.3654 18.3269 15.8972 17.4899 16.7022 17.4899H21.7237L25.2995 9.75519C25.4793 9.36636 25.8686 9.11743 26.297 9.11743Z" fill="#B5EBFF"/>
</svg>
