<svg width="24" height="25" viewBox="0 0 24 25" fill="none" xmlns="http://www.w3.org/2000/svg">
<path fill-rule="evenodd" clip-rule="evenodd" d="M6.53223 17.6524C6.53223 18.1125 6.90137 18.4859 7.35622 18.4859C7.81106 18.4859 8.18021 18.1125 8.18021 17.6524V6.0525L10.8049 8.71744C11.1257 9.04416 11.6465 9.04416 11.9695 8.71966C12.2925 8.39515 12.2936 7.86728 11.9717 7.54055L7.9396 3.44535C7.70449 3.2053 7.34853 3.13529 7.042 3.26309C6.73328 3.392 6.53223 3.69539 6.53223 4.03323V17.6524ZM3.32413 8.96259C3.11429 8.96259 2.90334 8.88147 2.74294 8.71921C2.41994 8.39471 2.41884 7.86795 2.74074 7.54122L4.34478 5.91092C4.66668 5.58419 5.18744 5.58419 5.51045 5.90869C5.83235 6.2332 5.83345 6.76107 5.51264 7.0878L3.90751 8.71699C3.74711 8.88147 3.53507 8.96259 3.32413 8.96259ZM16.8594 21.1368C16.9605 21.179 17.067 21.2001 17.1736 21.2001C17.3889 21.2001 17.5999 21.1157 17.757 20.9545L21.2079 17.4483C21.5287 17.1216 21.5276 16.5937 21.2057 16.2692C20.8827 15.9447 20.3608 15.9458 20.04 16.2714L17.9976 18.3485V6.74633C17.9976 6.28624 17.6295 5.91284 17.1736 5.91284C16.7188 5.91284 16.3496 6.28624 16.3496 6.74633V20.3666C16.3496 20.7045 16.5507 21.0079 16.8594 21.1368ZM14.1602 18.4877C14.3217 18.6522 14.5338 18.7333 14.7447 18.7333C14.9545 18.7333 15.1655 18.6522 15.3259 18.4899C15.6489 18.1654 15.65 17.6386 15.3292 17.3119L13.7252 15.6816C13.4022 15.3549 12.8814 15.3549 12.5595 15.6794C12.2365 16.0039 12.2354 16.5318 12.5562 16.8585L14.1602 18.4877Z" fill="#0693FF"/>
</svg>
