<svg width="24" height="16" viewBox="0 0 24 16" fill="none" xmlns="http://www.w3.org/2000/svg">
<rect x="18.9004" y="11.5615" width="3.55358" height="3.55358" rx="1.0338" fill="#141518"/>
<path d="M10.9954 0.852539H7.2324C6.86774 0.852539 6.53592 1.06328 6.38089 1.39335L0.565276 13.775C0.272232 14.3989 0.727495 15.1157 1.41679 15.1157H5.24229C5.60836 15.1157 5.94119 14.9033 6.09545 14.5714L11.8486 2.18972C12.1383 1.56614 11.683 0.852539 10.9954 0.852539Z" fill="#141518"/>
<path d="M18.8343 0.852539H22.5603C23.2471 0.852539 23.7025 1.56466 23.4142 2.18808L20.9704 7.47414C20.8165 7.80702 20.4832 8.02013 20.1165 8.02013H14.9191L17.672 13.7686C17.971 14.3931 17.5159 15.1157 16.8235 15.1157H13.0675C12.7028 15.1157 12.3709 14.9049 12.2159 14.5747L9.76864 9.36061C9.47581 8.73673 9.93108 8.02013 10.6203 8.02013H14.9191L17.9803 1.39852C18.1342 1.06565 18.4675 0.852539 18.8343 0.852539Z" fill="#141518"/>
</svg>
