<svg xmlns="http://www.w3.org/2000/svg" width="25" height="24" viewBox="0 0 25 24" fill="none">
  <path d="M12.0815 11.5304C11.8362 11.7757 11.8362 12.1734 12.0815 12.4187C12.3268 12.6641 12.7245 12.6641 12.9699 12.4187L12.0815 11.5304ZM15.4825 9.90606C15.7279 9.66074 15.7279 9.26301 15.4825 9.01769C15.2372 8.77237 14.8395 8.77237 14.5942 9.01769L15.4825 9.90606ZM15.1644 5.07471L15.6035 5.52397L15.1644 5.07471ZM17.6771 2.61913L18.1162 3.06839V3.06839L17.6771 2.61913ZM21.8811 6.82311L21.4318 6.38406L21.8811 6.82311ZM19.4255 9.33579L19.8748 9.77484V9.77484L19.4255 9.33579ZM22.367 11.9746C22.367 11.6276 22.0858 11.3464 21.7388 11.3464C21.3919 11.3464 21.1107 11.6276 21.1107 11.9746H22.367ZM12.5257 3.38956C12.8726 3.38956 13.1538 3.10831 13.1538 2.76139C13.1538 2.41446 12.8726 2.13321 12.5257 2.13321V3.38956ZM19.0168 11.9746C19.0168 11.6276 18.7355 11.3464 18.3886 11.3464C18.0417 11.3464 17.7604 11.6276 17.7604 11.9746H19.0168ZM12.5257 6.7398C12.8726 6.7398 13.1538 6.45856 13.1538 6.11163C13.1538 5.7647 12.8726 5.48346 12.5257 5.48346V6.7398ZM12.9699 12.4187L15.4825 9.90606L14.5942 9.01769L12.0815 11.5304L12.9699 12.4187ZM15.6665 9.04309V5.37422H14.4102V9.04309H15.6665ZM15.6035 5.52397L18.1162 3.06839L17.2381 2.16987L14.7254 4.62545L15.6035 5.52397ZM21.4318 6.38406L18.9763 8.89674L19.8748 9.77484L22.3304 7.26216L21.4318 6.38406ZM19.126 8.8337H15.4571V10.09H19.126V8.8337ZM17.7604 2.91864V5.69285H19.0168V2.91864H17.7604ZM18.8074 6.7398H21.5816V5.48346H18.8074V6.7398ZM17.7604 5.69285C17.7604 6.27106 18.2292 6.7398 18.8074 6.7398V5.48346C18.923 5.48346 19.0168 5.57721 19.0168 5.69285H17.7604ZM18.9763 8.89674C19.0157 8.85643 19.0696 8.8337 19.126 8.8337V10.09C19.4079 10.09 19.6778 9.97641 19.8748 9.77484L18.9763 8.89674ZM15.6665 5.37422C15.6665 5.43059 15.6438 5.48457 15.6035 5.52397L14.7254 4.62545C14.5238 4.82244 14.4102 5.09238 14.4102 5.37422H15.6665ZM22.3304 7.26216C22.9782 6.59922 22.5085 5.48346 21.5816 5.48346V6.7398C21.3962 6.7398 21.3023 6.51665 21.4318 6.38406L22.3304 7.26216ZM18.1162 3.06839C17.9836 3.19797 17.7604 3.10403 17.7604 2.91864H19.0168C19.0168 1.9917 17.901 1.522 17.2381 2.16987L18.1162 3.06839ZM14.4102 9.04309C14.4102 9.62131 14.8789 10.09 15.4571 10.09V8.8337C15.5728 8.8337 15.6665 8.92745 15.6665 9.04309H14.4102ZM21.1107 11.9746C21.1107 16.7159 17.267 20.5596 12.5257 20.5596V21.8159C17.9609 21.8159 22.367 17.4098 22.367 11.9746H21.1107ZM12.5257 20.5596C7.78431 20.5596 3.94067 16.7159 3.94067 11.9746H2.68433C2.68433 17.4098 7.09045 21.8159 12.5257 21.8159V20.5596ZM3.94067 11.9746C3.94067 7.23319 7.78431 3.38956 12.5257 3.38956V2.13321C7.09045 2.13321 2.68433 6.53933 2.68433 11.9746H3.94067ZM17.7604 11.9746C17.7604 14.8656 15.4167 17.2093 12.5257 17.2093V18.4657C16.1106 18.4657 19.0168 15.5595 19.0168 11.9746H17.7604ZM12.5257 17.2093C9.6346 17.2093 7.29092 14.8656 7.29092 11.9746H6.03457C6.03457 15.5595 8.94074 18.4657 12.5257 18.4657V17.2093ZM7.29092 11.9746C7.29092 9.08348 9.6346 6.7398 12.5257 6.7398V5.48346C8.94074 5.48346 6.03457 8.38962 6.03457 11.9746H7.29092Z" fill="#B5EBFF"/>
</svg>