<svg width="25" height="25" viewBox="0 0 25 25" fill="none" xmlns="http://www.w3.org/2000/svg">
<path d="M3.3593 6.22215C2.96878 6.61268 2.96878 7.24584 3.3593 7.63637C3.74982 8.02689 4.38299 8.02689 4.77351 7.63637L3.3593 6.22215ZM4.37519 6.62047L5.0823 7.32758L5.0823 7.32758L4.37519 6.62047ZM7.97466 6.62047L7.26755 7.32758L7.26755 7.32758L7.97466 6.62047ZM8.59223 7.23805L9.29934 6.53094L9.29934 6.53094L8.59223 7.23805ZM12.1917 7.23805L11.4846 6.53094L11.4846 6.53094L12.1917 7.23805ZM12.8093 6.62047L12.1022 5.91337L12.1022 5.91337L12.8093 6.62047ZM16.4087 6.62047L17.1159 5.91337L17.1159 5.91337L16.4087 6.62047ZM17.0263 7.23805L16.3192 7.94515L16.3192 7.94515L17.0263 7.23805ZM20.6258 7.23805L19.9187 6.53094L19.9187 6.53094L20.6258 7.23805ZM21.6417 7.63637C22.0322 7.24584 22.0322 6.61268 21.6417 6.22215C21.2512 5.83163 20.618 5.83163 20.2275 6.22215L21.6417 7.63637ZM3.3593 11.4935C2.96878 11.884 2.96878 12.5171 3.3593 12.9077C3.74982 13.2982 4.38299 13.2982 4.77351 12.9077L3.3593 11.4935ZM4.37519 11.8918L5.0823 12.5989L5.0823 12.5989L4.37519 11.8918ZM7.97466 11.8918L8.68177 11.1847L8.68177 11.1847L7.97466 11.8918ZM8.59223 12.5093L9.29934 11.8022L9.29934 11.8022L8.59223 12.5093ZM12.1917 12.5093L12.8988 13.2165L12.8988 13.2165L12.1917 12.5093ZM12.8093 11.8918L12.1022 11.1847L12.1022 11.1847L12.8093 11.8918ZM16.4087 11.8918L17.1159 11.1847L17.1159 11.1847L16.4087 11.8918ZM17.0263 12.5093L16.3192 13.2165L16.3192 13.2165L17.0263 12.5093ZM20.6258 12.5093L19.9187 11.8022L19.9187 11.8022L20.6258 12.5093ZM21.6417 12.9077C22.0322 12.5171 22.0322 11.884 21.6417 11.4935C21.2512 11.1029 20.618 11.1029 20.2275 11.4935L21.6417 12.9077ZM3.3593 16.7648C2.96878 17.1553 2.96878 17.7884 3.3593 18.179C3.74982 18.5695 4.38299 18.5695 4.77351 18.179L3.3593 16.7648ZM4.37519 17.1631L5.0823 17.8702L5.0823 17.8702L4.37519 17.1631ZM7.97466 17.1631L7.26755 17.8702L7.26755 17.8702L7.97466 17.1631ZM8.59223 17.7806L9.29934 17.0735L9.29934 17.0735L8.59223 17.7806ZM12.1917 17.7806L11.4846 17.0735L11.4846 17.0735L12.1917 17.7806ZM12.8093 17.1631L12.1022 16.456L12.1022 16.456L12.8093 17.1631ZM16.4087 17.1631L17.1159 16.456L17.1159 16.456L16.4087 17.1631ZM17.0263 17.7806L16.3192 18.4878L16.3192 18.4878L17.0263 17.7806ZM20.6258 17.7806L19.9187 17.0735L19.9187 17.0735L20.6258 17.7806ZM21.6417 18.179C22.0322 17.7884 22.0322 17.1553 21.6417 16.7648C21.2512 16.3742 20.618 16.3742 20.2275 16.7648L21.6417 18.179ZM4.77351 7.63637L5.0823 7.32758L3.66809 5.91337L3.3593 6.22215L4.77351 7.63637ZM7.26755 7.32758L7.88513 7.94515L9.29934 6.53094L8.68177 5.91337L7.26755 7.32758ZM12.8988 7.94515L13.5164 7.32758L12.1022 5.91337L11.4846 6.53094L12.8988 7.94515ZM15.7016 7.32758L16.3192 7.94515L17.7334 6.53094L17.1159 5.91337L15.7016 7.32758ZM21.3329 7.94515L21.6417 7.63637L20.2275 6.22215L19.9187 6.53094L21.3329 7.94515ZM18.826 8.98352C19.7663 8.98352 20.668 8.61001 21.3329 7.94515L19.9187 6.53094C19.6289 6.82072 19.2359 6.98352 18.826 6.98352V8.98352ZM16.3192 7.94515C16.9841 8.61001 17.8858 8.98352 18.826 8.98352V6.98352C18.4162 6.98352 18.0232 6.82072 17.7334 6.53094L16.3192 7.94515ZM14.609 6.875C15.0188 6.875 15.4119 7.0378 15.7016 7.32758L17.1159 5.91337C16.451 5.24851 15.5493 4.875 14.609 4.875V6.875ZM13.5164 7.32758C13.8062 7.0378 14.1992 6.875 14.609 6.875V4.875C13.6688 4.875 12.767 5.24851 12.1022 5.91337L13.5164 7.32758ZM10.392 8.98352C11.3322 8.98352 12.234 8.61001 12.8988 7.94515L11.4846 6.53094C11.1948 6.82072 10.8018 6.98352 10.392 6.98352V8.98352ZM7.88513 7.94515C8.54998 8.61001 9.45172 8.98352 10.392 8.98352V6.98352C9.98215 6.98352 9.58912 6.82072 9.29934 6.53094L7.88513 7.94515ZM6.17493 6.875C6.58474 6.875 6.97777 7.0378 7.26755 7.32758L8.68177 5.91337C8.01691 5.24851 7.11517 4.875 6.17493 4.875V6.875ZM5.0823 7.32758C5.37208 7.0378 5.76511 6.875 6.17493 6.875V4.875C5.23468 4.875 4.33294 5.24851 3.66809 5.91337L5.0823 7.32758ZM4.77351 12.9077L5.0823 12.5989L3.66809 11.1847L3.3593 11.4935L4.77351 12.9077ZM7.26755 12.5989L7.88513 13.2165L9.29934 11.8022L8.68177 11.1847L7.26755 12.5989ZM12.8988 13.2165L13.5164 12.5989L12.1022 11.1847L11.4846 11.8022L12.8988 13.2165ZM15.7016 12.5989L16.3192 13.2165L17.7334 11.8022L17.1159 11.1847L15.7016 12.5989ZM21.3329 13.2165L21.6417 12.9077L20.2275 11.4935L19.9187 11.8022L21.3329 13.2165ZM18.826 14.2548C19.7663 14.2548 20.668 13.8813 21.3329 13.2165L19.9187 11.8022C19.6289 12.092 19.2359 12.2548 18.826 12.2548V14.2548ZM16.3192 13.2165C16.9841 13.8813 17.8858 14.2548 18.826 14.2548V12.2548C18.4162 12.2548 18.0232 12.092 17.7334 11.8022L16.3192 13.2165ZM14.609 12.1463C15.0188 12.1463 15.4119 12.3091 15.7016 12.5989L17.1159 11.1847C16.451 10.5198 15.5493 10.1463 14.609 10.1463V12.1463ZM13.5164 12.5989C13.8062 12.3091 14.1992 12.1463 14.609 12.1463V10.1463C13.6688 10.1463 12.767 10.5198 12.1022 11.1847L13.5164 12.5989ZM10.392 14.2548C11.3322 14.2548 12.234 13.8813 12.8988 13.2165L11.4846 11.8022C11.1948 12.092 10.8018 12.2548 10.392 12.2548V14.2548ZM7.88513 13.2165C8.54998 13.8813 9.45172 14.2548 10.392 14.2548V12.2548C9.98215 12.2548 9.58912 12.092 9.29934 11.8022L7.88513 13.2165ZM6.17493 12.1463C6.58474 12.1463 6.97777 12.3091 7.26755 12.5989L8.68177 11.1847C8.01691 10.5198 7.11517 10.1463 6.17493 10.1463V12.1463ZM5.0823 12.5989C5.37208 12.3091 5.76511 12.1463 6.17493 12.1463V10.1463C5.23468 10.1463 4.33294 10.5198 3.66809 11.1847L5.0823 12.5989ZM4.77351 18.179L5.0823 17.8702L3.66809 16.456L3.3593 16.7648L4.77351 18.179ZM7.26755 17.8702L7.88513 18.4878L9.29934 17.0735L8.68177 16.456L7.26755 17.8702ZM12.8988 18.4878L13.5164 17.8702L12.1022 16.456L11.4846 17.0735L12.8988 18.4878ZM15.7016 17.8702L16.3192 18.4878L17.7334 17.0735L17.1159 16.456L15.7016 17.8702ZM21.3329 18.4878L21.6417 18.179L20.2275 16.7648L19.9187 17.0735L21.3329 18.4878ZM18.826 19.5261C19.7663 19.5261 20.668 19.1526 21.3329 18.4878L19.9187 17.0735C19.6289 17.3633 19.2359 17.5261 18.826 17.5261V19.5261ZM16.3192 18.4878C16.9841 19.1526 17.8858 19.5261 18.826 19.5261V17.5261C18.4162 17.5261 18.0232 17.3633 17.7334 17.0735L16.3192 18.4878ZM14.609 17.4176C15.0188 17.4176 15.4119 17.5804 15.7016 17.8702L17.1159 16.456C16.451 15.7911 15.5493 15.4176 14.609 15.4176V17.4176ZM13.5164 17.8702C13.8062 17.5804 14.1992 17.4176 14.609 17.4176V15.4176C13.6688 15.4176 12.767 15.7911 12.1022 16.456L13.5164 17.8702ZM10.392 19.5261C11.3322 19.5261 12.234 19.1526 12.8988 18.4878L11.4846 17.0735C11.1948 17.3633 10.8018 17.5261 10.392 17.5261V19.5261ZM7.88513 18.4878C8.54998 19.1526 9.45172 19.5261 10.392 19.5261V17.5261C9.98215 17.5261 9.58912 17.3633 9.29934 17.0735L7.88513 18.4878ZM6.17493 17.4176C6.58474 17.4176 6.97777 17.5804 7.26755 17.8702L8.68177 16.456C8.01691 15.7911 7.11517 15.4176 6.17493 15.4176V17.4176ZM5.0823 17.8702C5.37208 17.5804 5.76511 17.4176 6.17493 17.4176V15.4176C5.23468 15.4176 4.33294 15.7911 3.66809 16.456L5.0823 17.8702Z" fill="#0693FF"/>
</svg>
