<svg width="24" height="25" viewBox="0 0 24 25" fill="none" xmlns="http://www.w3.org/2000/svg">
<path d="M9.65252 17.186C9.65252 17.5646 9.95945 17.8715 10.3381 17.8715C10.7167 17.8715 11.0236 17.5646 11.0236 17.186L9.65252 17.186ZM11.0236 7.2144C11.0236 6.83578 10.7167 6.52885 10.3381 6.52885C9.95945 6.52885 9.65252 6.83578 9.65252 7.2144L11.0236 7.2144ZM6.32866 17.186C6.32866 17.5646 6.63559 17.8715 7.0142 17.8715C7.39282 17.8715 7.69975 17.5646 7.69975 17.186H6.32866ZM7.69975 14.6931C7.69975 14.3145 7.39282 14.0075 7.0142 14.0075C6.63559 14.0075 6.32866 14.3145 6.32866 14.6931H7.69975ZM12.9764 17.186C12.9764 17.5646 13.2833 17.8715 13.6619 17.8715C14.0405 17.8715 14.3475 17.5646 14.3475 17.186H12.9764ZM14.3475 9.7073C14.3475 9.32868 14.0405 9.02175 13.6619 9.02175C13.2833 9.02175 12.9764 9.32868 12.9764 9.7073H14.3475ZM16.3002 17.186C16.3002 17.5646 16.6072 17.8715 16.9858 17.8715C17.3644 17.8715 17.6713 17.5646 17.6713 17.186H16.3002ZM17.6713 12.2002C17.6713 11.8216 17.3644 11.5146 16.9858 11.5146C16.6072 11.5146 16.3002 11.8216 16.3002 12.2002H17.6713ZM5.12795 20.888L5.43918 20.2771L5.43918 20.2771L5.12795 20.888ZM3.31222 19.0722L3.92305 18.761L3.92305 18.761L3.31222 19.0722ZM20.6878 19.0722L20.0769 18.761L20.0769 18.761L20.6878 19.0722ZM18.872 20.888L18.5608 20.2771L18.5608 20.2771L18.872 20.888ZM18.872 3.51242L18.5608 4.12325L18.5608 4.12325L18.872 3.51242ZM20.6878 5.32815L20.0769 5.63938L20.0769 5.63938L20.6878 5.32815ZM5.12795 3.51242L5.43918 4.12325L5.43918 4.12325L5.12795 3.51242ZM3.31222 5.32815L3.92305 5.63938L3.92305 5.63938L3.31222 5.32815ZM11.0236 17.186L11.0236 7.2144L9.65252 7.2144L9.65252 17.186L11.0236 17.186ZM7.69975 17.186V14.6931H6.32866V17.186H7.69975ZM14.3475 17.186V9.7073H12.9764V17.186H14.3475ZM17.6713 17.186V12.2002H16.3002V17.186H17.6713ZM9.5071 3.74512H14.4929V2.37402H9.5071V3.74512ZM20.4551 9.7073V14.6931H21.8262V9.7073H20.4551ZM14.4929 20.6553H9.5071V22.0264H14.4929V20.6553ZM3.54492 14.6931V9.7073H2.17383V14.6931H3.54492ZM9.5071 20.6553C8.33233 20.6553 7.49248 20.6547 6.83404 20.6009C6.18361 20.5478 5.77082 20.4461 5.43918 20.2771L4.81672 21.4988C5.37385 21.7827 5.98717 21.9074 6.72239 21.9675C7.44961 22.0269 8.35495 22.0264 9.5071 22.0264V20.6553ZM2.17383 14.6931C2.17383 15.8452 2.17329 16.7506 2.23271 17.4778C2.29278 18.213 2.41752 18.8263 2.7014 19.3835L3.92305 18.761C3.75408 18.4294 3.65239 18.0166 3.59925 17.3662C3.54546 16.7077 3.54492 15.8679 3.54492 14.6931H2.17383ZM5.43918 20.2771C4.7864 19.9445 4.25566 19.4138 3.92305 18.761L2.7014 19.3835C3.16546 20.2943 3.90594 21.0347 4.81672 21.4988L5.43918 20.2771ZM20.4551 14.6931C20.4551 15.8679 20.4545 16.7077 20.4007 17.3662C20.3476 18.0166 20.2459 18.4294 20.0769 18.761L21.2986 19.3835C21.5825 18.8263 21.7072 18.213 21.7673 17.4778C21.8267 16.7506 21.8262 15.8452 21.8262 14.6931H20.4551ZM14.4929 22.0264C15.645 22.0264 16.5504 22.0269 17.2776 21.9675C18.0128 21.9074 18.6261 21.7827 19.1833 21.4988L18.5608 20.2771C18.2292 20.4461 17.8164 20.5478 17.166 20.6009C16.5075 20.6547 15.6677 20.6553 14.4929 20.6553V22.0264ZM20.0769 18.761C19.7443 19.4138 19.2136 19.9445 18.5608 20.2771L19.1833 21.4988C20.0941 21.0347 20.8345 20.2943 21.2986 19.3835L20.0769 18.761ZM14.4929 3.74512C15.6677 3.74512 16.5075 3.74565 17.166 3.79945C17.8164 3.85259 18.2292 3.95427 18.5608 4.12325L19.1833 2.90159C18.6261 2.61772 18.0128 2.49298 17.2776 2.43291C16.5504 2.37349 15.645 2.37402 14.4929 2.37402V3.74512ZM21.8262 9.7073C21.8262 8.55515 21.8267 7.64981 21.7673 6.92259C21.7072 6.18737 21.5825 5.57405 21.2986 5.01691L20.0769 5.63938C20.2459 5.97101 20.3476 6.38381 20.4007 7.03424C20.4545 7.69267 20.4551 8.53252 20.4551 9.7073H21.8262ZM18.5608 4.12325C19.2136 4.45586 19.7443 4.98659 20.0769 5.63938L21.2986 5.01692C20.8345 4.10614 20.0941 3.36566 19.1833 2.90159L18.5608 4.12325ZM9.5071 2.37402C8.35495 2.37402 7.44961 2.37349 6.72239 2.43291C5.98717 2.49298 5.37385 2.61772 4.81672 2.90159L5.43918 4.12325C5.77082 3.95427 6.18361 3.85259 6.83404 3.79945C7.49248 3.74565 8.33233 3.74512 9.5071 3.74512V2.37402ZM3.54492 9.7073C3.54492 8.53252 3.54546 7.69267 3.59925 7.03424C3.65239 6.38381 3.75408 5.97101 3.92305 5.63938L2.7014 5.01692C2.41752 5.57405 2.29278 6.18737 2.23271 6.92259C2.17329 7.64981 2.17383 8.55515 2.17383 9.7073H3.54492ZM4.81672 2.90159C3.90594 3.36566 3.16546 4.10614 2.7014 5.01692L3.92305 5.63938C4.25566 4.98659 4.7864 4.45586 5.43918 4.12325L4.81672 2.90159Z" fill="#0693FF"/>
</svg>
