<svg xmlns="http://www.w3.org/2000/svg" width="24" height="24" viewBox="0 0 24 24" fill="none">
  <path d="M9.65252 16.9858C9.65252 17.3644 9.95945 17.6713 10.3381 17.6713C10.7167 17.6713 11.0236 17.3644 11.0236 16.9858H9.65252ZM11.0236 7.0142C11.0236 6.63559 10.7167 6.32866 10.3381 6.32866C9.95945 6.32866 9.65252 6.63559 9.65252 7.0142H11.0236ZM6.32866 16.9858C6.32866 17.3644 6.63559 17.6713 7.0142 17.6713C7.39282 17.6713 7.69975 17.3644 7.69975 16.9858H6.32866ZM7.69975 14.4929C7.69975 14.1143 7.39282 13.8074 7.0142 13.8074C6.63559 13.8074 6.32866 14.1143 6.32866 14.4929H7.69975ZM12.9764 16.9858C12.9764 17.3644 13.2833 17.6713 13.6619 17.6713C14.0405 17.6713 14.3475 17.3644 14.3475 16.9858H12.9764ZM14.3475 9.5071C14.3475 9.12849 14.0405 8.82156 13.6619 8.82156C13.2833 8.82156 12.9764 9.12849 12.9764 9.5071H14.3475ZM16.3002 16.9858C16.3002 17.3644 16.6072 17.6713 16.9858 17.6713C17.3644 17.6713 17.6713 17.3644 17.6713 16.9858H16.3002ZM17.6713 12C17.6713 11.6214 17.3644 11.3145 16.9858 11.3145C16.6072 11.3145 16.3002 11.6214 16.3002 12H17.6713ZM5.12795 20.6878L5.43918 20.077H5.43918L5.12795 20.6878ZM3.31222 18.872L3.92305 18.5608H3.92305L3.31222 18.872ZM20.6878 18.872L20.077 18.5608H20.0769L20.6878 18.872ZM18.872 20.6878L18.5608 20.0769V20.077L18.872 20.6878ZM18.872 3.31222L18.5608 3.92305V3.92305L18.872 3.31222ZM20.6878 5.12795L20.077 5.43918V5.43918L20.6878 5.12795ZM5.12795 3.31222L5.43918 3.92305L5.12795 3.31222ZM3.31222 5.12795L3.92305 5.43918L3.31222 5.12795ZM11.0236 16.9858L11.0236 7.0142H9.65252L9.65252 16.9858H11.0236ZM7.69975 16.9858V14.4929H6.32866V16.9858H7.69975ZM14.3475 16.9858V9.5071H12.9764V16.9858H14.3475ZM17.6713 16.9858V12H16.3002V16.9858H17.6713ZM9.5071 3.54492H14.4929V2.17383H9.5071V3.54492ZM20.4551 9.5071V14.4929H21.8262V9.5071H20.4551ZM14.4929 20.4551H9.5071V21.8262H14.4929V20.4551ZM3.54492 14.4929V9.5071H2.17383V14.4929H3.54492ZM9.5071 20.4551C8.33233 20.4551 7.49248 20.4545 6.83404 20.4007C6.18361 20.3476 5.77082 20.2459 5.43918 20.077L4.81672 21.2986C5.37385 21.5825 5.98717 21.7072 6.72239 21.7673C7.44961 21.8267 8.35495 21.8262 9.5071 21.8262V20.4551ZM2.17383 14.4929C2.17383 15.645 2.17329 16.5504 2.23271 17.2776C2.29278 18.0128 2.41752 18.6261 2.7014 19.1833L3.92305 18.5608C3.75408 18.2292 3.65239 17.8164 3.59925 17.166C3.54546 16.5075 3.54492 15.6677 3.54492 14.4929H2.17383ZM5.43918 20.077C4.7864 19.7443 4.25566 19.2136 3.92305 18.5608L2.7014 19.1833C3.16546 20.0941 3.90594 20.8345 4.81672 21.2986L5.43918 20.077ZM20.4551 14.4929C20.4551 15.6677 20.4545 16.5075 20.4007 17.166C20.3476 17.8164 20.2459 18.2292 20.077 18.5608L21.2986 19.1833C21.5825 18.6261 21.7072 18.0128 21.7673 17.2776C21.8267 16.5504 21.8262 15.645 21.8262 14.4929H20.4551ZM14.4929 21.8262C15.645 21.8262 16.5504 21.8267 17.2776 21.7673C18.0128 21.7072 18.6261 21.5825 19.1833 21.2986L18.5608 20.077C18.2292 20.2459 17.8164 20.3476 17.166 20.4007C16.5075 20.4545 15.6677 20.4551 14.4929 20.4551V21.8262ZM20.0769 18.5608C19.7443 19.2136 19.2136 19.7443 18.5608 20.0769L19.1833 21.2986C20.0941 20.8345 20.8345 20.0941 21.2986 19.1833L20.0769 18.5608ZM14.4929 3.54492C15.6677 3.54492 16.5075 3.54546 17.166 3.59925C17.8164 3.65239 18.2292 3.75408 18.5608 3.92305L19.1833 2.7014C18.6261 2.41752 18.0128 2.29278 17.2776 2.23271C16.5504 2.17329 15.645 2.17383 14.4929 2.17383V3.54492ZM21.8262 9.5071C21.8262 8.35495 21.8267 7.44961 21.7673 6.72239C21.7072 5.98717 21.5825 5.37385 21.2986 4.81672L20.077 5.43918C20.2459 5.77082 20.3476 6.18361 20.4007 6.83404C20.4545 7.49248 20.4551 8.33233 20.4551 9.5071H21.8262ZM18.5608 3.92305C19.2136 4.25566 19.7443 4.7864 20.077 5.43918L21.2986 4.81672C20.8345 3.90594 20.0941 3.16546 19.1833 2.7014L18.5608 3.92305ZM9.5071 2.17383C8.35495 2.17383 7.44961 2.17329 6.72239 2.23271C5.98717 2.29278 5.37385 2.41752 4.81672 2.7014L5.43918 3.92305C5.77082 3.75408 6.18361 3.65239 6.83404 3.59925C7.49248 3.54546 8.33233 3.54492 9.5071 3.54492V2.17383ZM3.54492 9.5071C3.54492 8.33233 3.54546 7.49248 3.59925 6.83404C3.65239 6.18361 3.75408 5.77082 3.92305 5.43918L2.7014 4.81672C2.41752 5.37385 2.29278 5.98717 2.23271 6.72239C2.17329 7.44961 2.17383 8.35495 2.17383 9.5071H3.54492ZM4.81672 2.7014C3.90594 3.16546 3.16546 3.90594 2.7014 4.81672L3.92305 5.43918C4.25566 4.7864 4.7864 4.25566 5.43918 3.92305L4.81672 2.7014Z" fill="#B5EBFF"/>
</svg>