<svg width="25" height="25" viewBox="0 0 25 25" fill="none" xmlns="http://www.w3.org/2000/svg">
<path d="M12.0815 11.7306C11.8362 11.9759 11.8362 12.3736 12.0815 12.6189C12.3268 12.8643 12.7245 12.8643 12.9699 12.6189L12.0815 11.7306ZM15.4825 10.1063C15.7279 9.86094 15.7279 9.4632 15.4825 9.21789C15.2372 8.97257 14.8395 8.97257 14.5942 9.21789L15.4825 10.1063ZM15.1644 5.27491L15.6035 5.72417L15.6035 5.72417L15.1644 5.27491ZM17.6771 2.81933L18.1162 3.26859L18.1162 3.26859L17.6771 2.81933ZM21.8811 7.02331L21.4318 6.58426L21.4318 6.58426L21.8811 7.02331ZM19.4255 9.53599L19.8748 9.97504L19.8748 9.97504L19.4255 9.53599ZM22.367 12.1748C22.367 11.8278 22.0858 11.5466 21.7388 11.5466C21.3919 11.5466 21.1107 11.8278 21.1107 12.1748H22.367ZM12.5257 3.58975C12.8726 3.58975 13.1538 3.30851 13.1538 2.96158C13.1538 2.61465 12.8726 2.33341 12.5257 2.33341V3.58975ZM19.0168 12.1748C19.0168 11.8278 18.7355 11.5466 18.3886 11.5466C18.0417 11.5466 17.7604 11.8278 17.7604 12.1748H19.0168ZM12.5257 6.94C12.8726 6.94 13.1538 6.65875 13.1538 6.31183C13.1538 5.9649 12.8726 5.68365 12.5257 5.68365V6.94ZM12.9699 12.6189L15.4825 10.1063L14.5942 9.21789L12.0815 11.7306L12.9699 12.6189ZM15.6665 9.24329V5.57441H14.4102V9.24329H15.6665ZM15.6035 5.72417L18.1162 3.26859L17.2381 2.37007L14.7254 4.82565L15.6035 5.72417ZM21.4318 6.58426L18.9763 9.09694L19.8748 9.97504L22.3304 7.46235L21.4318 6.58426ZM19.126 9.0339H15.4571V10.2902H19.126V9.0339ZM17.7604 3.11884V5.89304H19.0168V3.11884H17.7604ZM18.8074 6.94H21.5816V5.68365H18.8074V6.94ZM17.7604 5.89304C17.7604 6.47126 18.2292 6.94 18.8074 6.94V5.68365C18.923 5.68365 19.0168 5.7774 19.0168 5.89304H17.7604ZM18.9763 9.09694C19.0157 9.05663 19.0696 9.0339 19.126 9.0339V10.2902C19.4079 10.2902 19.6778 10.1766 19.8748 9.97504L18.9763 9.09694ZM15.6665 5.57441C15.6665 5.63078 15.6438 5.68477 15.6035 5.72417L14.7254 4.82565C14.5238 5.02263 14.4102 5.29257 14.4102 5.57441H15.6665ZM22.3304 7.46235C22.9782 6.79942 22.5085 5.68365 21.5816 5.68365V6.94C21.3962 6.94 21.3023 6.71684 21.4318 6.58426L22.3304 7.46235ZM18.1162 3.26859C17.9836 3.39816 17.7604 3.30422 17.7604 3.11884H19.0168C19.0168 2.19189 17.901 1.7222 17.2381 2.37007L18.1162 3.26859ZM14.4102 9.24329C14.4102 9.8215 14.8789 10.2902 15.4571 10.2902V9.0339C15.5728 9.0339 15.6665 9.12765 15.6665 9.24329H14.4102ZM21.1107 12.1748C21.1107 16.9161 17.267 20.7598 12.5257 20.7598V22.0161C17.9609 22.0161 22.367 17.61 22.367 12.1748H21.1107ZM12.5257 20.7598C7.78431 20.7598 3.94067 16.9161 3.94067 12.1748H2.68433C2.68433 17.61 7.09045 22.0161 12.5257 22.0161V20.7598ZM3.94067 12.1748C3.94067 7.43339 7.78431 3.58975 12.5257 3.58975V2.33341C7.09045 2.33341 2.68433 6.73953 2.68433 12.1748H3.94067ZM17.7604 12.1748C17.7604 15.0658 15.4167 17.4095 12.5257 17.4095V18.6659C16.1106 18.6659 19.0168 15.7597 19.0168 12.1748H17.7604ZM12.5257 17.4095C9.6346 17.4095 7.29092 15.0658 7.29092 12.1748H6.03457C6.03457 15.7597 8.94074 18.6659 12.5257 18.6659V17.4095ZM7.29092 12.1748C7.29092 9.28368 9.6346 6.94 12.5257 6.94V5.68365C8.94074 5.68365 6.03457 8.58982 6.03457 12.1748H7.29092Z" fill="#0693FF"/>
</svg>
