<svg xmlns="http://www.w3.org/2000/svg" width="25" height="24" viewBox="0 0 25 24" fill="none">
  <path d="M3.35881 6.02196C2.96829 6.41248 2.96829 7.04565 3.35881 7.43617C3.74934 7.8267 4.3825 7.8267 4.77302 7.43617L3.35881 6.02196ZM4.3747 6.42028L5.08181 7.12739H5.08181L4.3747 6.42028ZM7.97417 6.42028L7.26707 7.12739L7.26707 7.12739L7.97417 6.42028ZM8.59175 7.03785L9.29885 6.33074L9.29885 6.33074L8.59175 7.03785ZM12.1912 7.03785L11.4841 6.33074L11.4841 6.33074L12.1912 7.03785ZM12.8088 6.42028L12.1017 5.71317V5.71317L12.8088 6.42028ZM16.4083 6.42028L17.1154 5.71317V5.71317L16.4083 6.42028ZM17.0258 7.03785L16.3187 7.74496V7.74496L17.0258 7.03785ZM20.6253 7.03785L19.9182 6.33074L19.9182 6.33074L20.6253 7.03785ZM21.6412 7.43617C22.0317 7.04565 22.0317 6.41248 21.6412 6.02196C21.2507 5.63143 20.6175 5.63143 20.227 6.02196L21.6412 7.43617ZM3.35881 11.2933C2.96829 11.6838 2.96829 12.3169 3.35881 12.7075C3.74934 13.098 4.3825 13.098 4.77302 12.7075L3.35881 11.2933ZM4.3747 11.6916L5.08181 12.3987L5.08181 12.3987L4.3747 11.6916ZM7.97417 11.6916L8.68128 10.9845L7.97417 11.6916ZM8.59175 12.3092L9.29885 11.602L8.59175 12.3092ZM12.1912 12.3092L12.8983 13.0163L12.1912 12.3092ZM12.8088 11.6916L12.1017 10.9845V10.9845L12.8088 11.6916ZM16.4083 11.6916L17.1154 10.9845V10.9845L16.4083 11.6916ZM17.0258 12.3092L16.3187 13.0163V13.0163L17.0258 12.3092ZM20.6253 12.3092L19.9182 11.602V11.602L20.6253 12.3092ZM21.6412 12.7075C22.0317 12.3169 22.0317 11.6838 21.6412 11.2933C21.2507 10.9027 20.6175 10.9027 20.227 11.2933L21.6412 12.7075ZM3.35881 16.5646C2.96829 16.9551 2.96829 17.5883 3.35881 17.9788C3.74934 18.3693 4.3825 18.3693 4.77302 17.9788L3.35881 16.5646ZM4.3747 16.9629L5.08181 17.67H5.08181L4.3747 16.9629ZM7.97417 16.9629L7.26707 17.67H7.26707L7.97417 16.9629ZM8.59175 17.5805L9.29885 16.8733H9.29885L8.59175 17.5805ZM12.1912 17.5805L11.4841 16.8733H11.4841L12.1912 17.5805ZM12.8088 16.9629L12.1017 16.2558L12.8088 16.9629ZM16.4083 16.9629L17.1154 16.2558L16.4083 16.9629ZM17.0258 17.5805L16.3187 18.2876L17.0258 17.5805ZM20.6253 17.5805L19.9182 16.8733V16.8733L20.6253 17.5805ZM21.6412 17.9788C22.0317 17.5883 22.0317 16.9551 21.6412 16.5646C21.2507 16.174 20.6175 16.174 20.227 16.5646L21.6412 17.9788ZM4.77302 7.43617L5.08181 7.12739L3.6676 5.71317L3.35881 6.02196L4.77302 7.43617ZM7.26707 7.12739L7.88464 7.74496L9.29885 6.33074L8.68128 5.71317L7.26707 7.12739ZM12.8983 7.74496L13.5159 7.12739L12.1017 5.71317L11.4841 6.33074L12.8983 7.74496ZM15.7011 7.12739L16.3187 7.74496L17.7329 6.33074L17.1154 5.71317L15.7011 7.12739ZM21.3324 7.74496L21.6412 7.43617L20.227 6.02196L19.9182 6.33074L21.3324 7.74496ZM18.8256 8.78333C19.7658 8.78333 20.6675 8.40981 21.3324 7.74496L19.9182 6.33074C19.6284 6.62053 19.2354 6.78333 18.8256 6.78333V8.78333ZM16.3187 7.74496C16.9836 8.40981 17.8853 8.78333 18.8256 8.78333V6.78333C18.4157 6.78333 18.0227 6.62053 17.7329 6.33074L16.3187 7.74496ZM14.6085 6.6748C15.0183 6.6748 15.4114 6.8376 15.7011 7.12739L17.1154 5.71317C16.4505 5.04832 15.5488 4.6748 14.6085 4.6748V6.6748ZM13.5159 7.12739C13.8057 6.8376 14.1987 6.6748 14.6085 6.6748V4.6748C13.6683 4.6748 12.7665 5.04832 12.1017 5.71317L13.5159 7.12739ZM10.3915 8.78333C11.3317 8.78333 12.2335 8.40981 12.8983 7.74496L11.4841 6.33074C11.1943 6.62053 10.8013 6.78333 10.3915 6.78333V8.78333ZM7.88464 7.74496C8.54949 8.40981 9.45123 8.78333 10.3915 8.78333V6.78333C9.98166 6.78333 9.58863 6.62053 9.29885 6.33074L7.88464 7.74496ZM6.17444 6.6748C6.58425 6.6748 6.97728 6.8376 7.26707 7.12739L8.68128 5.71317C8.01642 5.04832 7.11469 4.6748 6.17444 4.6748V6.6748ZM5.08181 7.12739C5.37159 6.8376 5.76462 6.6748 6.17444 6.6748V4.6748C5.23419 4.6748 4.33245 5.04832 3.6676 5.71317L5.08181 7.12739ZM4.77302 12.7075L5.08181 12.3987L3.6676 10.9845L3.35881 11.2933L4.77302 12.7075ZM7.26707 12.3987L7.88464 13.0163L9.29885 11.602L8.68128 10.9845L7.26707 12.3987ZM12.8983 13.0163L13.5159 12.3987L12.1017 10.9845L11.4841 11.602L12.8983 13.0163ZM15.7011 12.3987L16.3187 13.0163L17.7329 11.602L17.1154 10.9845L15.7011 12.3987ZM21.3324 13.0163L21.6412 12.7075L20.227 11.2933L19.9182 11.602L21.3324 13.0163ZM18.8256 14.0546C19.7658 14.0546 20.6675 13.6811 21.3324 13.0163L19.9182 11.602C19.6284 11.8918 19.2354 12.0546 18.8256 12.0546V14.0546ZM16.3187 13.0163C16.9836 13.6811 17.8853 14.0546 18.8256 14.0546V12.0546C18.4157 12.0546 18.0227 11.8918 17.7329 11.602L16.3187 13.0163ZM14.6085 11.9461C15.0183 11.9461 15.4114 12.1089 15.7011 12.3987L17.1154 10.9845C16.4505 10.3196 15.5488 9.94611 14.6085 9.94611V11.9461ZM13.5159 12.3987C13.8057 12.1089 14.1987 11.9461 14.6085 11.9461V9.94611C13.6683 9.94611 12.7665 10.3196 12.1017 10.9845L13.5159 12.3987ZM10.3915 14.0546C11.3317 14.0546 12.2335 13.6811 12.8983 13.0163L11.4841 11.602C11.1943 11.8918 10.8013 12.0546 10.3915 12.0546V14.0546ZM7.88464 13.0163C8.54949 13.6811 9.45123 14.0546 10.3915 14.0546V12.0546C9.98166 12.0546 9.58863 11.8918 9.29885 11.602L7.88464 13.0163ZM6.17444 11.9461C6.58425 11.9461 6.97728 12.1089 7.26707 12.3987L8.68128 10.9845C8.01642 10.3196 7.11469 9.94611 6.17444 9.94611V11.9461ZM5.08181 12.3987C5.37159 12.1089 5.76462 11.9461 6.17444 11.9461V9.94611C5.23419 9.94611 4.33245 10.3196 3.6676 10.9845L5.08181 12.3987ZM4.77302 17.9788L5.08181 17.67L3.6676 16.2558L3.35881 16.5646L4.77302 17.9788ZM7.26707 17.67L7.88464 18.2876L9.29885 16.8733L8.68128 16.2558L7.26707 17.67ZM12.8983 18.2876L13.5159 17.67L12.1017 16.2558L11.4841 16.8733L12.8983 18.2876ZM15.7011 17.67L16.3187 18.2876L17.7329 16.8733L17.1154 16.2558L15.7011 17.67ZM21.3324 18.2876L21.6412 17.9788L20.227 16.5646L19.9182 16.8733L21.3324 18.2876ZM18.8256 19.3259C19.7658 19.3259 20.6675 18.9524 21.3324 18.2876L19.9182 16.8733C19.6284 17.1631 19.2354 17.3259 18.8256 17.3259V19.3259ZM16.3187 18.2876C16.9836 18.9524 17.8853 19.3259 18.8256 19.3259V17.3259C18.4157 17.3259 18.0227 17.1631 17.7329 16.8733L16.3187 18.2876ZM14.6085 17.2174C15.0183 17.2174 15.4114 17.3802 15.7011 17.67L17.1154 16.2558C16.4505 15.5909 15.5488 15.2174 14.6085 15.2174V17.2174ZM13.5159 17.67C13.8057 17.3802 14.1987 17.2174 14.6085 17.2174V15.2174C13.6683 15.2174 12.7665 15.5909 12.1017 16.2558L13.5159 17.67ZM10.3915 19.3259C11.3317 19.3259 12.2335 18.9524 12.8983 18.2876L11.4841 16.8733C11.1943 17.1631 10.8013 17.3259 10.3915 17.3259V19.3259ZM7.88464 18.2876C8.54949 18.9524 9.45123 19.3259 10.3915 19.3259V17.3259C9.98166 17.3259 9.58863 17.1631 9.29885 16.8733L7.88464 18.2876ZM6.17444 17.2174C6.58425 17.2174 6.97728 17.3802 7.26707 17.67L8.68128 16.2558C8.01642 15.5909 7.11469 15.2174 6.17444 15.2174V17.2174ZM5.08181 17.67C5.37159 17.3802 5.76462 17.2174 6.17444 17.2174V15.2174C5.23419 15.2174 4.33245 15.5909 3.6676 16.2558L5.08181 17.67Z" fill="#B5EBFF"/>
</svg>