<svg width="25" height="15" viewBox="0 0 25 15" fill="none" xmlns="http://www.w3.org/2000/svg">
<rect x="18.9648" y="10.709" width="3.55358" height="3.55358" rx="1.0338" fill="#EEEEF0"/>
<path d="M11.0598 0H7.29686C6.93219 0 6.60038 0.210743 6.44534 0.540811L0.629729 12.9225C0.336685 13.5464 0.791948 14.2632 1.48124 14.2632H5.30674C5.67281 14.2632 6.00565 14.0508 6.1599 13.7188L11.913 1.33718C12.2027 0.713606 11.7474 0 11.0598 0Z" fill="#EEEEF0"/>
<path d="M18.8987 0H22.6248C23.3116 0 23.7669 0.712121 23.4787 1.33554L21.0349 6.62161C20.881 6.95448 20.5477 7.16759 20.181 7.16759H14.9835L17.7364 12.9161C18.0355 13.5405 17.5803 14.2632 16.8879 14.2632H13.132C12.7672 14.2632 12.4354 14.0523 12.2804 13.7221L9.83309 8.50807C9.54027 7.88419 9.99553 7.16759 10.6847 7.16759H14.9835L18.0448 0.545983C18.1987 0.213107 18.532 0 18.8987 0Z" fill="#EEEEF0"/>
</svg>
