<svg width="24" height="25" viewBox="0 0 24 25" fill="none" xmlns="http://www.w3.org/2000/svg">
<g clip-path="url(#clip0_2756_15855)">
<rect x="18.9004" y="15.7617" width="3.55358" height="3.55358" rx="1.0338" fill="#0693FF"/>
<path d="M10.9954 5.05273H7.2324C6.86774 5.05273 6.53592 5.26348 6.38089 5.59355L0.565276 17.9752C0.272232 18.5991 0.727495 19.3159 1.41679 19.3159H5.24229C5.60836 19.3159 5.94119 19.1035 6.09545 18.7716L11.8486 6.38992C12.1383 5.76634 11.683 5.05273 10.9954 5.05273Z" fill="#0693FF"/>
<path d="M18.8343 5.05273H22.5603C23.2471 5.05273 23.7025 5.76486 23.4142 6.38828L20.9704 11.6743C20.8165 12.0072 20.4832 12.2203 20.1165 12.2203H14.9191L17.672 17.9688C17.971 18.5933 17.5159 19.3159 16.8235 19.3159H13.0675C12.7028 19.3159 12.3709 19.1051 12.2159 18.7749L9.76864 13.5608C9.47581 12.9369 9.93108 12.2203 10.6203 12.2203H14.9191L17.9803 5.59872C18.1342 5.26584 18.4675 5.05273 18.8343 5.05273Z" fill="#0693FF"/>
</g>
<defs>
<clipPath id="clip0_2756_15855">
<rect width="24" height="24.3117" fill="white" transform="translate(0 0.0439453)"/>
</clipPath>
</defs>
</svg>
