<svg xmlns="http://www.w3.org/2000/svg" width="20" height="18" viewBox="0 0 20 18" fill="none">
  <path fill-rule="evenodd" clip-rule="evenodd" d="M4.53223 14.4522C4.53223 14.9123 4.90137 15.2857 5.35622 15.2857C5.81106 15.2857 6.18021 14.9123 6.18021 14.4522V2.8523L8.80489 5.51724C9.12569 5.84397 9.64645 5.84397 9.96946 5.51946C10.2925 5.19496 10.2936 4.66708 9.97166 4.34036L5.9396 0.245152C5.70449 0.00510772 5.34853 -0.0649053 5.042 0.0628962C4.73328 0.191809 4.53223 0.495199 4.53223 0.833039V14.4522ZM1.32413 5.7624C1.11429 5.7624 0.903344 5.68127 0.742941 5.51902C0.419937 5.19451 0.418839 4.66775 0.740744 4.34102L2.34478 2.71072C2.66668 2.38399 3.18744 2.38399 3.51045 2.7085C3.83235 3.033 3.83345 3.56088 3.51264 3.88761L1.90751 5.5168C1.74711 5.68127 1.53507 5.7624 1.32413 5.7624ZM14.8594 17.9366C14.9605 17.9788 15.067 17.9999 15.1736 17.9999C15.3889 17.9999 15.5999 17.9155 15.757 17.7543L19.2079 14.2481C19.5287 13.9214 19.5276 13.3935 19.2057 13.069C18.8827 12.7445 18.3608 12.7456 18.04 13.0712L15.9976 15.1483V3.54613C15.9976 3.08605 15.6295 2.71265 15.1736 2.71265C14.7188 2.71265 14.3496 3.08605 14.3496 3.54613V17.1664C14.3496 17.5043 14.5507 17.8077 14.8594 17.9366ZM12.1602 15.2875C12.3217 15.452 12.5338 15.5331 12.7447 15.5331C12.9545 15.5331 13.1655 15.452 13.3259 15.2897C13.6489 14.9652 13.65 14.4384 13.3292 14.1117L11.7252 12.4814C11.4022 12.1547 10.8814 12.1547 10.5595 12.4792C10.2365 12.8037 10.2354 13.3316 10.5562 13.6583L12.1602 15.2875Z" fill="#B5EBFF"/>
</svg>