<svg width="25" height="24" viewBox="0 0 25 24" fill="none" xmlns="http://www.w3.org/2000/svg">
<path d="M18.7626 17H17.6553C17.089 17 16.8059 17 16.5731 17.1351C16.3403 17.2702 16.1998 17.516 15.9189 18.0077C15.1584 19.3385 14.7782 20.0039 15.0673 20.5019C15.3563 21 16.1226 21 17.6553 21H18.7626C20.2953 21 21.0617 21 21.3507 20.5019C21.6398 20.0039 21.2595 19.3385 20.4991 18.0077C20.2181 17.516 20.0777 17.2702 19.8449 17.1351C19.6121 17 19.3289 17 18.7626 17Z" stroke="white" stroke-width="1.5" stroke-linecap="round"/>
<path d="M6.76263 17H5.65534C5.08903 17 4.80588 17 4.57309 17.1351C4.34031 17.2702 4.19983 17.516 3.91886 18.0077C3.15843 19.3385 2.77821 20.0039 3.06725 20.5019C3.3563 21 4.12265 21 5.65534 21H6.76263C8.29532 21 9.06167 21 9.35072 20.5019C9.63976 20.0039 9.25954 19.3385 8.49911 18.0077C8.21814 17.516 8.07766 17.2702 7.84487 17.1351C7.61209 17 7.32894 17 6.76263 17Z" stroke="white" stroke-width="1.5" stroke-linecap="round"/>
<path d="M12.7626 10H11.6553C11.089 10 10.8059 10 10.5731 10.1351C10.3403 10.2702 10.1998 10.516 9.91886 11.0077C9.15843 12.3385 8.77821 13.0039 9.06725 13.5019C9.3563 14 10.1226 14 11.6553 14H12.7626C14.2953 14 15.0617 14 15.3507 13.5019C15.6398 13.0039 15.2595 12.3385 14.4991 11.0077C14.2181 10.516 14.0777 10.2702 13.8449 10.1351C13.6121 10 13.3289 10 12.7626 10Z" stroke="url(#paint0_linear_2451_42158)" stroke-width="1.5" stroke-linecap="round"/>
<path d="M20.2695 5.9375L18.1482 8.05882" stroke="white" stroke-linecap="round"/>
<path d="M4.14844 5.9375L6.26976 8.05882" stroke="white" stroke-linecap="round"/>
<path d="M12.209 2V5" stroke="white" stroke-linecap="round"/>
<defs>
<linearGradient id="paint0_linear_2451_42158" x1="8.20898" y1="12" x2="16.209" y2="12" gradientUnits="userSpaceOnUse">
<stop stop-color="#0387F5"/>
<stop offset="1" stop-color="#0ED4B9"/>
</linearGradient>
</defs>
</svg>
