<svg width="25" height="24" viewBox="0 0 25 24" fill="none" xmlns="http://www.w3.org/2000/svg">
<g id="swap 1">
<g id="Group">
<path id="Vector" d="M4.25 0.75H5C5.41423 0.75 5.75 1.08579 5.75 1.5C5.75 1.91421 5.41423 2.25 5 2.25H4.25C3.42157 2.25 2.75 2.92157 2.75 3.75V8.25C2.75 9.07841 3.42157 9.75 4.25 9.75H11.75C12.5784 9.75 13.25 9.07841 13.25 8.25V6.75H11C10.5858 6.75 10.25 6.41423 10.25 6C10.25 5.58577 10.5858 5.25 11 5.25H13.25V3.75C13.25 2.92157 12.5784 2.25 11.75 2.25H8.75C8.33577 2.25 8 1.91421 8 1.5C8 1.08579 8.33577 0.75 8.75 0.75H11.75C13.4069 0.75 14.75 2.09314 14.75 3.75V5.25H18.1894L17.9697 5.03032C17.6768 4.73745 17.6768 4.26255 17.9697 3.96968C18.2626 3.67678 18.7374 3.67678 19.0303 3.96968L20.5303 5.46968C20.8232 5.76255 20.8232 6.23745 20.5303 6.53032L19.0303 8.03032C18.7374 8.32324 18.2626 8.32324 17.9697 8.03032C17.6768 7.73745 17.6768 7.26255 17.9697 6.96968L18.1894 6.75H14.75V8.25C14.75 9.90686 13.4069 11.25 11.75 11.25H4.25C2.59314 11.25 1.25 9.90686 1.25 8.25V3.75C1.25 2.09314 2.59314 0.75 4.25 0.75Z" fill="white"/>
<path id="Vector_2" d="M20.75 12.75C22.4069 12.75 23.75 14.0931 23.75 15.75V20.25C23.75 21.9069 22.4069 23.25 20.75 23.25H13.25C11.5931 23.25 10.25 21.9069 10.25 20.25V18.75H5.78032L6 18.9697C6.29291 19.2625 7.32324 19.7375 7.03032 20.0303C6.73745 20.3232 6.26255 20.3232 5.96967 20.0303L4.46967 18.5303C4.17678 18.2375 4.17678 17.7625 4.46967 17.4697L5.96967 15.9697C6.26255 15.6768 6.73745 15.6768 7.03032 15.9697C7.32324 16.2626 6.29291 16.7374 6 17.0303L5.78032 17.25H10.25V15.75C10.25 14.0931 11.5931 12.75 13.25 12.75H16.625C17.0392 12.75 17.375 13.0858 17.375 13.5C17.375 13.9142 17.0392 14.25 16.625 14.25H13.25C12.4216 14.25 11.75 14.9216 11.75 15.75V17.25H14C14.4142 17.25 14.75 17.5858 14.75 18C14.75 18.4142 14.4142 18.75 14 18.75H11.75V20.25C11.75 21.0784 12.4216 21.75 13.25 21.75H20.75C21.5784 21.75 22.25 21.0784 22.25 20.25V15.75C22.25 14.9216 21.5784 14.25 20.75 14.25H20.375C19.9608 14.25 19.625 13.9142 19.625 13.5C19.625 13.0858 19.9608 12.75 20.375 12.75H20.75Z" fill="white"/>
<path id="Vector_3" d="M10.5 6H19.5M18 4L20 6L18 8" stroke="url(#paint0_linear_2451_41690)" stroke-width="1.5" stroke-linecap="round" stroke-linejoin="round"/>
<path id="Vector_4" d="M14 18H5M6.5 16L4.5 18L6.5 20" stroke="url(#paint1_linear_2451_41690)" stroke-width="1.5" stroke-linecap="round" stroke-linejoin="round"/>
</g>
</g>
<defs>
<linearGradient id="paint0_linear_2451_41690" x1="10.5" y1="6" x2="20" y2="6" gradientUnits="userSpaceOnUse">
<stop stop-color="#0387F5"/>
<stop offset="1" stop-color="#0ED4B9"/>
</linearGradient>
<linearGradient id="paint1_linear_2451_41690" x1="14" y1="18" x2="4.5" y2="18" gradientUnits="userSpaceOnUse">
<stop stop-color="#0387F5"/>
<stop offset="1" stop-color="#0ED4B9"/>
</linearGradient>
</defs>
</svg>
