<svg width="24" height="24" viewBox="0 0 24 24" fill="none" xmlns="http://www.w3.org/2000/svg">
<g clip-path="url(#clip0_2451_41717)">
<path d="M22.7439 16.456C22.4994 16.0499 22.1113 15.7636 21.6513 15.65C21.192 15.5365 20.7161 15.6087 20.3114 15.8535C20.1949 15.9236 20.0886 16.0059 19.9931 16.098L18.6498 15.2895V8.50594L19.9932 7.69643C20.0887 7.78845 20.1948 7.87072 20.3113 7.94081C20.591 8.11002 20.9047 8.19677 21.2235 8.19677C21.3659 8.19677 21.5094 8.17943 21.6513 8.14438C22.1113 8.0307 22.4994 7.74441 22.7433 7.33927C22.9885 6.93431 23.0609 6.45811 22.9473 5.99844C22.8336 5.53837 22.5474 5.15034 22.1422 4.9064C21.7372 4.66125 21.2611 4.58875 20.8014 4.70238C20.3414 4.81606 19.9533 5.10235 19.7094 5.50754C19.4643 5.9125 19.3918 6.38865 19.5054 6.84832C19.5112 6.87202 19.5178 6.8954 19.5246 6.91869L18.1958 7.71944L12.4536 4.25969V1.93179L13.2382 2.71643C13.3269 2.80509 13.4431 2.8494 13.5593 2.8494C13.6754 2.8494 13.7917 2.80505 13.8803 2.71643C14.0576 2.53914 14.0576 2.25167 13.8803 2.07439L12.3207 0.514737C12.1547 0.348757 11.8409 0.32919 11.6785 0.514737L10.1178 2.0743C9.94039 2.25154 9.9403 2.53896 10.1175 2.71634C10.2948 2.89371 10.5822 2.8938 10.7596 2.71656L11.5456 1.93115V4.25974L5.80346 7.71944L4.47335 6.91796C4.60659 6.45925 4.55588 5.94855 4.29039 5.50849C4.04609 5.10267 3.65833 4.81647 3.19858 4.70265C2.73859 4.58875 2.26185 4.66107 1.85634 4.90609C1.01968 5.41088 0.749594 6.5021 1.25444 7.33891C1.49946 7.74455 1.88735 8.03052 2.34661 8.1442C2.48866 8.17939 2.63235 8.19677 2.77509 8.19677C3.09397 8.19677 3.408 8.10997 3.68821 7.94072C3.80538 7.87003 3.91103 7.78745 4.00541 7.69606L5.34946 8.50599V9.85812C5.34946 10.1089 5.55272 10.3121 5.80346 10.3121C6.0542 10.3121 6.25745 10.1089 6.25745 9.85812V9.05292L11.5456 12.238V15.7585V18.4747L6.25745 15.2896V13.9362C6.25745 13.6855 6.0542 13.4822 5.80346 13.4822C5.55272 13.4822 5.34946 13.6855 5.34946 13.9362V15.2894L4.00555 16.0984C3.91112 16.0069 3.80543 15.9243 3.68821 15.8536C3.28256 15.6086 2.80614 15.5362 2.34661 15.6501C1.88735 15.7638 1.4995 16.0498 1.2543 16.4557C0.749594 17.2922 1.01968 18.3835 1.85611 18.8881C2.13641 19.0575 2.45057 19.1443 2.76969 19.1443C2.91251 19.1443 3.05643 19.1269 3.19867 19.0917C3.65838 18.9779 4.04614 18.6917 4.2902 18.2862C4.55579 17.846 4.60659 17.3353 4.47339 16.8766L5.80337 16.0761L11.5456 19.5346V22.0762L10.7597 21.2902C10.5825 21.1129 10.295 21.1129 10.1177 21.2902C9.94039 21.4675 9.94034 21.7549 10.1177 21.9322L11.6786 23.4932C11.8673 23.6819 12.1281 23.6473 12.3208 23.4931L13.8805 21.9321C14.0577 21.7547 14.0576 21.4673 13.8802 21.2901C13.7029 21.1129 13.4154 21.113 13.2382 21.2903L12.4537 22.0755V19.5346L18.196 16.0761L19.5246 16.8758C19.5179 16.8991 19.5113 16.9224 19.5055 16.946C19.3919 17.4056 19.4643 17.8818 19.7089 18.2858C19.9534 18.692 20.3414 18.9782 20.8015 19.0919C20.9434 19.127 21.0869 19.1443 21.2295 19.1443C21.5484 19.1443 21.8621 19.0575 22.1413 18.8885C22.5474 18.644 22.8337 18.2559 22.9474 17.7959C23.0609 17.3362 22.9885 16.86 22.7439 16.456ZM3.51251 17.8175C3.39343 18.0154 3.20443 18.1549 2.98039 18.2103C2.75611 18.266 2.52362 18.2306 2.32541 18.1108C1.9174 17.8647 1.7857 17.3326 2.03163 16.9249C2.15139 16.7267 2.34075 16.587 2.56475 16.5315C2.63394 16.5144 2.70386 16.506 2.77336 16.506C2.92886 16.506 3.08208 16.5484 3.21887 16.6309C3.21891 16.631 3.219 16.631 3.2191 16.6311C3.6271 16.8772 3.7588 17.4093 3.51251 17.8175ZM20.4868 5.97679C20.6059 5.7788 20.7951 5.63924 21.0193 5.58386C21.0883 5.56678 21.1581 5.55834 21.2274 5.55834C21.3828 5.55834 21.5359 5.60079 21.673 5.68373C21.8709 5.80291 22.0105 5.99204 22.0658 6.21622C22.1211 6.44004 22.0859 6.67185 21.966 6.86993C21.8468 7.06792 21.6577 7.20748 21.4335 7.26286C21.2096 7.31825 20.9778 7.28288 20.7807 7.16357C20.7804 7.16339 20.7801 7.16321 20.7798 7.16303C20.5818 7.04386 20.4423 6.85468 20.3868 6.63049C20.3316 6.40667 20.3668 6.17482 20.4868 5.97679ZM11.9996 8.70348C12.2504 8.70348 12.4536 8.50022 12.4536 8.24948V5.31981L17.316 8.24944L11.9996 11.4515L6.68325 8.24944L11.5456 5.31981V8.24948C11.5456 8.50022 11.7489 8.70348 11.9996 8.70348ZM3.2191 7.16326C3.21905 7.1633 3.21896 7.1633 3.21887 7.16335C3.02102 7.28293 2.78871 7.3183 2.56475 7.26277C2.34071 7.20729 2.15135 7.0676 2.03172 6.86957C1.91264 6.67217 1.87763 6.44004 1.93311 6.21586C1.98864 5.99168 2.12792 5.80259 2.32559 5.68333C2.46238 5.6007 2.61565 5.5583 2.77128 5.5583C2.84092 5.5583 2.91102 5.56679 2.98029 5.58395C3.20434 5.63942 3.39334 5.77889 3.51265 5.97711C3.7588 6.38502 3.6271 6.9171 3.2191 7.16326ZM17.7418 15.2896L12.4536 18.4747V15.7585V12.238L17.7418 9.05292V15.2896ZM22.0659 17.5781C22.0105 17.8023 21.8709 17.9914 21.672 18.1112C21.4749 18.2305 21.2431 18.2659 21.0193 18.2105C20.7951 18.1551 20.6059 18.0155 20.4862 17.8166C20.3669 17.6195 20.3316 17.3877 20.3869 17.1638C20.4423 16.9397 20.5818 16.7505 20.7798 16.6314C20.7801 16.6312 20.7805 16.631 20.7808 16.6308C20.9171 16.5483 21.0699 16.506 21.2252 16.506C21.2946 16.506 21.3645 16.5144 21.4336 16.5315C21.6578 16.5869 21.8469 16.7264 21.9667 16.9254C22.0859 17.1224 22.1211 17.3542 22.0659 17.5781Z" fill="#828282" stroke="#828282" stroke-width="0.5"/>
<path d="M5.8036 12.3539C6.05434 12.3539 6.2576 12.15 6.2576 11.8993C6.2576 11.6486 6.05434 11.4453 5.8036 11.4453C5.55286 11.4453 5.34961 11.6486 5.34961 11.8993V11.9006C5.34961 12.1513 5.55286 12.3539 5.8036 12.3539Z" fill="#828282"/>
</g>
<defs>
<clipPath id="clip0_2451_41717">
<rect width="24" height="24" fill="white"/>
</clipPath>
</defs>
</svg>
