<svg width="24" height="24" viewBox="0 0 24 24" fill="none" xmlns="http://www.w3.org/2000/svg">
<g id="Rocket">
<path id="Vector" d="M11.9982 2.75C12.3282 2.75 12.6582 2.87001 12.9182 3.10001C13.8082 3.89001 15.2682 5.41999 16.2682 7.54999C16.4782 7.99999 16.6682 8.47 16.8282 8.97C16.9582 9.39 17.0682 9.80999 17.1582 10.24C17.6282 12.55 17.1082 14.94 16.3782 17.14C16.0982 18 15.8782 18.99 15.3682 19.75C15.3382 19.79 15.3182 19.83 15.2982 19.86C15.0282 20.22 14.6082 20.43 14.1582 20.43C14.1582 20.43 13.0782 20.43 11.9982 20.43C10.9182 20.43 9.83821 20.43 9.83821 20.43C9.38821 20.43 8.96823 20.22 8.69823 19.86C8.67823 19.82 8.65822 19.79 8.62822 19.75C8.11822 18.99 7.89821 18.01 7.61821 17.14C6.89821 14.94 6.36821 12.55 6.83821 10.24C6.92821 9.80999 7.03823 9.39 7.16823 8.97C7.32823 8.47 7.51823 7.99999 7.72823 7.54999C8.72823 5.41999 10.1882 3.90001 11.0782 3.10001C11.3382 2.87001 11.6682 2.75 11.9982 2.75Z" stroke="white" stroke-width="1.5" stroke-linecap="round" stroke-linejoin="round"/>
<path id="Vector_2" d="M15.3711 19.7516L17.1611 21.0716C17.4311 21.2716 17.7611 21.3116 18.0711 21.2016C18.2011 21.1416 18.3111 21.0716 18.4011 20.9816C18.5311 20.8516 18.6211 20.6916 18.6611 20.5016L19.3011 17.3316C19.3911 16.9016 19.2711 16.4816 19.0011 16.1516L17.2911 14.1616C17.3011 14.1416 17.3011 14.1216 17.3011 14.1016" stroke="white" stroke-width="1.5" stroke-linecap="round" stroke-linejoin="round"/>
<path id="Vector_3" d="M6.69972 14.1484L4.9897 16.1384C4.7197 16.4684 4.59971 16.8984 4.68971 17.3184L5.32969 20.4884C5.38969 20.8084 5.61972 21.0684 5.91972 21.1884C6.22972 21.2984 6.55969 21.2584 6.82969 21.0584L8.6197 19.7384" stroke="white" stroke-width="1.5" stroke-linecap="round" stroke-linejoin="round"/>
<path id="Vector_4" d="M11.9995 11.7881C13.093 11.7881 13.9795 10.9016 13.9795 9.80814C13.9795 8.71461 13.093 7.82812 11.9995 7.82812C10.906 7.82812 10.0195 8.71461 10.0195 9.80814C10.0195 10.9016 10.906 11.7881 11.9995 11.7881Z" stroke="url(#paint0_linear_2451_42155)" stroke-width="1.5" stroke-linecap="round" stroke-linejoin="round"/>
<path id="Vector_5" d="M8.03906 16.7422H15.9591" stroke="white" stroke-width="1.5" stroke-linecap="round" stroke-linejoin="round"/>
</g>
<defs>
<linearGradient id="paint0_linear_2451_42155" x1="10.0195" y1="9.80813" x2="13.9795" y2="9.80813" gradientUnits="userSpaceOnUse">
<stop stop-color="#0387F5"/>
<stop offset="1" stop-color="#0ED4B9"/>
</linearGradient>
</defs>
</svg>
