<svg width="25" height="24" viewBox="0 0 25 24" fill="none" xmlns="http://www.w3.org/2000/svg">
<g id="cube 1" clip-path="url(#clip0_2451_42135)">
<g id="Group">
<g id="Group_2">
<path id="Vector" d="M22.9529 16.4499C22.7083 16.0437 22.3203 15.7575 21.8603 15.6438C21.401 15.5303 20.9251 15.6026 20.5204 15.8473C20.4039 15.9175 20.2976 15.9998 20.2021 16.0919L18.8588 15.2834V8.49978L20.2022 7.69026C20.2976 7.78228 20.4038 7.86455 20.5202 7.93464C20.8 8.10385 21.1137 8.19061 21.4324 8.19061C21.5749 8.19061 21.7184 8.17326 21.8603 8.13822C22.3203 8.02454 22.7084 7.73825 22.9523 7.3331C23.1974 6.92814 23.2699 6.45194 23.1563 5.99228C23.0426 5.5322 22.7563 5.14417 22.3512 4.90024C21.9462 4.65508 21.4701 4.58258 21.0104 4.69621C20.5503 4.80989 20.1623 5.09618 19.9184 5.50137C19.6733 5.90633 19.6008 6.38248 19.7144 6.84215C19.7202 6.86585 19.7268 6.88923 19.7336 6.91252L18.4048 7.71328L12.6626 4.25352V1.92562L13.4472 2.71026C13.5359 2.79893 13.6521 2.84324 13.7683 2.84324C13.8844 2.84324 14.0007 2.79888 14.0893 2.71026C14.2666 2.53298 14.2666 2.67355 14.0893 2.49626L12.5297 0.936612C12.3637 0.770632 12.0499 0.751065 11.8875 0.936612L10.3267 2.49617C10.1494 2.67341 10.1493 2.53279 10.3265 2.71017C10.5038 2.88755 10.7912 2.88764 10.9686 2.7104L11.7546 1.92499V4.25357L6.01244 7.71328L4.68233 6.9118C4.81558 6.45308 4.76487 5.94238 4.49937 5.50233C4.25508 5.0965 3.86732 4.8103 3.40756 4.69649C2.94757 4.58258 2.47083 4.6549 2.06533 4.89992C1.22866 5.40472 0.958579 6.49594 1.46342 7.33274C1.70844 7.73838 2.09633 8.02435 2.55559 8.13803C2.69765 8.17322 2.84134 8.19061 2.98407 8.19061C3.30296 8.19061 3.61699 8.1038 3.89719 7.93455C4.01437 7.86387 4.12001 7.78129 4.2144 7.6899L5.55845 8.49982V9.85195C5.55845 10.1027 5.7617 10.3059 6.01244 10.3059C6.26318 10.3059 6.46644 10.1027 6.46644 9.85195V9.04675L11.7546 12.2318V15.7523V18.4685L6.46644 15.2834V13.93C6.46644 13.6793 6.26318 13.4761 6.01244 13.4761C5.7617 13.4761 5.55845 13.6793 5.55845 13.93V15.2833L4.21453 16.0922C4.1201 16.0007 4.01441 15.9181 3.89719 15.8474C3.49155 15.6024 3.01513 15.5301 2.55559 15.6439C2.09633 15.7576 1.70849 16.0436 1.46328 16.4495C0.958579 17.286 1.22866 18.3773 2.0651 18.8819C2.34539 19.0513 2.65956 19.1382 2.97867 19.1382C3.1215 19.1382 3.26541 19.1207 3.40765 19.0856C3.86736 18.9717 4.25512 18.6855 4.49919 18.28C4.76478 17.8398 4.81558 17.3291 4.68237 16.8704L6.01235 16.0699L11.7546 19.5285V22.07L10.9687 21.284C10.7915 21.1067 10.5039 21.1067 10.3267 21.284C10.1494 21.4613 10.1493 21.3191 10.3267 21.4964L11.8875 23.0574C12.0763 23.246 12.3371 23.2115 12.5298 23.0573L14.0895 21.4963C14.2666 21.3189 14.2666 21.4611 14.0892 21.2839C13.9119 21.1067 13.6243 21.1068 13.4471 21.2842L12.6626 22.0693V19.5285L18.4049 16.0699L19.7336 16.8697C19.7269 16.8929 19.7203 16.9162 19.7144 16.9398C19.6009 17.3995 19.6733 17.8757 19.9179 18.2797C20.1624 18.6858 20.5504 18.9721 21.0105 19.0857C21.1524 19.1208 21.2959 19.1382 21.4385 19.1382C21.7574 19.1382 22.0711 19.0513 22.3503 18.8823C22.7564 18.6378 23.0427 18.2498 23.1564 17.7897C23.2699 17.33 23.1974 16.8539 22.9529 16.4499ZM3.7215 17.8114C3.60241 18.0092 3.41342 18.1487 3.18937 18.2042C2.9651 18.2598 2.73261 18.2245 2.53439 18.1047C2.12639 17.8585 1.99468 17.3264 2.24061 16.9188C2.36038 16.7205 2.54974 16.5808 2.77374 16.5254C2.84293 16.5082 2.91284 16.4998 2.98235 16.4998C3.13784 16.4998 3.29106 16.5422 3.42785 16.6248C3.83586 16.8709 3.96779 17.4031 3.7215 17.8114ZM20.6957 5.97062C20.8149 5.77263 21.0041 5.63308 21.2282 5.57769C21.2973 5.56062 21.3671 5.55217 21.4363 5.55217C21.5918 5.55217 21.7449 5.59462 21.8819 5.67757C22.0799 5.79674 22.2194 5.98587 22.2748 6.21006C22.3301 6.43388 22.2949 6.66569 22.175 6.86376C22.0558 7.06175 21.8666 7.20131 21.6425 7.2567C21.4186 7.31208 21.1868 7.27672 20.9897 7.15741L20.9888 7.15686C20.7908 7.03769 20.6513 6.84851 20.5958 6.62433C20.5406 6.40051 20.5758 6.16865 20.6957 5.97062ZM12.2086 8.69731C12.4593 8.69731 12.6626 8.49406 12.6626 8.24332V5.31364L17.525 8.24327L12.2086 11.4453L6.89224 8.24327L11.7546 5.31364V8.24332C11.7546 8.49406 11.9579 8.69731 12.2086 8.69731ZM3.42808 7.15709C3.23023 7.27667 2.99769 7.31213 2.77374 7.2566C2.54969 7.20113 2.36033 7.06143 2.2407 6.8634C2.12162 6.666 2.08662 6.43388 2.1421 6.20969C2.19762 5.98551 2.33691 5.79642 2.53457 5.67716C2.67136 5.59453 2.82463 5.55213 2.98026 5.55213C3.0499 5.55213 3.12 5.56062 3.18928 5.57778C3.41333 5.63326 3.60232 5.77272 3.72163 5.97094C3.96779 6.37885 3.83608 6.91093 3.42808 7.15709ZM17.9508 15.2834L12.6626 18.4685V15.7523V12.2318L17.9508 9.04675V15.2834ZM22.2749 17.5719C22.2194 17.7961 22.0799 17.9852 21.881 18.105C21.6839 18.2244 21.4521 18.2597 21.2282 18.2043C21.0041 18.1489 20.8149 18.0094 20.6952 17.8105C20.5758 17.6133 20.5406 17.3815 20.5959 17.1577C20.6513 16.9335 20.7908 16.7444 20.9888 16.6252L20.9898 16.6246C21.126 16.5421 21.2789 16.4998 21.4342 16.4998C21.5036 16.4998 21.5735 16.5082 21.6426 16.5253C21.8667 16.5807 22.0559 16.7202 22.1756 16.9192C22.2949 17.1162 22.3301 17.3481 22.2749 17.5719Z" fill="#B5B5B5" stroke="#B5B5B5" stroke-width="0.5"/>
<path id="Vector_2" d="M6.01259 12.3461C6.26333 12.3461 6.46658 12.1422 6.46658 11.8915C6.46658 11.6408 6.26333 11.4375 6.01259 11.4375C5.76185 11.4375 5.55859 11.6408 5.55859 11.8915V11.8928C5.55859 12.1435 5.76185 12.3461 6.01259 12.3461Z" fill="#B5B5B5"/>
</g>
</g>
<path id="Vector_3" d="M12.209 8.5V1.5M10.209 3L12.209 1L14.209 3" stroke="url(#paint0_linear_2451_42135)" stroke-width="1.5" stroke-linecap="round" stroke-linejoin="round"/>
<path id="Vector_4" d="M12.209 16V23M12.209 23L10.209 21M12.209 23L14.209 21" stroke="url(#paint1_linear_2451_42135)" stroke-width="1.5" stroke-linecap="round" stroke-linejoin="round"/>
</g>
<defs>
<linearGradient id="paint0_linear_2451_42135" x1="12.209" y1="8.5" x2="12.209" y2="1" gradientUnits="userSpaceOnUse">
<stop stop-color="#0387F5"/>
<stop offset="1" stop-color="#0ED4B9"/>
</linearGradient>
<linearGradient id="paint1_linear_2451_42135" x1="12.209" y1="16" x2="12.209" y2="23" gradientUnits="userSpaceOnUse">
<stop stop-color="#0387F5"/>
<stop offset="1" stop-color="#0ED4B9"/>
</linearGradient>
<clipPath id="clip0_2451_42135">
<rect width="24" height="24" fill="white" transform="translate(0.208984)"/>
</clipPath>
</defs>
</svg>
