<svg width="23" height="24" viewBox="0 0 23 24" fill="none" xmlns="http://www.w3.org/2000/svg">
<path d="M3.25 0.75H4C4.41423 0.75 4.75 1.08579 4.75 1.5C4.75 1.91421 4.41423 2.25 4 2.25H3.25C2.42157 2.25 1.75 2.92157 1.75 3.75V8.25C1.75 9.07841 2.42157 9.75 3.25 9.75H10.75C11.5784 9.75 12.25 9.07841 12.25 8.25V6.75H10C9.58578 6.75 9.25 6.41423 9.25 6C9.25 5.58577 9.58578 5.25 10 5.25H12.25V3.75C12.25 2.92157 11.5784 2.25 10.75 2.25H7.75C7.33577 2.25 7 1.91421 7 1.5C7 1.08579 7.33577 0.75 7.75 0.75H10.75C12.4069 0.75 13.75 2.09314 13.75 3.75V5.25H17.1894L16.9697 5.03032C16.6768 4.73745 16.6768 4.26255 16.9697 3.96968C17.2626 3.67678 17.7374 3.67678 18.0303 3.96968L19.5303 5.46968C19.8232 5.76255 19.8232 6.23745 19.5303 6.53032L18.0303 8.03032C17.7374 8.32324 17.2626 8.32324 16.9697 8.03032C16.6768 7.73745 16.6768 7.26255 16.9697 6.96968L17.1894 6.75H13.75V8.25C13.75 9.90686 12.4069 11.25 10.75 11.25H3.25C1.59314 11.25 0.25 9.90686 0.25 8.25V3.75C0.25 2.09314 1.59314 0.75 3.25 0.75Z" fill="#828282"/>
<path d="M19.75 12.75C21.4069 12.75 22.75 14.0931 22.75 15.75V20.25C22.75 21.9069 21.4069 23.25 19.75 23.25H12.25C10.5931 23.25 9.25 21.9069 9.25 20.25V18.75H4.78032L5 18.9697C5.29291 19.2625 6.32324 19.7375 6.03032 20.0303C5.73745 20.3232 5.26255 20.3232 4.96967 20.0303L3.46967 18.5303C3.17678 18.2375 3.17678 17.7625 3.46967 17.4697L4.96967 15.9697C5.26255 15.6768 5.73745 15.6768 6.03032 15.9697C6.32324 16.2626 5.29291 16.7374 5 17.0303L4.78032 17.25H9.25V15.75C9.25 14.0931 10.5931 12.75 12.25 12.75H15.625C16.0392 12.75 16.375 13.0858 16.375 13.5C16.375 13.9142 16.0392 14.25 15.625 14.25H12.25C11.4216 14.25 10.75 14.9216 10.75 15.75V17.25H13C13.4142 17.25 13.75 17.5858 13.75 18C13.75 18.4142 13.4142 18.75 13 18.75H10.75V20.25C10.75 21.0784 11.4216 21.75 12.25 21.75H19.75C20.5784 21.75 21.25 21.0784 21.25 20.25V15.75C21.25 14.9216 20.5784 14.25 19.75 14.25H19.375C18.9608 14.25 18.625 13.9142 18.625 13.5C18.625 13.0858 18.9608 12.75 19.375 12.75H19.75Z" fill="#828282"/>
<path d="M9.5 6H18.5M17 4L19 6L17 8" stroke="#828282" stroke-width="1.5" stroke-linecap="round" stroke-linejoin="round"/>
<path d="M13 18H4M5.5 16L3.5 18L5.5 20" stroke="#828282" stroke-width="1.5" stroke-linecap="round" stroke-linejoin="round"/>
</svg>
