<svg width="226" height="38" viewBox="0 0 226 38" fill="none" xmlns="http://www.w3.org/2000/svg">
<mask id="mask0_2421_2962" style="mask-type:luminance" maskUnits="userSpaceOnUse" x="0" y="0" width="226" height="38">
<path d="M226 0H0V38H226V0Z" fill="white"/>
</mask>
<g mask="url(#mask0_2421_2962)">
<path d="M40.2822 9.21869H43.3814V30.9129H40.2822V9.21869ZM51.3773 20.0658L60.024 9.21869H64.0529L55.4061 20.0658L64.0529 30.9129H60.024L51.3773 20.0658ZM67.7631 9.21869H70.8623V30.9129H67.7631V9.21869ZM75.2085 13.0927C75.2085 11.915 75.5596 10.9749 76.2621 10.2724C76.9647 9.56993 77.9046 9.21869 79.0824 9.21869H92.8736C94.4646 9.21869 95.7456 9.41496 96.7166 9.80752C97.7083 10.1794 98.4625 10.665 98.9791 11.2641C99.5163 11.8426 99.8674 12.4831 100.033 13.1856C100.219 13.8674 100.312 14.5079 100.312 15.1072V15.603C100.312 16.2848 100.198 17.008 99.9708 17.7724C99.7435 18.5162 99.2993 19.1877 98.6381 19.7868C99.134 20.0967 99.5266 20.448 99.8158 20.8406C100.126 21.2331 100.363 21.636 100.529 22.0493C100.694 22.4625 100.797 22.886 100.839 23.3199C100.9 23.7538 100.932 24.1567 100.932 24.5285V24.9935C100.932 25.5926 100.849 26.2434 100.684 26.9459C100.518 27.6277 100.177 28.2682 99.6609 28.8675C99.1443 29.4459 98.3902 29.9314 97.3985 30.324C96.4274 30.7166 95.1257 30.9129 93.4935 30.9129H79.0824C77.9046 30.9129 76.9647 30.5616 76.2621 29.8592C75.5596 29.1567 75.2085 28.2166 75.2085 27.0389V13.0927ZM92.8427 28.0306C94.4749 28.0306 95.7249 27.7723 96.5927 27.2559C97.4604 26.7187 97.8944 25.9542 97.8944 24.9625V24.5285C97.8944 24.0327 97.8014 23.5988 97.6154 23.227C97.4294 22.855 97.1195 22.5452 96.6857 22.2972C96.2518 22.0286 95.6732 21.8323 94.9501 21.7083C94.2269 21.5637 93.3179 21.4914 92.2229 21.4914H90.7042V18.6091H92.2229C93.1939 18.6091 93.9997 18.5575 94.6402 18.4542C95.3013 18.3302 95.8179 18.1443 96.1898 17.8963C96.5823 17.6484 96.8613 17.3385 97.0265 16.9666C97.1918 16.574 97.2745 16.1092 97.2745 15.572V15.1381C97.2745 14.6009 97.1918 14.1463 97.0265 13.7745C96.8613 13.3819 96.5823 13.0616 96.1898 12.8137C95.8179 12.5658 95.3013 12.3901 94.6402 12.2869C93.9997 12.1629 93.1939 12.1009 92.2229 12.1009H80.0121C79.4956 12.1009 79.0824 12.2558 78.7725 12.5658C78.4626 12.8757 78.3075 13.2889 78.3075 13.8055V26.3261C78.3075 26.8427 78.4626 27.2559 78.7725 27.5658C79.0824 27.8757 79.4956 28.0306 80.0121 28.0306H92.8427ZM104.657 13.0927C104.657 11.915 105.008 10.9749 105.71 10.2724C106.413 9.56993 107.353 9.21869 108.531 9.21869H122.322C123.912 9.21869 125.194 9.41496 126.165 9.80752C127.156 10.1794 127.911 10.665 128.427 11.2641C128.964 11.8426 129.315 12.4831 129.481 13.1856C129.667 13.8674 129.76 14.5079 129.76 15.1072V15.603C129.76 16.2848 129.646 17.008 129.418 17.7724C129.192 18.5162 128.748 19.1877 128.086 19.7868C128.583 20.0967 128.974 20.448 129.264 20.8406C129.574 21.2331 129.811 21.636 129.977 22.0493C130.142 22.4625 130.245 22.886 130.286 23.3199C130.348 23.7538 130.38 24.1567 130.38 24.5285V24.9935C130.38 25.5926 130.297 26.2434 130.132 26.9459C129.967 27.6277 129.626 28.2682 129.109 28.8675C128.593 29.4459 127.838 29.9314 126.847 30.324C125.876 30.7166 124.574 30.9129 122.942 30.9129H108.531C107.353 30.9129 106.413 30.5616 105.71 29.8592C105.008 29.1567 104.657 28.2166 104.657 27.0389V13.0927ZM122.291 28.0306C123.923 28.0306 125.173 27.7723 126.041 27.2559C126.909 26.7187 127.343 25.9542 127.343 24.9625V24.5285C127.343 24.0327 127.25 23.5988 127.063 23.227C126.878 22.855 126.568 22.5452 126.134 22.2972C125.7 22.0286 125.122 21.8323 124.398 21.7083C123.675 21.5637 122.766 21.4914 121.671 21.4914H120.153V18.6091H121.671C122.642 18.6091 123.448 18.5575 124.089 18.4542C124.749 18.3302 125.266 18.1443 125.638 17.8963C126.031 17.6484 126.31 17.3385 126.475 16.9666C126.64 16.574 126.722 16.1092 126.722 15.572V15.1381C126.722 14.6009 126.64 14.1463 126.475 13.7745C126.31 13.3819 126.031 13.0616 125.638 12.8137C125.266 12.5658 124.749 12.3901 124.089 12.2869C123.448 12.1629 122.642 12.1009 121.671 12.1009H109.46C108.944 12.1009 108.531 12.2558 108.221 12.5658C107.911 12.8757 107.756 13.2889 107.756 13.8055V26.3261C107.756 26.8427 107.911 27.2559 108.221 27.5658C108.531 27.8757 108.944 28.0306 109.46 28.0306H122.291ZM134.105 9.21869H137.204V27.8137H156.202V30.9129H134.105V9.21869ZM159.922 9.21869H185.024V12.3179H159.922V9.21869ZM159.922 18.5162H185.024V21.6154H159.922V18.5162ZM159.922 27.8137H185.024V30.9129H159.922V27.8137Z" fill="#F7F7F7"/>
<path d="M40.2822 9.21869H43.3814V30.9129H40.2822V9.21869ZM51.3773 20.0658L60.024 9.21869H64.0529L55.4061 20.0658L64.0529 30.9129H60.024L51.3773 20.0658ZM67.7631 9.21869H70.8623V30.9129H67.7631V9.21869ZM75.2085 13.0927C75.2085 11.915 75.5596 10.9749 76.2621 10.2724C76.9647 9.56993 77.9046 9.21869 79.0824 9.21869H92.8736C94.4646 9.21869 95.7456 9.41496 96.7166 9.80752C97.7083 10.1794 98.4625 10.665 98.9791 11.2641C99.5163 11.8426 99.8674 12.4831 100.033 13.1856C100.219 13.8674 100.312 14.5079 100.312 15.1072V15.603C100.312 16.2848 100.198 17.008 99.9708 17.7724C99.7435 18.5162 99.2993 19.1877 98.6381 19.7868C99.134 20.0967 99.5266 20.448 99.8158 20.8406C100.126 21.2331 100.363 21.636 100.529 22.0493C100.694 22.4625 100.797 22.886 100.839 23.3199C100.9 23.7538 100.932 24.1567 100.932 24.5285V24.9935C100.932 25.5926 100.849 26.2434 100.684 26.9459C100.518 27.6277 100.177 28.2682 99.6609 28.8675C99.1443 29.4459 98.3902 29.9314 97.3985 30.324C96.4274 30.7166 95.1257 30.9129 93.4935 30.9129H79.0824C77.9046 30.9129 76.9647 30.5616 76.2621 29.8592C75.5596 29.1567 75.2085 28.2166 75.2085 27.0389V13.0927ZM92.8427 28.0306C94.4749 28.0306 95.7249 27.7723 96.5927 27.2559C97.4604 26.7187 97.8944 25.9542 97.8944 24.9625V24.5285C97.8944 24.0327 97.8014 23.5988 97.6154 23.227C97.4294 22.855 97.1195 22.5452 96.6857 22.2972C96.2518 22.0286 95.6732 21.8323 94.9501 21.7083C94.2269 21.5637 93.3179 21.4914 92.2229 21.4914H90.7042V18.6091H92.2229C93.1939 18.6091 93.9997 18.5575 94.6402 18.4542C95.3013 18.3302 95.8179 18.1443 96.1898 17.8963C96.5823 17.6484 96.8613 17.3385 97.0265 16.9666C97.1918 16.574 97.2745 16.1092 97.2745 15.572V15.1381C97.2745 14.6009 97.1918 14.1463 97.0265 13.7745C96.8613 13.3819 96.5823 13.0616 96.1898 12.8137C95.8179 12.5658 95.3013 12.3901 94.6402 12.2869C93.9997 12.1629 93.1939 12.1009 92.2229 12.1009H80.0121C79.4956 12.1009 79.0824 12.2558 78.7725 12.5658C78.4626 12.8757 78.3075 13.2889 78.3075 13.8055V26.3261C78.3075 26.8427 78.4626 27.2559 78.7725 27.5658C79.0824 27.8757 79.4956 28.0306 80.0121 28.0306H92.8427ZM104.657 13.0927C104.657 11.915 105.008 10.9749 105.71 10.2724C106.413 9.56993 107.353 9.21869 108.531 9.21869H122.322C123.912 9.21869 125.194 9.41496 126.165 9.80752C127.156 10.1794 127.911 10.665 128.427 11.2641C128.964 11.8426 129.315 12.4831 129.481 13.1856C129.667 13.8674 129.76 14.5079 129.76 15.1072V15.603C129.76 16.2848 129.646 17.008 129.418 17.7724C129.192 18.5162 128.748 19.1877 128.086 19.7868C128.583 20.0967 128.974 20.448 129.264 20.8406C129.574 21.2331 129.811 21.636 129.977 22.0493C130.142 22.4625 130.245 22.886 130.286 23.3199C130.348 23.7538 130.38 24.1567 130.38 24.5285V24.9935C130.38 25.5926 130.297 26.2434 130.132 26.9459C129.967 27.6277 129.626 28.2682 129.109 28.8675C128.593 29.4459 127.838 29.9314 126.847 30.324C125.876 30.7166 124.574 30.9129 122.942 30.9129H108.531C107.353 30.9129 106.413 30.5616 105.71 29.8592C105.008 29.1567 104.657 28.2166 104.657 27.0389V13.0927ZM122.291 28.0306C123.923 28.0306 125.173 27.7723 126.041 27.2559C126.909 26.7187 127.343 25.9542 127.343 24.9625V24.5285C127.343 24.0327 127.25 23.5988 127.063 23.227C126.878 22.855 126.568 22.5452 126.134 22.2972C125.7 22.0286 125.122 21.8323 124.398 21.7083C123.675 21.5637 122.766 21.4914 121.671 21.4914H120.153V18.6091H121.671C122.642 18.6091 123.448 18.5575 124.089 18.4542C124.749 18.3302 125.266 18.1443 125.638 17.8963C126.031 17.6484 126.31 17.3385 126.475 16.9666C126.64 16.574 126.722 16.1092 126.722 15.572V15.1381C126.722 14.6009 126.64 14.1463 126.475 13.7745C126.31 13.3819 126.031 13.0616 125.638 12.8137C125.266 12.5658 124.749 12.3901 124.089 12.2869C123.448 12.1629 122.642 12.1009 121.671 12.1009H109.46C108.944 12.1009 108.531 12.2558 108.221 12.5658C107.911 12.8757 107.756 13.2889 107.756 13.8055V26.3261C107.756 26.8427 107.911 27.2559 108.221 27.5658C108.531 27.8757 108.944 28.0306 109.46 28.0306H122.291ZM134.105 9.21869H137.204V27.8137H156.202V30.9129H134.105V9.21869ZM159.922 9.21869H185.024V12.3179H159.922V9.21869ZM159.922 18.5162H185.024V21.6154H159.922V18.5162ZM159.922 27.8137H185.024V30.9129H159.922V27.8137Z" fill="url(#paint0_linear_2421_2962)"/>
</g>
<defs>
<linearGradient id="paint0_linear_2421_2962" x1="40.2822" y1="20.0658" x2="185.024" y2="20.0658" gradientUnits="userSpaceOnUse">
<stop stop-color="#0387F5"/>
<stop offset="1" stop-color="#0ED4B9"/>
</linearGradient>
</defs>
</svg>
