<svg width="104" height="34" viewBox="0 0 104 34" fill="none" xmlns="http://www.w3.org/2000/svg">
<path d="M86.6433 16.9433L86.6205 21.848H96.2474V23.9011H83.8374V7.93237H96.1789V9.98549H86.6433V14.8902H96.1789V16.9433H86.6433Z" fill="#B5EBFF"/>
<path d="M82.7902 21.7339L82.7673 23.9011H75.1936V7.93237H78.1364L77.9995 21.7339H82.7902Z" fill="#B5EBFF"/>
<path d="M69.6326 15.3464C71.4576 15.3464 74.1723 16.1449 74.1723 19.4299C74.1723 22.5552 71.6857 23.9239 68.7885 23.9011H63.7698V7.93238H68.3779C71.2751 7.74988 73.8073 8.86769 73.8073 11.7649C73.8073 14.5708 71.4576 15.3008 69.6326 15.3008V15.3464ZM66.5757 14.3199H68.3779C69.9063 14.3199 71.0013 13.6355 71.0013 12.0158C71.0013 10.5102 69.9063 9.96269 68.3779 9.9855H66.5757V14.3199ZM66.5757 21.848H68.8113C70.4082 21.8708 71.3663 20.8442 71.3663 19.0877C71.3663 17.3539 69.9063 16.3502 68.3779 16.373H66.5757V21.848Z" fill="#B5EBFF"/>
<path d="M58.0035 15.3464C59.8285 15.3464 62.5432 16.1449 62.5432 19.4299C62.5432 22.5552 60.0567 23.9239 57.1595 23.9011H52.1407V7.93238H56.7489C59.646 7.74988 62.1782 8.86769 62.1782 11.7649C62.1782 14.5708 59.8285 15.3008 58.0035 15.3008V15.3464ZM54.9467 14.3199H56.7489C58.2773 14.3199 59.3723 13.6355 59.3723 12.0158C59.3723 10.5102 58.2773 9.96269 56.7489 9.9855H54.9467V14.3199ZM54.9467 21.848H57.1823C58.7792 21.8708 59.7373 20.8442 59.7373 19.0877C59.7373 17.3539 58.2773 16.3502 56.7489 16.373H54.9467V21.848Z" fill="#B5EBFF"/>
<path d="M50.4123 7.93237L50.4351 23.9011H47.6063V7.93237H50.4123Z" fill="#B5EBFF"/>
<path d="M38.7014 7.93237V15.8483L43.1042 7.93237H45.9102L41.6214 15.643H46.1383L42.2146 23.9011H39.4086L42.6708 17.4224H38.7243V23.9011H35.8955V7.93237H38.7014Z" fill="#B5EBFF"/>
<rect x="26.3748" y="20.663" width="4.15092" height="4.15092" rx="1.20758" fill="#B5EBFF"/>
<path d="M17.1405 8.1532H12.745C12.319 8.1532 11.9314 8.39937 11.7503 8.78492L4.95714 23.2479C4.61484 23.9766 5.14663 24.814 5.95179 24.814H10.4203C10.848 24.814 11.2367 24.5659 11.4169 24.1781L18.1371 9.71516C18.4755 8.98676 17.9437 8.1532 17.1405 8.1532Z" fill="#B5EBFF"/>
<path d="M26.2971 8.1532H30.6495C31.4518 8.1532 31.9836 8.98502 31.6469 9.71324L28.7923 15.8879C28.6126 16.2767 28.2232 16.5256 27.7949 16.5256H21.7238L24.9394 23.2404C25.2887 23.9698 24.7571 24.814 23.9483 24.814H19.561C19.1349 24.814 18.7473 24.5677 18.5662 24.182L15.7076 18.0914C15.3655 17.3627 15.8973 16.5256 16.7023 16.5256H21.7238L25.2996 8.79096C25.4794 8.40213 25.8687 8.1532 26.2971 8.1532Z" fill="#B5EBFF"/>
</svg>
