<svg width="24" height="24" viewBox="0 0 24 24" fill="none" xmlns="http://www.w3.org/2000/svg">
<path d="M12.0002 2.75C12.3302 2.75 12.6602 2.87001 12.9202 3.10001C13.8102 3.89001 15.2702 5.41999 16.2702 7.54999C16.4802 7.99999 16.6702 8.47 16.8302 8.97C16.9602 9.39 17.0702 9.80999 17.1602 10.24C17.6302 12.55 17.1102 14.94 16.3802 17.14C16.1002 18 15.8802 18.99 15.3702 19.75C15.3402 19.79 15.3202 19.83 15.3002 19.86C15.0302 20.22 14.6102 20.43 14.1602 20.43C14.1602 20.43 13.0802 20.43 12.0002 20.43C10.9202 20.43 9.84017 20.43 9.84017 20.43C9.39017 20.43 8.97019 20.22 8.70019 19.86C8.68019 19.82 8.66018 19.79 8.63018 19.75C8.12018 18.99 7.90017 18.01 7.62017 17.14C6.90017 14.94 6.37017 12.55 6.84017 10.24C6.93017 9.80999 7.04019 9.39 7.17019 8.97C7.33019 8.47 7.52019 7.99999 7.73019 7.54999C8.73019 5.41999 10.1902 3.90001 11.0802 3.10001C11.3402 2.87001 11.6702 2.75 12.0002 2.75Z" stroke="white" stroke-width="1.5" stroke-linecap="round" stroke-linejoin="round"/>
<path d="M15.3701 19.7516L17.1601 21.0716C17.4301 21.2716 17.7601 21.3116 18.0701 21.2016C18.2001 21.1416 18.3101 21.0716 18.4001 20.9816C18.5301 20.8516 18.6201 20.6916 18.6601 20.5016L19.3001 17.3316C19.3901 16.9016 19.2701 16.4816 19.0001 16.1516L17.2901 14.1616C17.3001 14.1416 17.3001 14.1216 17.3001 14.1016" stroke="white" stroke-width="1.5" stroke-linecap="round" stroke-linejoin="round"/>
<path d="M6.69972 14.1484L4.9897 16.1384C4.7197 16.4684 4.59971 16.8984 4.68971 17.3184L5.32969 20.4884C5.38969 20.8084 5.61972 21.0684 5.91972 21.1884C6.22972 21.2984 6.55969 21.2584 6.82969 21.0584L8.6197 19.7384" stroke="white" stroke-width="1.5" stroke-linecap="round" stroke-linejoin="round"/>
<path d="M11.9995 11.7881C13.093 11.7881 13.9795 10.9016 13.9795 9.80814C13.9795 8.71461 13.093 7.82812 11.9995 7.82812C10.906 7.82812 10.0195 8.71461 10.0195 9.80814C10.0195 10.9016 10.906 11.7881 11.9995 11.7881Z" stroke="white" stroke-width="1.5" stroke-linecap="round" stroke-linejoin="round"/>
<path d="M8.04004 16.7422H15.96" stroke="white" stroke-width="1.5" stroke-linecap="round" stroke-linejoin="round"/>
</svg>
