<svg width="16" height="16" viewBox="0 0 16 16" fill="none" xmlns="http://www.w3.org/2000/svg">
<g clip-path="url(#clip0_109_790)">
<path d="M13.1981 3.0962C12.2421 2.65752 11.2169 2.33432 10.1449 2.14921C10.1254 2.14564 10.1059 2.15457 10.0959 2.17243C9.96401 2.40694 9.81796 2.71287 9.71568 2.95334C8.56275 2.78073 7.41574 2.78073 6.28645 2.95334C6.18415 2.70753 6.0328 2.40694 5.90036 2.17243C5.8903 2.15517 5.8708 2.14624 5.85128 2.14921C4.77994 2.33373 3.75473 2.65693 2.79808 3.0962C2.7898 3.09977 2.7827 3.10572 2.77799 3.11346C0.83337 6.01868 0.300656 8.8525 0.561988 11.6512C0.56317 11.6649 0.570856 11.678 0.581499 11.6863C1.86451 12.6285 3.10732 13.2005 4.32705 13.5797C4.34657 13.5856 4.36725 13.5785 4.37968 13.5624C4.6682 13.1684 4.9254 12.7529 5.14592 12.316C5.15894 12.2904 5.14651 12.2601 5.11992 12.25C4.71196 12.0952 4.3235 11.9065 3.94983 11.6923C3.92027 11.675 3.91791 11.6327 3.9451 11.6125C4.02373 11.5536 4.10239 11.4922 4.17747 11.4303C4.19106 11.419 4.20999 11.4167 4.22596 11.4238C6.6808 12.5446 9.33846 12.5446 11.7643 11.4238C11.7803 11.4161 11.7992 11.4184 11.8134 11.4298C11.8885 11.4917 11.9672 11.5536 12.0464 11.6125C12.0736 11.6327 12.0718 11.675 12.0422 11.6923C11.6686 11.9107 11.2801 12.0952 10.8716 12.2494C10.845 12.2595 10.8331 12.2904 10.8462 12.316C11.0714 12.7523 11.3286 13.1678 11.6118 13.5618C11.6236 13.5785 11.6449 13.5856 11.6644 13.5797C12.8901 13.2005 14.1329 12.6285 15.4159 11.6863C15.4271 11.678 15.4342 11.6655 15.4354 11.6518C15.7482 8.41619 14.9116 5.60561 13.2176 3.11405C13.2135 3.10572 13.2064 3.09977 13.1981 3.0962ZM5.51251 9.94707C4.77344 9.94707 4.16446 9.26855 4.16446 8.43524C4.16446 7.60194 4.76163 6.92341 5.51251 6.92341C6.2693 6.92341 6.87238 7.6079 6.86055 8.43524C6.86055 9.26855 6.26338 9.94707 5.51251 9.94707ZM10.4967 9.94707C9.75766 9.94707 9.14868 9.26855 9.14868 8.43524C9.14868 7.60194 9.74583 6.92341 10.4967 6.92341C11.2535 6.92341 11.8566 7.6079 11.8448 8.43524C11.8448 9.26855 11.2535 9.94707 10.4967 9.94707Z" fill="white"/>
</g>
<defs>
<clipPath id="clip0_109_790">
<rect width="15" height="15" fill="white" transform="translate(0.5 0.5)"/>
</clipPath>
</defs>
</svg>
