<svg width="16" height="16" viewBox="0 0 16 16" fill="none" xmlns="http://www.w3.org/2000/svg">
<path fill-rule="evenodd" clip-rule="evenodd" d="M15.5 8C15.5 12.1421 12.1421 15.5 8 15.5C3.85786 15.5 0.5 12.1421 0.5 8C0.5 3.85786 3.85786 0.5 8 0.5C12.1421 0.5 15.5 3.85786 15.5 8ZM11.9037 6.90368C12.5089 6.90368 13.0002 7.39491 13.0002 8.00018C13.0002 8.44754 12.7282 8.83351 12.3686 9.00895C12.3861 9.11421 12.3949 9.21947 12.3949 9.33351C12.3949 11.0177 10.4388 12.3774 8.0177 12.3774C5.59665 12.3774 3.64051 11.0177 3.64051 9.33351C3.64051 9.21947 3.64928 9.10544 3.66682 9.00018C3.28086 8.82474 3.0177 8.44754 3.0177 8.00018C3.0177 7.39491 3.50893 6.90368 4.11419 6.90368C4.40367 6.90368 4.6756 7.02649 4.86858 7.2107C5.62296 6.65807 6.66682 6.31597 7.83349 6.28088L8.38612 3.66684C8.40367 3.61421 8.42998 3.57035 8.47384 3.54404C8.5177 3.51772 8.57033 3.50895 8.62296 3.51772L10.4388 3.90368C10.5616 3.64053 10.8247 3.46509 11.1317 3.46509C11.5616 3.46509 11.9124 3.81597 11.9124 4.24579C11.9124 4.67561 11.5616 5.02649 11.1317 5.02649C10.7107 5.02649 10.3686 4.69316 10.351 4.28088L8.72823 3.93877L8.22823 6.28088C9.36858 6.32474 10.4037 6.67561 11.1493 7.2107C11.3423 7.01772 11.6054 6.90368 11.9037 6.90368ZM6.28086 8.00018C5.85103 8.00018 5.50016 8.35105 5.50016 8.78088C5.50016 9.2107 5.85103 9.56158 6.28086 9.56158C6.71068 9.56158 7.06156 9.2107 7.06156 8.78088C7.06156 8.35105 6.71068 8.00018 6.28086 8.00018ZM8.00893 11.4125C8.30718 11.4125 9.32472 11.3774 9.85981 10.8423C9.93876 10.7633 9.93876 10.6405 9.87735 10.5528C9.7984 10.4739 9.66683 10.4739 9.58788 10.5528C9.24577 10.8861 8.53525 11.0089 8.0177 11.0089C7.50016 11.0089 6.78086 10.8861 6.44753 10.5528C6.36858 10.4739 6.237 10.4739 6.15805 10.5528C6.0791 10.6318 6.0791 10.7633 6.15805 10.8423C6.68437 11.3686 7.71068 11.4125 8.00893 11.4125ZM8.93876 8.78088C8.93876 9.2107 9.28963 9.56158 9.71946 9.56158C10.1493 9.56158 10.5002 9.2107 10.5002 8.78088C10.5002 8.35105 10.1493 8.00018 9.71946 8.00018C9.28963 8.00018 8.93876 8.35105 8.93876 8.78088Z" fill="white"/>
</svg>
