<svg width="16" height="16" viewBox="0 0 16 16" fill="none" xmlns="http://www.w3.org/2000/svg">
<g clip-path="url(#clip0_109_792)">
<path fill-rule="evenodd" clip-rule="evenodd" d="M15.5 8C15.5 12.1421 12.1421 15.5 8 15.5C3.85786 15.5 0.5 12.1421 0.5 8C0.5 3.85786 3.85786 0.5 8 0.5C12.1421 0.5 15.5 3.85786 15.5 8ZM8.26884 6.0366C7.53936 6.34002 6.08141 6.96802 3.89501 7.9206C3.53997 8.06178 3.35399 8.19991 3.33706 8.33496C3.30844 8.56321 3.59427 8.65308 3.9835 8.77547C4.03644 8.79212 4.0913 8.80937 4.14754 8.82765C4.53047 8.95213 5.04559 9.09776 5.31338 9.10354C5.55629 9.10879 5.82741 9.00865 6.12673 8.80311C8.16955 7.42415 9.22406 6.72715 9.29027 6.71213C9.33698 6.70153 9.4017 6.6882 9.44555 6.72718C9.48941 6.76615 9.4851 6.83997 9.48045 6.85977C9.45214 6.98048 8.33015 8.02358 7.74953 8.56338C7.56852 8.73167 7.44012 8.85103 7.41388 8.87829C7.35508 8.93936 7.29515 8.99713 7.23756 9.05265C6.8818 9.3956 6.61502 9.65279 7.25233 10.0728C7.5586 10.2746 7.80367 10.4415 8.04816 10.608C8.31518 10.7898 8.5815 10.9712 8.92608 11.1971C9.01387 11.2546 9.09772 11.3144 9.17938 11.3726C9.49012 11.5941 9.76929 11.7932 10.1142 11.7614C10.3146 11.743 10.5216 11.5545 10.6267 10.9925C10.8752 9.66424 11.3636 6.78631 11.4765 5.60038C11.4864 5.49648 11.4739 5.3635 11.4639 5.30513C11.4539 5.24676 11.4331 5.16359 11.3572 5.10202C11.2673 5.02911 11.1286 5.01373 11.0666 5.01482C10.7845 5.01979 10.3517 5.17028 8.26884 6.0366Z" fill="white"/>
</g>
<defs>
<clipPath id="clip0_109_792">
<rect width="15" height="15" fill="white" transform="translate(0.5 0.5)"/>
</clipPath>
</defs>
</svg>
