<svg width="16" height="16" viewBox="0 0 16 16" fill="none" xmlns="http://www.w3.org/2000/svg">
<g clip-path="url(#clip0_109_786)">
<path d="M5.21885 14.0932C10.8778 14.0932 13.9739 9.40367 13.9739 5.33814C13.9739 5.20631 13.971 5.07154 13.9651 4.93971C14.5674 4.50414 15.0872 3.96464 15.5 3.34654C14.9391 3.59611 14.3435 3.75909 13.7337 3.82994C14.3758 3.44505 14.8566 2.8404 15.0869 2.12809C14.4828 2.48608 13.8222 2.73861 13.1334 2.87486C12.6693 2.38171 12.0556 2.05518 11.3873 1.94576C10.719 1.83635 10.0332 1.95014 9.43609 2.26954C8.83893 2.58895 8.36363 3.09617 8.08365 3.7128C7.80368 4.32943 7.73464 5.02112 7.88721 5.68092C6.66406 5.61954 5.46746 5.3018 4.37499 4.74829C3.28252 4.19479 2.31856 3.41788 1.54561 2.46793C1.15275 3.14526 1.03254 3.94676 1.20939 4.70954C1.38625 5.47232 1.84691 6.13914 2.49775 6.57447C2.00914 6.55896 1.53123 6.42741 1.10352 6.19068V6.22877C1.10308 6.93957 1.34881 7.6286 1.79894 8.17871C2.24908 8.72883 2.87583 9.10608 3.57266 9.24635C3.12003 9.37019 2.64499 9.38823 2.18428 9.29908C2.38091 9.91038 2.76348 10.445 3.27861 10.8284C3.79373 11.2118 4.4157 11.4249 5.05771 11.4378C3.96777 12.2939 2.62136 12.7583 1.23535 12.7561C0.989554 12.7557 0.743999 12.7407 0.5 12.711C1.90804 13.6143 3.54596 14.0941 5.21885 14.0932Z" fill="white"/>
</g>
<defs>
<clipPath id="clip0_109_786">
<rect width="15" height="15" fill="white" transform="translate(0.5 0.5)"/>
</clipPath>
</defs>
</svg>
