<svg width="16" height="16" viewBox="0 0 16 16" fill="none" xmlns="http://www.w3.org/2000/svg">
<g clip-path="url(#clip0_109_794)">
<path d="M15.3506 5C15.3506 5 15.2041 3.96582 14.7529 3.51172C14.1816 2.91406 13.543 2.91113 13.25 2.87598C11.1523 2.72363 8.00293 2.72363 8.00293 2.72363H7.99707C7.99707 2.72363 4.84766 2.72363 2.75 2.87598C2.45703 2.91113 1.81836 2.91406 1.24707 3.51172C0.795898 3.96582 0.652344 5 0.652344 5C0.652344 5 0.5 6.21582 0.5 7.42871V8.56543C0.5 9.77832 0.649414 10.9941 0.649414 10.9941C0.649414 10.9941 0.795898 12.0283 1.24414 12.4824C1.81543 13.0801 2.56543 13.0596 2.89941 13.124C4.10059 13.2383 8 13.2734 8 13.2734C8 13.2734 11.1523 13.2676 13.25 13.1182C13.543 13.083 14.1816 13.0801 14.7529 12.4824C15.2041 12.0283 15.3506 10.9941 15.3506 10.9941C15.3506 10.9941 15.5 9.78125 15.5 8.56543V7.42871C15.5 6.21582 15.3506 5 15.3506 5ZM6.4502 9.94531V5.72949L10.502 7.84473L6.4502 9.94531Z" fill="white"/>
</g>
<defs>
<clipPath id="clip0_109_794">
<rect width="15" height="15" fill="white" transform="translate(0.5 0.5)"/>
</clipPath>
</defs>
</svg>
