<svg width="12" height="13" viewBox="0 0 12 13" fill="none" xmlns="http://www.w3.org/2000/svg">
<g id="Activity">
<path id="Activity_2" fill-rule="evenodd" clip-rule="evenodd" d="M10.511 3.69318C11.1174 3.69318 11.6641 3.32838 11.8957 2.76911C12.1273 2.20984 11.9982 1.56641 11.5686 1.13925C11.139 0.71208 10.4938 0.585432 9.93404 0.818434C9.37432 1.05144 9.01058 1.59813 9.01265 2.20326C9.01545 3.02694 9.68545 3.69319 10.511 3.69318ZM10.5113 1.55909C10.8688 1.55909 11.1586 1.84822 11.1586 2.20489C11.1586 2.56156 10.8688 2.85069 10.5113 2.85069C10.1539 2.85069 9.86409 2.56156 9.86409 2.20489C9.86409 1.84822 10.1539 1.55909 10.5113 1.55909ZM1.32764 8.77458C1.32764 10.4628 2.26027 11.3883 3.94714 11.3883C4.18242 11.3911 4.37248 11.5807 4.37523 11.8155C4.37244 12.0494 4.18159 12.2375 3.94714 12.2375C1.8067 12.2375 0.476562 10.9103 0.476562 8.77458V4.62009C0.476562 2.47928 1.8067 1.15208 3.94714 1.15208H7.69802C7.93245 1.15487 8.12103 1.34529 8.12101 1.57923C8.12102 1.69205 8.07575 1.80018 7.99532 1.87948C7.91489 1.95878 7.80599 2.00264 7.69292 2.00129H3.94714C2.26027 2.00129 1.32764 2.93185 1.32764 4.62009V8.77458ZM7.3203 7.66567C7.24891 7.7536 7.14708 7.81166 7.03491 7.82839C6.92326 7.83971 6.81163 7.80684 6.72403 7.73686L5.15947 6.51136L3.75289 8.33689C3.68582 8.42794 3.58496 8.48835 3.47289 8.5046C3.36081 8.52085 3.24689 8.49158 3.15662 8.42334C2.97241 8.27923 2.93835 8.0142 3.08018 7.82839L4.74667 5.66215C4.81619 5.57234 4.91867 5.51382 5.03149 5.49951C5.14431 5.4852 5.2582 5.51628 5.34803 5.58588L6.9126 6.81138L8.2886 5.05703C8.43964 4.91374 8.67277 4.90157 8.83797 5.02836C9.00316 5.15516 9.05118 5.38312 8.95112 5.56554L7.3203 7.66567ZM11.1788 4.62098C10.9452 4.62098 10.7558 4.80994 10.7558 5.04304V8.77547C10.7405 10.4637 9.80789 11.3892 8.12101 11.3892H6.41885C6.18357 11.3919 5.99351 11.5816 5.99076 11.8163C5.99355 12.0503 6.1844 12.2384 6.41885 12.2384H8.12101C10.2615 12.2384 11.5967 10.9112 11.5967 8.77547V5.04304C11.5967 4.81191 11.4104 4.62376 11.1788 4.62098Z" fill="#F7F7F8"/>
</g>
</svg>
