<svg width="11" height="11" viewBox="0 0 11 11" fill="none" xmlns="http://www.w3.org/2000/svg">
<g id="Activity">
<path id="Activity_2" fill-rule="evenodd" clip-rule="evenodd" d="M9.15832 3.03956C9.70414 3.03956 10.1961 2.71124 10.4046 2.2079C10.613 1.70455 10.4968 1.12547 10.1102 0.74102C9.72359 0.35657 9.14283 0.242587 8.63909 0.452288C8.13535 0.66199 7.80798 1.15401 7.80984 1.69863C7.81236 2.43995 8.41536 3.03957 9.15832 3.03956ZM9.15811 1.11724C9.47982 1.11724 9.74062 1.37746 9.74062 1.69846C9.74062 2.01946 9.47982 2.27968 9.15811 2.27968C8.8364 2.27968 8.57561 2.01946 8.57561 1.69846C8.57561 1.37746 8.8364 1.11724 9.15811 1.11724ZM0.892927 7.61156C0.892927 9.13097 1.73229 9.96391 3.25047 9.96391C3.46222 9.96638 3.63328 10.1371 3.63575 10.3483C3.63324 10.5589 3.46148 10.7282 3.25047 10.7282C1.32407 10.7282 0.126953 9.53371 0.126953 7.61156V3.87252C0.126953 1.94579 1.32407 0.751306 3.25047 0.751306H6.62626C6.83725 0.753812 7.00697 0.925195 7.00696 1.13574C7.00696 1.23728 6.96623 1.33459 6.89384 1.40596C6.82145 1.47733 6.72343 1.51681 6.62168 1.51559H3.25047C1.73229 1.51559 0.892927 2.3531 0.892927 3.87252V7.61156ZM6.28686 6.61391C6.2226 6.69306 6.13096 6.74531 6.03 6.76036C5.92952 6.77056 5.82905 6.74097 5.75022 6.67798L4.34211 5.57504L3.07619 7.21802C3.01582 7.29996 2.92505 7.35433 2.82418 7.36896C2.72332 7.38358 2.62079 7.35723 2.53955 7.29582C2.37375 7.16612 2.3431 6.9276 2.47075 6.76036L3.97059 4.81075C4.03315 4.72992 4.12539 4.67725 4.22693 4.66437C4.32847 4.6515 4.43097 4.67946 4.51181 4.7421L5.91992 5.84505L7.15832 4.26614C7.29426 4.13718 7.50408 4.12623 7.65276 4.24034C7.80143 4.35445 7.84465 4.55962 7.75459 4.7238L6.28686 6.61391ZM9.75896 3.87255C9.54871 3.87255 9.37827 4.04262 9.37827 4.25241V7.6116C9.3645 9.13101 8.52514 9.96395 7.00696 9.96395H5.47501C5.26326 9.96642 5.09221 10.1371 5.08973 10.3484C5.09224 10.5589 5.264 10.7282 5.47501 10.7282H7.00696C8.93336 10.7282 10.1351 9.53375 10.1351 7.6116V4.25241C10.1351 4.04439 9.96741 3.87506 9.75896 3.87255Z" fill="#92929E"/>
</g>
</svg>
