<svg width="11" height="12" viewBox="0 0 11 12" fill="none" xmlns="http://www.w3.org/2000/svg">
<g id="Activity">
<path id="Activity_2" fill-rule="evenodd" clip-rule="evenodd" d="M9.50842 3.53261C10.0542 3.5326 10.5462 3.20428 10.7547 2.70094C10.9631 2.1976 10.8469 1.61851 10.4603 1.23406C10.0737 0.849612 9.49293 0.735629 8.98919 0.94533C8.48545 1.15503 8.15808 1.64706 8.15993 2.19167C8.16246 2.93299 8.76546 3.53261 9.50842 3.53261ZM9.50812 1.61028C9.82983 1.61028 10.0906 1.8705 10.0906 2.1915C10.0906 2.5125 9.82983 2.77272 9.50812 2.77272C9.18641 2.77272 8.92561 2.5125 8.92561 2.1915C8.92561 1.8705 9.18641 1.61028 9.50812 1.61028ZM1.24302 8.10447C1.24302 9.62389 2.08238 10.4568 3.60057 10.4568C3.81232 10.4593 3.98338 10.63 3.98585 10.8413C3.98334 11.0518 3.81158 11.2211 3.60057 11.2211C1.67417 11.2211 0.477051 10.0266 0.477051 8.10447V4.36543C0.477051 2.4387 1.67417 1.24422 3.60057 1.24422H6.97636C7.18735 1.24673 7.35707 1.41811 7.35705 1.62865C7.35706 1.73019 7.31632 1.82751 7.24393 1.89888C7.17155 1.97025 7.07353 2.00973 6.97177 2.00851H3.60057C2.08238 2.00851 1.24302 2.84601 1.24302 4.36543V8.10447ZM6.63692 7.10696C6.57267 7.1861 6.48103 7.23835 6.38007 7.2534C6.27959 7.2636 6.17912 7.23401 6.10028 7.17103L4.69217 6.06808L3.42625 7.71106C3.36589 7.793 3.27511 7.84737 3.17425 7.862C3.07338 7.87662 2.97085 7.85028 2.88961 7.78886C2.72382 7.65916 2.69317 7.42064 2.82081 7.2534L4.32065 5.30379C4.38322 5.22296 4.47545 5.1703 4.57699 5.15742C4.67853 5.14454 4.78104 5.1725 4.86188 5.23514L6.26999 6.33809L7.50839 4.75918C7.64432 4.63022 7.85415 4.61927 8.00282 4.73338C8.1515 4.8475 8.19471 5.05266 8.10466 5.21684L6.63692 7.10696ZM10.1091 4.36547C9.8988 4.36547 9.72836 4.53553 9.72836 4.74532V8.10451C9.7146 9.62393 8.87524 10.4569 7.35705 10.4569H5.82511C5.61336 10.4593 5.4423 10.63 5.43983 10.8413C5.44234 11.0518 5.6141 11.2212 5.82511 11.2211H7.35705C9.28345 11.2211 10.4852 10.0267 10.4852 8.10451V4.74532C10.4852 4.53731 10.3175 4.36797 10.1091 4.36547Z" fill="#4D4D57"/>
</g>
</svg>
