<svg width="10" height="12" viewBox="0 0 10 12" fill="none" xmlns="http://www.w3.org/2000/svg">
<path fill-rule="evenodd" clip-rule="evenodd" d="M3.13962 0.806641H7.14385C8.81152 0.806641 9.81032 1.8194 9.81484 3.51039V8.48255C9.81484 10.1735 8.82056 11.1863 7.14837 11.1863H5.66599C5.47588 11.165 5.33199 11.0022 5.33199 10.8082C5.33199 10.6143 5.47588 10.4514 5.66599 10.4302H7.14385C8.41833 10.4302 9.06009 9.77485 9.06009 8.48255V3.51039C9.06009 2.21809 8.41833 1.56277 7.14385 1.56277H3.13962C1.86513 1.56277 1.21885 2.21809 1.21885 3.51039V8.48255C1.21885 9.77485 1.86513 10.4302 3.13962 10.4302C3.32973 10.4514 3.47362 10.6143 3.47362 10.8082C3.47362 11.0022 3.32973 11.165 3.13962 11.1863C1.47194 11.1863 0.473145 10.1735 0.473145 8.48255V3.51039C0.473145 1.81482 1.47194 0.806641 3.13962 0.806641ZM3.2708 4.17898H4.69442C4.88453 4.15772 5.02842 3.99484 5.02842 3.80091C5.02842 3.60698 4.88453 3.4441 4.69442 3.42284H3.2708C3.08069 3.4441 2.93679 3.60698 2.93679 3.80091C2.93679 3.99484 3.08069 4.15772 3.2708 4.17898ZM7.00834 6.37479H3.27075H3.26623C3.07613 6.35354 2.93223 6.19066 2.93223 5.99672C2.93223 5.80279 3.07613 5.63991 3.26623 5.61866H7.00834C7.15135 5.60267 7.29078 5.67103 7.36722 5.79462C7.44368 5.9182 7.44368 6.07524 7.36722 6.19883C7.29078 6.32242 7.15135 6.39078 7.00834 6.37479ZM7.00844 8.56953H3.27086H3.26634C3.06166 8.56953 2.89574 8.40129 2.89574 8.19376C2.89574 7.98622 3.06166 7.81798 3.26634 7.81798H7.00844C7.21311 7.81798 7.37903 7.98622 7.37903 8.19376C7.37903 8.40129 7.21311 8.56953 7.00844 8.56953Z" fill="#F7F7F8"/>
</svg>
