<svg width="12" height="13" viewBox="0 0 12 13" fill="none" xmlns="http://www.w3.org/2000/svg">
<g id="Setting">
<path id="Setting_2" fill-rule="evenodd" clip-rule="evenodd" d="M4.3168 3.52179C3.84208 3.78491 3.25976 3.78113 2.78866 3.51187L2.76791 3.49161C2.55593 3.36294 2.49091 3.09081 2.62268 2.88381C2.75445 2.67681 3.03311 2.61332 3.24509 2.74199C3.33971 2.79591 3.44678 2.82553 3.5563 2.8281C3.72416 2.83495 3.88792 2.77634 4.01149 2.66518C4.13505 2.55401 4.20828 2.39943 4.21501 2.2355C4.21182 1.41182 4.88126 0.735642 5.72436 0.710938H6.43494C7.29431 0.710938 7.99097 1.39124 7.99097 2.23043C7.98957 2.33725 8.01828 2.44238 8.07396 2.53433C8.15657 2.67669 8.29405 2.78087 8.45577 2.82368C8.61749 2.86649 8.79003 2.84438 8.93496 2.76225C9.66513 2.37409 10.5788 2.61499 11.0097 3.30927C11.1287 3.52115 11.0555 3.78703 10.8437 3.912C10.6284 4.03201 10.3544 3.96231 10.2265 3.75499C10.0507 3.46263 9.66647 3.36318 9.36546 3.53213C8.88916 3.78682 8.31134 3.7806 7.8409 3.51572C7.37046 3.25085 7.07546 2.76563 7.06254 2.2355C7.06816 2.06947 7.00453 1.90833 6.88622 1.78898C6.76791 1.66963 6.60505 1.60228 6.43494 1.60237H5.72436C5.5538 1.60232 5.39045 1.66951 5.27132 1.7887C5.15219 1.90789 5.08738 2.069 5.09158 2.2355C5.08677 2.76852 4.79153 3.25868 4.3168 3.52179ZM5.09099 10.7394C5.09384 11.0787 5.37632 11.3523 5.72378 11.3523L5.71859 11.3624C5.87981 11.3624 6.02877 11.4464 6.10938 11.5827C6.18999 11.7191 6.18999 11.8871 6.10938 12.0234C6.02877 12.1597 5.87981 12.2437 5.71859 12.2437C4.85922 12.2437 4.16256 11.5634 4.16256 10.7242C4.16396 10.6174 4.13525 10.5123 4.07958 10.4203C3.90555 10.1261 3.52094 10.0243 3.21858 10.1924C2.48841 10.5806 1.57475 10.3397 1.14387 9.64538L0.791175 9.04265C0.393683 8.32963 0.640369 7.43742 1.35134 7.01666C1.44558 6.96252 1.52412 6.88582 1.57956 6.7938C1.68358 6.65221 1.72097 6.47408 1.68236 6.30395C1.64376 6.13382 1.53281 5.98778 1.37728 5.90236C0.666303 5.4816 0.419616 4.5894 0.817109 3.87637C0.883619 3.77873 0.987239 3.71101 1.10503 3.6882C1.22282 3.66538 1.34507 3.68936 1.44471 3.75481C1.64153 3.88551 1.6986 4.14409 1.57437 4.34235C1.4027 4.63609 1.50716 5.01011 1.80778 5.17807C2.03364 5.31322 2.21955 5.5035 2.3472 5.73015C2.74469 6.44318 2.49801 7.33538 1.78703 7.75615C1.48641 7.92411 1.38196 8.29813 1.55363 8.59187L1.91151 9.1946C1.99295 9.33823 2.13085 9.44321 2.29336 9.48527C2.45587 9.52734 2.62892 9.50285 2.77251 9.41746C3.00405 9.28632 3.26731 9.21811 3.53497 9.21993C4.39434 9.21993 5.09099 9.90023 5.09099 10.7394ZM10.8015 7.0118C10.6566 6.93027 10.551 6.79565 10.5081 6.63779C10.4653 6.47994 10.4887 6.31192 10.5733 6.17101C10.6287 6.07899 10.7072 6.00229 10.8015 5.94815C11.0143 5.82327 11.0839 5.55392 10.9571 5.34542C10.8311 5.13961 10.5621 5.06616 10.345 5.17827C9.63406 5.59904 9.38737 6.49124 9.78487 7.20427C9.91113 7.45336 10.1072 7.66237 10.3502 7.807C10.4948 7.88754 10.6003 8.02126 10.6431 8.17829C10.686 8.33533 10.6627 8.50259 10.5784 8.64272L10.2257 9.24545C10.1408 9.38651 10.0033 9.48997 9.84192 9.53416C9.68029 9.57626 9.50809 9.5525 9.36474 9.46831C8.88763 9.21325 8.30877 9.21998 7.83802 9.48606C7.36726 9.75215 7.07296 10.239 7.06182 10.77C7.08665 10.9965 7.28239 11.1683 7.51566 11.1683C7.74894 11.1683 7.94467 10.9965 7.9695 10.77C7.96521 10.5487 8.08445 10.3426 8.28077 10.232C8.47709 10.1214 8.71946 10.1238 8.91349 10.2382C9.64366 10.6263 10.5573 10.3855 10.9882 9.69117L11.3409 9.08844C11.7764 8.36914 11.5354 7.44141 10.8015 7.0118ZM6.07512 4.5793C5.28586 4.5793 4.57442 5.04385 4.27287 5.75611C3.97132 6.46837 4.13912 7.2879 4.69796 7.83216C5.25679 8.37643 6.09646 8.53811 6.82504 8.24174C7.55362 7.94538 8.02744 7.2494 8.02534 6.47867C8.02535 5.97405 7.81971 5.49017 7.45382 5.13382C7.08794 4.77747 6.59188 4.57796 6.07512 4.5793ZM6.07448 7.49729C5.50157 7.49729 5.03713 7.04376 5.03713 6.48429C5.03713 5.92483 5.50157 5.4713 6.07448 5.4713C6.64739 5.4713 7.11183 5.92483 7.11183 6.48429C7.11183 7.04376 6.64739 7.49729 6.07448 7.49729Z" fill="#F7F7F8"/>
</g>
</svg>
