<svg width="11" height="12" viewBox="0 0 11 12" fill="none" xmlns="http://www.w3.org/2000/svg">
<g id="Setting">
<path id="Setting_2" fill-rule="evenodd" clip-rule="evenodd" d="M3.93501 3.37132C3.50775 3.60812 2.98367 3.60472 2.55968 3.36239L2.541 3.34416C2.35022 3.22835 2.2917 2.98344 2.4103 2.79714C2.52889 2.61084 2.77969 2.5537 2.97047 2.6695C3.05562 2.71803 3.15198 2.74469 3.25055 2.747C3.40163 2.75317 3.54901 2.70042 3.66022 2.60037C3.77143 2.50032 3.83733 2.36119 3.8434 2.21366C3.84052 1.47235 4.44301 0.863787 5.20181 0.841553H5.84133C6.61477 0.841553 7.24176 1.45382 7.24176 2.2091C7.2405 2.30523 7.26634 2.39985 7.31645 2.48261C7.3908 2.61073 7.51453 2.70449 7.66008 2.74302C7.80563 2.78155 7.96091 2.76165 8.09135 2.68774C8.7485 2.33839 9.57079 2.5552 9.95858 3.18005C10.0658 3.37074 9.99986 3.61004 9.8092 3.72251C9.61546 3.83052 9.36885 3.76779 9.2537 3.5812C9.09548 3.31807 8.74971 3.22857 8.4788 3.38063C8.05012 3.60985 7.53009 3.60425 7.10669 3.36586C6.68329 3.12747 6.41779 2.69078 6.40617 2.21366C6.41123 2.06424 6.35396 1.91921 6.24748 1.81179C6.141 1.70437 5.99443 1.64376 5.84133 1.64385H5.20181C5.04831 1.6438 4.90129 1.70427 4.79407 1.81154C4.68686 1.91881 4.62853 2.0638 4.6323 2.21366C4.62797 2.69338 4.36226 3.13452 3.93501 3.37132ZM4.63228 9.86744C4.63485 10.1728 4.88907 10.419 5.20179 10.419L5.19712 10.4281C5.34222 10.4281 5.47629 10.5037 5.54883 10.6264C5.62138 10.7491 5.62138 10.9003 5.54883 11.023C5.47629 11.1457 5.34222 11.2213 5.19712 11.2213C4.42369 11.2213 3.7967 10.609 3.7967 9.85376C3.79796 9.75763 3.77212 9.66301 3.72201 9.58026C3.56538 9.31547 3.21923 9.22384 2.94711 9.37512C2.28996 9.72447 1.46767 9.50766 1.07988 8.88281L0.762448 8.34035C0.404705 7.69863 0.626723 6.89564 1.2666 6.51696C1.35141 6.46823 1.4221 6.3992 1.472 6.31638C1.56562 6.18895 1.59926 6.02864 1.56452 5.87552C1.52977 5.7224 1.42992 5.59097 1.28994 5.51409C0.650063 5.1354 0.428045 4.33242 0.785789 3.6907C0.845648 3.60282 0.938906 3.54187 1.04492 3.52134C1.15093 3.5008 1.26095 3.52238 1.35063 3.58129C1.52777 3.69892 1.57913 3.93164 1.46733 4.11008C1.31282 4.37445 1.40684 4.71106 1.67739 4.86223C1.88066 4.98386 2.04798 5.15511 2.16287 5.3591C2.52061 6.00082 2.2986 6.80381 1.65872 7.18249C1.38816 7.33366 1.29415 7.67028 1.44866 7.93464L1.77075 8.4771C1.84404 8.60637 1.96816 8.70085 2.11442 8.73871C2.26067 8.77657 2.41642 8.75452 2.54565 8.67768C2.75403 8.55965 2.99097 8.49827 3.23186 8.4999C4.00529 8.4999 4.63228 9.11217 4.63228 9.86744ZM9.77184 6.51233C9.64143 6.43895 9.5464 6.31779 9.50784 6.17572C9.46928 6.03366 9.49037 5.88244 9.56644 5.75562C9.61634 5.6728 9.68703 5.60377 9.77184 5.55505C9.96342 5.44265 10.026 5.20023 9.91188 5.01259C9.79847 4.82736 9.55641 4.76125 9.36105 4.86216C8.72117 5.24084 8.49915 6.04383 8.8569 6.68555C8.97053 6.90974 9.14697 7.09784 9.36572 7.22801C9.49581 7.3005 9.59076 7.42085 9.62935 7.56217C9.66794 7.7035 9.64697 7.85404 9.57111 7.98016L9.25368 8.52262C9.17725 8.64956 9.05345 8.74268 8.90825 8.78245C8.76278 8.82034 8.6078 8.79896 8.47878 8.72319C8.04939 8.49363 7.52841 8.49969 7.10473 8.73917C6.68105 8.97865 6.41619 9.41678 6.40616 9.89472C6.4285 10.0986 6.60467 10.2532 6.81461 10.2532C7.02456 10.2532 7.20072 10.0986 7.22307 9.89472C7.21921 9.69556 7.32652 9.51009 7.50321 9.41055C7.6799 9.31101 7.89803 9.31313 8.07266 9.41608C8.72981 9.76542 9.5521 9.54862 9.93989 8.92376L10.2573 8.3813C10.6493 7.73393 10.4324 6.89898 9.77184 6.51233ZM5.51922 4.31961C4.80889 4.31961 4.16859 4.7377 3.89719 5.37874C3.62579 6.01977 3.77682 6.75735 4.27977 7.24718C4.78272 7.73702 5.53843 7.88253 6.19415 7.6158C6.84987 7.34907 7.27631 6.72269 7.27442 6.02904C7.27442 5.57488 7.08935 5.13939 6.76005 4.81867C6.43075 4.49796 5.9843 4.3184 5.51922 4.31961ZM5.51919 6.94518C5.00357 6.94518 4.58558 6.537 4.58558 6.03348C4.58558 5.52997 5.00357 5.12179 5.51919 5.12179C6.03481 5.12179 6.45281 5.52997 6.45281 6.03348C6.45281 6.537 6.03481 6.94518 5.51919 6.94518Z" fill="#4D4D57"/>
</g>
</svg>
