<svg width="11" height="11" viewBox="0 0 11 11" fill="none" xmlns="http://www.w3.org/2000/svg">
<g id="Setting">
<path id="Setting_2" fill-rule="evenodd" clip-rule="evenodd" d="M3.58489 2.87828C3.15764 3.11508 2.63356 3.11168 2.20956 2.86935L2.19089 2.85112C2.00011 2.73531 1.94159 2.4904 2.06018 2.3041C2.17878 2.1178 2.42957 2.06065 2.62035 2.17646C2.70551 2.22499 2.80187 2.25165 2.90044 2.25396C3.05151 2.26013 3.1989 2.20737 3.31011 2.10733C3.42132 2.00728 3.48722 1.86815 3.49328 1.72061C3.49041 0.979307 4.0929 0.370745 4.85169 0.348511H5.49122C6.26465 0.348511 6.89164 0.960781 6.89164 1.71606C6.89039 1.81219 6.91622 1.90681 6.96633 1.98956C7.04068 2.11768 7.16441 2.21145 7.30996 2.24998C7.45551 2.28851 7.6108 2.26861 7.74123 2.1947C8.39838 1.84535 9.22067 2.06216 9.60846 2.68701C9.71564 2.8777 9.64974 3.11699 9.45909 3.22947C9.26534 3.33748 9.01874 3.27475 8.90358 3.08816C8.74537 2.82503 8.39959 2.73553 8.12868 2.88758C7.70001 3.1168 7.17997 3.11121 6.75658 2.87282C6.33318 2.63443 6.06768 2.19774 6.05606 1.72061C6.06112 1.57119 6.00385 1.42617 5.89737 1.31875C5.79089 1.21133 5.64432 1.15072 5.49122 1.1508H4.85169C4.69819 1.15076 4.55117 1.21122 4.44396 1.3185C4.33674 1.42577 4.27841 1.57076 4.28219 1.72061C4.27786 2.20034 4.01215 2.64148 3.58489 2.87828ZM4.28219 9.37427C4.28475 9.67963 4.53898 9.92586 4.85169 9.92585L4.84702 9.93496C4.99212 9.93496 5.12619 10.0106 5.19874 10.1333C5.27128 10.256 5.27128 10.4071 5.19874 10.5298C5.12619 10.6525 4.99212 10.7281 4.84702 10.7281C4.07359 10.7281 3.4466 10.1159 3.4466 9.3606C3.44786 9.26446 3.42202 9.16984 3.37191 9.08709C3.21529 8.82231 2.86914 8.73067 2.59701 8.88195C1.93986 9.2313 1.11757 9.01449 0.72978 8.38964L0.41235 7.84718C0.0546074 7.20546 0.276625 6.40247 0.916503 6.02379C1.00131 5.97506 1.072 5.90603 1.1219 5.82321C1.21552 5.69579 1.24916 5.53547 1.21442 5.38235C1.17967 5.22923 1.07982 5.0978 0.939843 5.02092C0.299966 4.64223 0.0779477 3.83925 0.435691 3.19753C0.49555 3.10965 0.588808 3.0487 0.694821 3.02817C0.800833 3.00764 0.910855 3.02921 1.00053 3.08812C1.17767 3.20575 1.22903 3.43847 1.11723 3.61691C0.962727 3.88128 1.05674 4.21789 1.32729 4.36906C1.53057 4.49069 1.69789 4.66194 1.81277 4.86593C2.17052 5.50765 1.9485 6.31064 1.30862 6.68933C1.03807 6.84049 0.944054 7.17711 1.09856 7.44147L1.42066 7.98393C1.49394 8.1132 1.61806 8.20768 1.76432 8.24554C1.91058 8.2834 2.06632 8.26135 2.19556 8.18451C2.40394 8.06648 2.64088 8.0051 2.88176 8.00673C3.6552 8.00673 4.28219 8.619 4.28219 9.37427ZM9.42174 6.01928C9.29133 5.94591 9.1963 5.82475 9.15774 5.68268C9.11918 5.54061 9.14028 5.38939 9.21635 5.26258C9.26624 5.17976 9.33693 5.11073 9.42174 5.062C9.61332 4.94961 9.6759 4.70719 9.56178 4.51954C9.44837 4.33431 9.20631 4.26821 9.01095 4.36911C8.37107 4.7478 8.14906 5.55078 8.5068 6.19251C8.62043 6.4167 8.79687 6.6048 9.01562 6.73497C9.14571 6.80746 9.24066 6.9278 9.27925 7.06913C9.31785 7.21046 9.29687 7.36099 9.22101 7.48712L8.90359 8.02957C8.82715 8.15652 8.70335 8.24964 8.55815 8.28941C8.41268 8.3273 8.2577 8.30591 8.12868 8.23015C7.69929 8.00059 7.17831 8.00665 6.75463 8.24612C6.33096 8.4856 6.06609 8.92374 6.05606 9.40168C6.07841 9.60553 6.25457 9.76012 6.46452 9.76012C6.67446 9.76012 6.85062 9.60553 6.87297 9.40168C6.86911 9.20252 6.97642 9.01705 7.15311 8.91751C7.3298 8.81797 7.54794 8.82008 7.72256 8.92304C8.37971 9.27238 9.202 9.05558 9.58979 8.43072L9.90722 7.88826C10.2992 7.24089 10.0823 6.40594 9.42174 6.01928ZM5.16913 3.82657C4.45879 3.82657 3.81849 4.24466 3.54709 4.8857C3.2757 5.52673 3.42672 6.2643 3.92967 6.75414C4.43262 7.24398 5.18833 7.38949 5.84405 7.12276C6.49977 6.85603 6.92621 6.22965 6.92432 5.536C6.92432 5.08184 6.73925 4.64634 6.40995 4.32563C6.08066 4.00492 5.6342 3.82535 5.16913 3.82657ZM5.16914 6.45214C4.65352 6.45214 4.23552 6.04396 4.23552 5.54044C4.23552 5.03692 4.65352 4.62874 5.16914 4.62874C5.68476 4.62874 6.10275 5.03692 6.10275 5.54044C6.10275 6.04396 5.68476 6.45214 5.16914 6.45214Z" fill="#92929E"/>
</g>
</svg>
