<svg width="32" height="32" viewBox="0 0 32 32" fill="none" xmlns="http://www.w3.org/2000/svg">
<g id="mingcute:settings-6-line" clip-path="url(#clip0_2451_41771)">
<g id="Group">
<path id="Vector" fill-rule="evenodd" clip-rule="evenodd" d="M21.3333 20C23.0747 20 24.5573 21.1133 25.1067 22.6667H26.6667C27.0203 22.6667 27.3594 22.8071 27.6095 23.0572C27.8595 23.3072 28 23.6464 28 24C28 24.3536 27.8595 24.6928 27.6095 24.9428C27.3594 25.1929 27.0203 25.3333 26.6667 25.3333H25.1067C24.8312 26.114 24.3203 26.7901 23.6445 27.2683C22.9687 27.7465 22.1612 28.0033 21.3333 28.0033C20.5054 28.0033 19.6979 27.7465 19.0221 27.2683C18.3463 26.7901 17.8355 26.114 17.56 25.3333H5.33333C4.97971 25.3333 4.64057 25.1929 4.39052 24.9428C4.14048 24.6928 4 24.3536 4 24C4 23.6464 4.14048 23.3072 4.39052 23.0572C4.64057 22.8071 4.97971 22.6667 5.33333 22.6667H17.56C17.836 21.8866 18.3471 21.2112 19.0229 20.7337C19.6986 20.2561 20.5058 19.9998 21.3333 20ZM21.3333 22.6667C20.9797 22.6667 20.6406 22.8071 20.3905 23.0572C20.1405 23.3072 20 23.6464 20 24C20 24.3536 20.1405 24.6928 20.3905 24.9428C20.6406 25.1929 20.9797 25.3333 21.3333 25.3333C21.687 25.3333 22.0261 25.1929 22.2761 24.9428C22.5262 24.6928 22.6667 24.3536 22.6667 24C22.6667 23.6464 22.5262 23.3072 22.2761 23.0572C22.0261 22.8071 21.687 22.6667 21.3333 22.6667ZM10.6667 12C11.452 11.9999 12.22 12.231 12.8748 12.6644C13.5297 13.0978 14.0425 13.7144 14.3493 14.4373L14.4387 14.6667H26.6667C27.0065 14.667 27.3334 14.7972 27.5805 15.0305C27.8276 15.2638 27.9763 15.5826 27.9962 15.9219C28.0161 16.2611 27.9058 16.5952 27.6876 16.8558C27.4695 17.1164 27.1601 17.2839 26.8227 17.324L26.6667 17.3333H14.44C14.1712 18.0937 13.6789 18.7551 13.0276 19.2308C12.3764 19.7065 11.5966 19.9744 10.7905 19.9991C9.98436 20.0239 9.18956 19.8046 8.5103 19.3698C7.83104 18.935 7.29902 18.3051 6.984 17.5627L6.89333 17.3333H5.33333C4.99349 17.333 4.66662 17.2028 4.41951 16.9695C4.17239 16.7362 4.02369 16.4174 4.00377 16.0781C3.98385 15.7389 4.09423 15.4048 4.31235 15.1442C4.53047 14.8836 4.83987 14.7161 5.17733 14.676L5.33333 14.6667H6.89333C7.16935 13.8866 7.68043 13.2112 8.3562 12.7337C9.03197 12.2561 9.83918 11.9998 10.6667 12ZM10.6667 14.6667C10.313 14.6667 9.97391 14.8071 9.72386 15.0572C9.47381 15.3072 9.33333 15.6464 9.33333 16C9.33333 16.3536 9.47381 16.6928 9.72386 16.9428C9.97391 17.1929 10.313 17.3333 10.6667 17.3333C11.0203 17.3333 11.3594 17.1929 11.6095 16.9428C11.8595 16.6928 12 16.3536 12 16C12 15.6464 11.8595 15.3072 11.6095 15.0572C11.3594 14.8071 11.0203 14.6667 10.6667 14.6667ZM21.3333 4C23.0747 4 24.5573 5.11333 25.1067 6.66667H26.6667C27.0203 6.66667 27.3594 6.80714 27.6095 7.05719C27.8595 7.30724 28 7.64638 28 8C28 8.35362 27.8595 8.69276 27.6095 8.94281C27.3594 9.19286 27.0203 9.33333 26.6667 9.33333H25.1067C24.8312 10.114 24.3203 10.7901 23.6445 11.2683C22.9687 11.7465 22.1612 12.0033 21.3333 12.0033C20.5054 12.0033 19.6979 11.7465 19.0221 11.2683C18.3463 10.7901 17.8355 10.114 17.56 9.33333H5.33333C4.97971 9.33333 4.64057 9.19286 4.39052 8.94281C4.14048 8.69276 4 8.35362 4 8C4 7.64638 4.14048 7.30724 4.39052 7.05719C4.64057 6.80714 4.97971 6.66667 5.33333 6.66667H17.56C17.836 5.88657 18.3471 5.21123 19.0229 4.73365C19.6986 4.25608 20.5058 3.99976 21.3333 4ZM21.3333 6.66667C20.9797 6.66667 20.6406 6.80714 20.3905 7.05719C20.1405 7.30724 20 7.64638 20 8C20 8.35362 20.1405 8.69276 20.3905 8.94281C20.6406 9.19286 20.9797 9.33333 21.3333 9.33333C21.687 9.33333 22.0261 9.19286 22.2761 8.94281C22.5262 8.69276 22.6667 8.35362 22.6667 8C22.6667 7.64638 22.5262 7.30724 22.2761 7.05719C22.0261 6.80714 21.687 6.66667 21.3333 6.66667Z" fill="white"/>
</g>
<path id="Vector_2" fill-rule="evenodd" clip-rule="evenodd" d="M10.6652 12C11.4505 11.9999 12.2185 12.231 12.8734 12.6644C13.5282 13.0978 14.0411 13.7144 14.3479 14.4373L14.4372 14.6667H26.6652C27.005 14.667 27.3319 14.7972 27.579 15.0305C27.8261 15.2638 27.9748 15.5826 27.9948 15.9219C28.0147 16.2611 27.9043 16.5952 27.6862 16.8558C27.4681 17.1164 27.1587 17.2839 26.8212 17.324L26.6652 17.3333H14.4385C14.1697 18.0937 13.6774 18.7551 13.0262 19.2308C12.3749 19.7065 11.5951 19.9744 10.789 19.9991C9.98288 20.0239 9.18809 19.8046 8.50883 19.3698C7.82957 18.935 7.29755 18.3051 6.98252 17.5627L6.89186 17.3333H5.33186C4.99202 17.333 4.66515 17.2028 4.41803 16.9695C4.17092 16.7362 4.02221 16.4174 4.00229 16.0781C3.98238 15.7389 4.09276 15.4048 4.31088 15.1442C4.529 14.8836 4.83839 14.7161 5.17586 14.676L5.33186 14.6667H6.89186C7.16787 13.8866 7.67895 13.2112 8.35472 12.7337C9.03049 12.2561 9.8377 11.9998 10.6652 12ZM10.6652 14.6667C10.3116 14.6667 9.97243 14.8071 9.72238 15.0572C9.47233 15.3072 9.33186 15.6464 9.33186 16C9.33186 16.3536 9.47233 16.6928 9.72238 16.9428C9.97243 17.1929 10.3116 17.3333 10.6652 17.3333C11.0188 17.3333 11.358 17.1929 11.608 16.9428C11.858 16.6928 11.9985 16.3536 11.9985 16C11.9985 15.6464 11.858 15.3072 11.608 15.0572C11.358 14.8071 11.0188 14.6667 10.6652 14.6667Z" fill="url(#paint0_linear_2451_41771)"/>
</g>
<defs>
<linearGradient id="paint0_linear_2451_41771" x1="4" y1="16.0005" x2="27.997" y2="16.0005" gradientUnits="userSpaceOnUse">
<stop stop-color="#0387F5"/>
<stop offset="1" stop-color="#0ED4B9"/>
</linearGradient>
<clipPath id="clip0_2451_41771">
<rect width="32" height="32" fill="white"/>
</clipPath>
</defs>
</svg>
